<mxfile host="65bd71144e">
    <diagram id="AkyGVdQBg8M0sL4HNPh_" name="ページ1">
        <mxGraphModel dx="1649" dy="1300" grid="1" gridSize="10" guides="1" tooltips="1" connect="1" arrows="1" fold="1" page="1" pageScale="1" pageWidth="827" pageHeight="1169" math="0" shadow="0">
            <root>
                <mxCell id="0"/>
                <mxCell id="1" parent="0"/>
                <mxCell id="2" value="" style="shape=image;verticalLabelPosition=bottom;labelBackgroundColor=#ffffff;verticalAlign=top;aspect=fixed;imageAspect=0;image=data:image/png,iVBORw0KGgoAAAANSUhEUgAAAP8AAAD4CAYAAAAjDTByAAAAOXRFWHRTb2Z0d2FyZQBNYXRwbG90bGliIHZlcnNpb24zLjMuNCwgaHR0cHM6Ly9tYXRwbG90bGliLm9yZy8QVMy6AAAACXBIWXMAAAsTAAALEwEAmpwYAAAQeElEQVR4nO3de4xc5XnH8e+P9RXb8YWljsHIQAQIGrWALETSiEY1pYYinEr5w6hpIUSKopYWqlTIKVITVUJKmpZeo0TcUtoiiEqgQRE0uCRRVKm4AdeYiwkYSjGuwTeEwRjbaz/9Y47ReNm1d55z8Trv7yOtdnbmvPs+e2Z/e2bOzjuPIgIzK88Jx7oAMzs2HH6zQjn8ZoVy+M0K5fCbFWpKl5MNDw/HkiVLOpnrePgvRrbGn9ef7eDBg6m59uzZM/AYSam5pk+fnhqXmW9oaGjgMZs2bWLHjh0TmqzT8C9ZsoQ1a9YMPC7zi7Rv376Bx2TnyobxwIEDqXHZkGRkf7b9+/cPPGb37t2pudavXz/wmClTcr/6Z599dmpcZr65c+cOPObSSy+d8LZ+2G9WKIffrFC1wi9puaSfSdooaVVTRZlZ+9LhlzQEfAO4HDgPuFrSeU0VZmbtqnPkvwjYGBEvR8Q+4D5gRTNlmVnb6oT/VGBT39evVdcdRtLnJT0h6Ynt27fXmM7MmtT6Cb+IuC0ilkbE0uHh4banM7MJqhP+zcBpfV8vrq4zs+NAnfD/FDhL0hmSpgErgYeaKcvM2pZ+hV9EjEi6HvgBMATcFRHPNlaZmbWq1st7I+Jh4OGGajGzDvkVfmaF6nRhD+QWioyMjAw8Jrv4JTMuu0AnO65L2RozC6uyc2UWwGRX9WUXjGVWA2Z+7wfJl4/8ZoVy+M0K5fCbFcrhNyuUw29WKIffrFAOv1mhHH6zQjn8ZoVy+M0K5fCbFcrhNytU5wt7Mos3umxPlZkruyAlu7gk0w0nu9Aps7gEci203n777dRcc+bMGXhMtmPPtGnTUuMy2u7M5CO/WaEcfrNCOfxmharTsec0ST+S9JykZyXd0GRhZtauOif8RoAvRsRaSXOAJyWtjojnGqrNzFqUPvJHxJaIWFtdfhvYwBgde8xscmrkOb+k04ELgDVj3PZ+u65t27Y1MZ2ZNaB2+CXNBr4L3BgRu0bf3t+u6+STT647nZk1pFb4JU2lF/x7IuKBZkoysy7UOdsv4E5gQ0Tc2lxJZtaFOkf+XwF+B/g1SeuqjysaqsvMWlanV99/ALkXp5vZMedX+JkVqtNVfRHR2Qq97Gq0LluD7d27NzUuU+Pu3btTc2Xvr0yNU6dOTc01Y8aMgccMDQ2l5sre112txBxkjI/8ZoVy+M0K5fCbFcrhNyuUw29WKIffrFAOv1mhHH6zQjn8ZoVy+M0K5fCbFcrhNytU5+26MgtFMotEsgt7Mospsu26Mos9AHbu3DnwmOzCngULFqTGzZw5c+Ax2cU2J5ww+DEs2yotq8uWcxPlI79ZoRx+s0I5/GaFauKtu4ck/bek7zdRkJl1o4kj/w30uvWY2XGk7vv2LwZ+E7ijmXLMrCt1j/x/DdwE5N7YzMyOmTpNO64EtkbEk0fZ7v1efdu3b89OZ2YNq9u04ypJrwD30Wve8c+jN+rv1Tc8PFxjOjNrUp0W3V+KiMURcTqwEvhhRHymscrMrFX+P79ZoRp5bX9E/Bj4cRPfy8y64SO/WaE6b9eVWW2XWf22b9++gcdk58q2mcrW+N577w08JtPSCvIrDzOyK+0yqwEzKwGh29WA2dZgE+Ujv1mhHH6zQjn8ZoVy+M0K5fCbFcrhNyuUw29WKIffrFAOv1mhHH6zQjn8ZoVy+M0K5fCbFarzVX1drdDbu3fvwGMgt4otu/Jt165dqXEZ2f3x5ptvpsZlVs3NmzcvNdesWbMGHpPpJQj5nnuZ1YDZ3oUT5SO/WaEcfrNCOfxmharbsWeepPslPS9pg6SPNVWYmbWr7gm/vwH+LSI+LWkacGIDNZlZB9LhlzQXuAS4FiAi9gG5N6Uzs87Vedh/BrAN+HbVovsOSR/4n0t/u64dO3bUmM7MmlQn/FOAC4FvRsQFwG5g1eiN+tt1nXTSSTWmM7Mm1Qn/a8BrEbGm+vp+en8MzOw4UKdX3+vAJknnVFctA55rpCoza13ds/1/ANxTnel/Gfhs/ZLMrAu1wh8R64ClzZRiZl3qdGFP1oEDBwYek211lJkr0z4L8jVmFum88MILqbk2bNiQGnfuuecOPGbhwoWpuRYvXjzwmBNPzL0kpct2XVOmDB7PQerzy3vNCuXwmxXK4TcrlMNvViiH36xQDr9ZoRx+s0I5/GaFcvjNCuXwmxXK4TcrlMNvViiH36xQna/qy6yay8i0iwKYOnXqwGMyq68A3n333dS4d955Z+Ax69atS811++23p8bdcsstA48ZHh5OzZVpl5ZdnZdt15X5fcy06/KqPjM7KoffrFAOv1mh6rbr+iNJz0p6RtK9kmY0VZiZtSsdfkmnAn8ILI2IjwJDwMqmCjOzdtV92D8FmClpCr0+ff9XvyQz60Kd9+3fDPwF8CqwBXgrIh4dvZ3bdZlNTnUe9s8HVtDr2XcKMEvSZ0Zv53ZdZpNTnYf9lwL/ExHbImI/8ADw8WbKMrO21Qn/q8DFkk5U72VFy4Dcm7ybWefqPOdfQ68551rg6ep73dZQXWbWsrrtur4MfLmhWsysQ36Fn1mhOl/Vl1lNlRkzbdq0gcdAbtVWtudelzWef/75qbluvfXW1LhFixYNPGb69OmpuTKrKrOrSzMr7SBXY+b3w6v6zOyoHH6zQjn8ZoVy+M0K5fCbFcrhNyuUw29WKIffrFAOv1mhHH6zQjn8ZoVy+M0K1enCnojorF1Xtq1Sto1TxqxZs1LjTjnllIHHfOhDH0rNlV20lBmXbXuWabG2Z8+e1FyzZ89Ojcv8bJmFToO0BfOR36xQDr9ZoRx+s0IdNfyS7pK0VdIzfdctkLRa0ovV5/ntlmlmTZvIkf8fgOWjrlsFPBYRZwGPVV+b2XHkqOGPiJ8AO0ddvQK4u7p8N/CpZssys7Zln/MvjIgt1eXXgYXjbeh2XWaTU+0TftH7h/q4/1R3uy6zySkb/jckLQKoPm9triQz60I2/A8B11SXrwG+10w5ZtaVifyr717gP4FzJL0m6XPAV4Ffl/QivYadX223TDNr2lFfcBwRV49z07KGazGzDvkVfmaF6nRVn6SBVh0dsn///oHHZFcPZlb1ZVe+ZVexZVYDZluD7d69OzUuc5/NmTMnNVdmVV/258r+x2rmzJkDj3G7LjNrhcNvViiH36xQDr9ZoRx+s0I5/GaFcvjNCuXwmxXK4TcrlMNvViiH36xQDr9ZoTpd2AO5hTNdttDKtPnK1pddEJSRWfwCMDQ01HAl48su7Mns/+xcM2bMSI3LLNJpe9/7yG9WKIffrFAOv1mhsu26vi7peUnrJT0oaV6rVZpZ47LtulYDH42IXwJeAL7UcF1m1rJUu66IeDQiRqovHwcWt1CbmbWoief81wGPjHej23WZTU61wi/pZmAEuGe8bdyuy2xySr/IR9K1wJXAssi8MsbMjqlU+CUtB24CfjUi3m22JDPrQrZd198Dc4DVktZJ+lbLdZpZw7Ltuu5soRYz65Bf4WdWqM7bdWVWl2VWbWXbdWVW2mXnGhkZOfpGY8i0PMuMAZg/f35q3PTp0wcek21flpFpn1VnXNuttzJjfOQ3K5TDb1Yoh9+sUA6/WaEcfrNCOfxmhXL4zQrl8JsVyuE3K5TDb1Yoh9+sUA6/WaEcfrNCdb6qr6veb9l3Ftu/f38nYyC/iq2rFWJ1xmVWEWZ/NzL7Mbs6L3ufZfZH2z0qfeQ3K5TDb1aoVLuuvtu+KCkkDbdTnpm1JduuC0mnAZcBrzZck5l1INWuq/JX9N6+2+/Zb3YcSj3nl7QC2BwRT01g2/fbdW3fvj0znZm1YODwSzoR+BPgTyeyfX+7ruFhnxowmywyR/6PAGcAT0l6hV6H3rWSPtxkYWbWroFfsRARTwO/cOjr6g/A0ojwY3qz40i2XZeZHeey7br6bz+9sWrMrDN+hZ9ZoTpd2HPw4MH0IphB7dmzJzUus5hi9uzZqbmyMouWMm3IIL+QJbNIJ7uwJ9MCLjMG8m3P2l6kk+Ejv1mhHH6zQjn8ZoVy+M0K5fCbFcrhNyuUw29WKIffrFAOv1mhHH6zQjn8ZoVy+M0K5fCbFUrZtlapyaRtwP+Oc/MwMBneDch1HM51HG6y17EkIk6eyDfoNPxHIumJiFjqOlyH6+imDj/sNyuUw29WqMkU/tuOdQEV13E413G4n5s6Js1zfjPr1mQ68ptZhxx+s0J1Gn5JyyX9TNJGSavGuH26pO9Ut6+RdHoLNZwm6UeSnpP0rKQbxtjmk5LekrSu+phQX8JkPa9Ierqa54kxbpekv632yXpJFzY8/zl9P+c6Sbsk3Thqm9b2h6S7JG2V9EzfdQskrZb0YvV5/jhjr6m2eVHSNS3U8XVJz1f7/UFJ88YZe8T7sIE6viJpc9/+v2KcsUfM1wdERCcfwBDwEnAmMA14Cjhv1Da/B3yrurwS+E4LdSwCLqwuzwFeGKOOTwLf72i/vAIMH+H2K4BHAAEXA2tavo9ep/dCkU72B3AJcCHwTN91fw6sqi6vAr42xrgFwMvV5/nV5fkN13EZMKW6/LWx6pjIfdhAHV8B/ngC990R8zX6o8sj/0XAxoh4OSL2AfcBK0ZtswK4u7p8P7BMDb/heURsiYi11eW3gQ3AqU3O0bAVwD9Gz+PAPEmLWpprGfBSRIz3KszGRcRPgJ2jru7/Pbgb+NQYQ38DWB0ROyPiTWA1sLzJOiLi0YgYqb58nF5T2laNsz8mYiL5OkyX4T8V2NT39Wt8MHTvb1Pt9LeAk9oqqHpacQGwZoybPybpKUmPSPrFtmoAAnhU0pOSPj/G7RPZb01ZCdw7zm1d7Q+AhRGxpbr8OrBwjG263C8A19F7BDaWo92HTbi+evpx1zhPgwbeH8We8JM0G/gucGNE7Bp181p6D31/Gfg74F9bLOUTEXEhcDnw+5IuaXGucUmaBlwF/MsYN3e5Pw4Tvce0x/T/0ZJuBkaAe8bZpO378JvAR4DzgS3AXzbxTbsM/2bgtL6vF1fXjbmNpCnAXGBH04VImkov+PdExAOjb4+IXRHxTnX5YWCqpOGm66i+/+bq81bgQXoP3/pNZL814XJgbUS8MUaNne2PyhuHntpUn7eOsU0n+0XStcCVwG9Xf4g+YAL3YS0R8UZEHIiIg8Dt43z/gfdHl+H/KXCWpDOqo8xK4KFR2zwEHDpr+2ngh+Pt8KzqHMKdwIaIuHWcbT586FyDpIvo7ac2/gjNkjTn0GV6J5ieGbXZQ8DvVmf9Lwbe6ntI3KSrGechf1f7o0//78E1wPfG2OYHwGWS5lcPgy+rrmuMpOXATcBVEfHuONtM5D6sW0f/OZ7fGuf7TyRfh2viDOUAZzKvoHd2/SXg5uq6P6O3cwFm0HvYuRH4L+DMFmr4BL2HkeuBddXHFcAXgC9U21wPPEvvjOnjwMdb2h9nVnM8Vc13aJ/01yLgG9U+expY2kIds+iFeW7fdZ3sD3p/cLYA++k9T/0cvfM8jwEvAv8OLKi2XQrc0Tf2uup3ZSPw2Rbq2EjvefSh35ND/4k6BXj4SPdhw3X8U3Xfr6cX6EWj6xgvX0f68Mt7zQpV7Ak/s9I5/GaFcvjNCuXwmxXK4TcrlMNvViiH36xQ/w89gTHzN9TxqwAAAABJRU5ErkJggg==;" parent="1" vertex="1">
                    <mxGeometry x="331" y="120" width="258" height="251" as="geometry"/>
                </mxCell>
                <mxCell id="3" value="" style="shape=image;verticalLabelPosition=bottom;labelBackgroundColor=#ffffff;verticalAlign=top;aspect=fixed;imageAspect=0;image=data:image/png,iVBORw0KGgoAAAANSUhEUgAAAP8AAAD4CAYAAAAjDTByAAAAOXRFWHRTb2Z0d2FyZQBNYXRwbG90bGliIHZlcnNpb24zLjMuNCwgaHR0cHM6Ly9tYXRwbG90bGliLm9yZy8QVMy6AAAACXBIWXMAAAsTAAALEwEAmpwYAAAQz0lEQVR4nO3dfYxc5XXH8e/P9vqVlQ2sa4gB24Q3UUQBWYiEiEZ1Sw1FOJXyB4i0EIKiqKWFKhUiRWqi/pU0bfpGlIgSUtoiQCXQoAgaXJIoqihuwLV5TzDUBVwDNi+2a7Dxsqd/zHU0XnbtvWfuvbb7/D7Samdn7rPP2Wfm7J25c88cRQRmVp5pBzsAMzs4nPxmhXLymxXKyW9WKCe/WaFmdDnZyMhILFmypPa4sbGx2mMk1R6THXc4vGOSXY8u/7ZsjBld32ddPa5eeukltm7dOqXJOk3+JUuW8Mgjj9Qet3v37tpjhoaGao8BmDat/pOh999/PzVX9gGYiTG7Hu+9915qXEbm78qOy95nmR0RwIwZ9VMtM9f5558/5W39tN+sUE5+s0INlPySVkr6qaQNkm5sKigza186+SVNB74OXAScDlwu6fSmAjOzdg2y5z8X2BARL0bEe8BdwKpmwjKztg2S/IuBl/t+fqW6bh+SPivpMUmPbdmyZYDpzKxJrR/wi4hbImJ5RCxfuHBh29OZ2RQNkvybgOP7fj6uus7MDgODJP9PgJMlLZM0E7gMuL+ZsMysbekz/CJiVNK1wPeB6cBtEfF0Y5GZWasGOr03Ih4AHmgoFjPrkM/wMytUp4U9kCvCGB4erj1m586dtcdAvrgkI1PsAbkKsWyBTrYAJlNItGfPntRcM2fOTI3L6PLxkbmf64zxnt+sUE5+s0I5+c0K5eQ3K5ST36xQTn6zQjn5zQrl5DcrlJPfrFBOfrNCOfnNCuXkNytU54U92UKRurpsT5Ut0Ml0IgKYPn167THZgpTR0dHUuFmzZqXGdSX7+MiuR2b92y4i8p7frFBOfrNCOfnNCjVIx57jJf1Q0jOSnpZ0XZOBmVm7BjngNwp8PiLWShoGHpe0OiKeaSg2M2tRes8fEZsjYm11eQfwLBN07DGzQ1Mjr/klLQXOBtZMcJvbdZkdggZOfklHAN8Bro+I7eNvd7sus0PTQMkvaYhe4t8REfc2E5KZdWGQo/0CvgU8GxFfay4kM+vCIHv+84HfAn5F0rrq6+KG4jKzlg3Sq+/fgNwJ0mZ20PkMP7NCdV7Vl5GtpMrIVFJlW2G9++67qXFdtqfKtN2C3JpkKiohVyma/bsyFZWQq+Bs+372nt+sUE5+s0I5+c0K5eQ3K5ST36xQTn6zQjn5zQrl5DcrlJPfrFBOfrNCOfnNCuXkNytU54U9mcKZsbGx2mOyBRiZgpRsC7Jt27alxr311lu1xwwPD6fmWrw495mss2fPrj0mW+iUeXxk77NsG7LM43HPnj21x9QpjvKe36xQTn6zQjn5zQrVxEd3T5f0n5K+10RAZtaNJvb819Hr1mNmh5FBP7f/OOA3gFubCcfMujLonv8vgRuA+u+1mNlBNUjTjkuA1yPi8QNs9/NefVu3bs1OZ2YNG7Rpx6WSNgJ30Wve8Y/jN+rv1TcyMjLAdGbWpEFadH8hIo6LiKXAZcAPIuJTjUVmZq3y+/xmhWrk3P6I+BHwoyZ+l5l1w3t+s0J1XtXX6+xdT6YCK9v6KTMuO9f27dtT49avX197zDHHHJOaK9syKlORlp0rU2mXqQQcZNyMGfVTLbOGdXjPb1YoJ79ZoZz8ZoVy8psVyslvVignv1mhnPxmhXLymxXKyW9WKCe/WaGc/GaFcvKbFcrJb1aoTqv6JKV69WUqojI99yBXIZada/78+alxmWqvjRs3pubKrD3AGWecUXtMtqpv165dtcdke+5lqlIhV5ma7Tc5Vd7zmxXKyW9WKCe/WaEG7dizQNI9kp6T9KykjzQVmJm1a9ADfn8F/EtEfFLSTGBuAzGZWQfSyS9pPnABcBVARLwH5A57m1nnBnnavwzYAny7atF9q6R54zfqb9e1ZcuWAaYzsyYNkvwzgHOAb0TE2cBO4MbxG/W361q4cOEA05lZkwZJ/leAVyJiTfXzPfT+GZjZYWCQXn2vAi9LOrW6agXwTCNRmVnrBj3a/3vAHdWR/heBTw8ekpl1YaDkj4h1wPJmQjGzLnVa2DM6Osq2bdtqjzviiCNqjxkaGqo9Jitb/DJv3gfeHJmSBQsW1B5z8803p+Y64YQTUuOuueaa2mPOPPPM1Fxz5sypPWZ0dDQ1V1amSCczpk7hkU/vNSuUk9+sUE5+s0I5+c0K5eQ3K5ST36xQTn6zQjn5zQrl5DcrlJPfrFBOfrNCOfnNCuXkNytUp1V9ABFRe0ymHVa20m5sbKz2mEwrJshVowEsXbq09phs66e77747Ne6ss86qPWbZsmWpuTJVn9nHR6ZVGuTWP9O+zFV9ZnZATn6zQjn5zQo1aLuuP5D0tKSnJN0paXZTgZlZu9LJL2kx8PvA8og4A5gOXNZUYGbWrkGf9s8A5kiaQa9P3/8MHpKZdWGQz+3fBPwZ8BKwGdgWEQ+N366/Xdcbb7yRj9TMGjXI0/4jgVX0evZ9CJgn6VPjt+tv13X00UfnIzWzRg3ytP9Xgf+KiC0RsQe4F/hoM2GZWdsGSf6XgPMkzVXvtKIVwLPNhGVmbRvkNf8aes051wJPVr/rlobiMrOWDdqu64vAFxuKxcw65DP8zArVaVXftGnTmD27/kmA06Z19z8qU0m1a9eu1FzZasDFixfXHnPFFVek5hoeHk6Ny1S/vfnmm6m5Fi1aVHtMtldftjoy45133qk9pk5Vqvf8ZoVy8psVyslvVignv1mhnPxmhXLymxXKyW9WKCe/WaGc/GaFcvKbFcrJb1YoJ79ZoTot7JHErFmzao/LFMBk2m5BrpiiToukfvPmzUuNy7Q8O+2001JzZdYDSBVwbd++PTXXjh07ao+ZO3duaq7M3wW5lnOZ4qM6jw3v+c0K5eQ3K5ST36xQB0x+SbdJel3SU33XHSVptaTnq+9HthummTVtKnv+vwNWjrvuRuDhiDgZeLj62cwOIwdM/oj4MTD+85VWAbdXl28HPtFsWGbWtuxr/kURsbm6/Cow6Yeo9bfr2rp1a3I6M2vawAf8ovfG4qRvLva36xoZGRl0OjNrSDb5X5N0LED1/fXmQjKzLmST/37gyurylcB3mwnHzLoylbf67gT+HThV0iuSPgN8Gfg1Sc/Ta9j55XbDNLOmHfDc/oi4fJKbVjQci5l1yGf4mRWq86q+TOutTIXejBm5Py0zLltBmG39lGkpdsopp3Q2F8Dbb79de0y20i7zmMpWVGZbrA0NDXUyps5aeM9vVignv1mhnPxmhXLymxXKyW9WKCe/WaGc/GaFcvKbFcrJb1YoJ79ZoZz8ZoVy8psVqtPCnohItS3KFMBkWh1Brkgk0z4L8kUimeKjBQsWpOY66aSTUuMyhT1dFkjt3LkzNdecOXNS4zKPkcx6uF2XmR2Qk9+sUE5+s0Jl23V9VdJzkp6QdJ+kBa1GaWaNy7brWg2cERFnAj8DvtBwXGbWslS7roh4KCL2Hk5/FDiuhdjMrEVNvOa/Gnhwshv723Vt2bKlgenMrAkDJb+km4BR4I7Jtulv17Vw4cJBpjOzBqVP8pF0FXAJsCKyZ7mY2UGTSn5JK4EbgF+OiHeaDcnMupBt13UzMAyslrRO0jdbjtPMGpZt1/WtFmIxsw75DD+zQnVa1Qe9ll117dmzp5N5IFcNmG1pla3qy1SxZY/JZqvYMrIxzp49u/aY7OPj3XffTY2bNWtW7TGZ6s06f5f3/GaFcvKbFcrJb1YoJ79ZoZz8ZoVy8psVyslvVignv1mhnPxmhXLymxXKyW9WKCe/WaGc/GaF6rSqT1LrlUqD6rJXX2YtAHbt2lV7TKYSEPJrP3/+/NpjMmsPuarP7HpkY8zc15m/y736zOyAnPxmhUq16+q77fOSQtJIO+GZWVuy7bqQdDxwIfBSwzGZWQdS7boqf0Hv47v9mf1mh6HUa35Jq4BNEbF+Ctu6XZfZIah28kuaC/wR8MdT2d7tuswOTZk9/4eBZcB6SRvpdehdK+mYJgMzs3bVPvMgIp4EfmHvz9U/gOURsbXBuMysZdl2XWZ2mMu26+q/fWlj0ZhZZ3yGn1mhOi3siYhUi6psEUbG2NhYZ3Pt3r07NS6zHtkCney4TCHLjh07UnNlWooNDQ2l5so+PjLjMmvvdl1mdkBOfrNCOfnNCuXkNyuUk9+sUE5+s0I5+c0K5eQ3K5ST36xQTn6zQjn5zQrl5DcrlJPfrFDKtppKTSZtAf57kptHgEPh04Acx74cx74O9TiWRMSUPiyz0+TfH0mPRcRyx+E4HEc3cfhpv1mhnPxmhTqUkv+Wgx1AxXHsy3Hs6/9NHIfMa34z69ahtOc3sw45+c0K1WnyS1op6aeSNki6cYLbZ0m6u7p9jaSlLcRwvKQfSnpG0tOSrptgm49L2iZpXfU1pb6EyXg2SnqymuexCW6XpL+u1uQJSec0PP+pfX/nOknbJV0/bpvW1kPSbZJel/RU33VHSVot6fnq+5GTjL2y2uZ5SVe2EMdXJT1Xrft9khZMMna/92EDcXxJ0qa+9b94krH7za8PiIhOvoDpwAvAicBMYD1w+rhtfgf4ZnX5MuDuFuI4FjinujwM/GyCOD4OfK+jddkIjOzn9ouBBwEB5wFrWr6PXqV3okgn6wFcAJwDPNV33Z8CN1aXbwS+MsG4o4AXq+9HVpePbDiOC4EZ1eWvTBTHVO7DBuL4EvCHU7jv9ptf47+63POfC2yIiBcj4j3gLmDVuG1WAbdXl+8BVij7wfGTiIjNEbG2urwDeBZY3OQcDVsF/H30PAoskHRsS3OtAF6IiMnOwmxcRPwYeHPc1f2Pg9uBT0ww9NeB1RHxZkS8BawGVjYZR0Q8FBGj1Y+P0mtK26pJ1mMqppJf++gy+RcDL/f9/AofTLqfb1Mt+jbg6LYCql5WnA2smeDmj0haL+lBSb/YVgxAAA9JelzSZye4fSrr1pTLgDsnua2r9QBYFBGbq8uvAosm2KbLdQG4mt4zsIkc6D5swrXVy4/bJnkZVHs9ij3gJ+kI4DvA9RGxfdzNa+k99f0l4G+Af24xlI9FxDnARcDvSrqgxbkmJWkmcCnwTxPc3OV67CN6z2kP6vvRkm4CRoE7Jtmk7fvwG8CHgbOAzcCfN/FLu0z+TcDxfT8fV1034TaSZgDzgTeaDkTSEL3EvyMi7h1/e0Rsj4j/rS4/AAxJGmk6jur3b6q+vw7cR+/pW7+prFsTLgLWRsRrE8TY2XpUXtv70qb6/voE23SyLpKuAi4Brqj+EX3AFO7DgUTEaxHxfkSMAX87ye+vvR5dJv9PgJMlLav2MpcB94/b5n5g71HbTwI/mGzBs6pjCN8Cno2Ir02yzTF7jzVIOpfeOrXxT2iepOG9l+kdYHpq3Gb3A79dHfU/D9jW95S4SZczyVP+rtajT//j4ErguxNs833gQklHVk+DL6yua4yklcANwKUR8c4k20zlPhw0jv5jPL85ye+fSn7tq4kjlDWOZF5M7+j6C8BN1XV/Qm9xAWbTe9q5AfgP4MQWYvgYvaeRTwDrqq+Lgc8Bn6u2uRZ4mt4R00eBj7a0HidWc6yv5tu7Jv2xCPh6tWZPAstbiGMevWSe33ddJ+tB7x/OZmAPvdepn6F3nOdh4HngX4Gjqm2XA7f2jb26eqxsAD7dQhwb6L2O3vs42ftO1IeAB/Z3HzYcxz9U9/0T9BL62PFxTJZf+/vy6b1mhSr2gJ9Z6Zz8ZoVy8psVyslvVignv1mhnPxmhXLymxXq/wC4LRHv7FImFQAAAABJRU5ErkJggg==;" parent="1" vertex="1">
                    <mxGeometry x="80" y="120" width="258" height="251" as="geometry"/>
                </mxCell>
                <mxCell id="4" value="" style="shape=image;verticalLabelPosition=bottom;labelBackgroundColor=#ffffff;verticalAlign=top;aspect=fixed;imageAspect=0;image=data:image/png,iVBORw0KGgoAAAANSUhEUgAAAP8AAAD4CAYAAAAjDTByAAAAOXRFWHRTb2Z0d2FyZQBNYXRwbG90bGliIHZlcnNpb24zLjMuNCwgaHR0cHM6Ly9tYXRwbG90bGliLm9yZy8QVMy6AAAACXBIWXMAAAsTAAALEwEAmpwYAAAPN0lEQVR4nO3dfYxc1X3G8e/Drl/AtozB1HGw6UKEkGjUFmMQCZEb1S01LsKJlD+MmtaESFHU0kKVCjlFaqL+lTRt+holokBDWwusEmisCBJckiiqVNyYrQ02JvFCXbBrYwMVTomQ3379Y66r8XrHnjn33uNZzvORVjsz9549v70zz947d++Zo4jAzMpz3rkuwMzODYffrFAOv1mhHH6zQjn8ZoUazdnZwoULY2xsLGeXZkXZs2cPr7/+uvpZN2v4x8bG2Lp168Dtcv47MqWv885LO4DK+XtJfb0eTpNa47D/bqn1Dftzfd111/W9rg/7zQrl8JsVqlb4Ja2S9CNJE5LWN1WUmbUvOfySRoCvADcDVwO3Sbq6qcLMrF119vzXAxMR8XJEHAEeAdY0U5aZta1O+C8FXu26v7d67BSSPiVpq6Sthw4dqtGdmTWp9RN+EXFfRCyPiOWXXHJJ292ZWZ/qhH8fsLTr/pLqMTObBuqE/4fAlZIulzQTWAtsaqYsM2tb8hV+EXFM0p3Ad4AR4MGI2NlYZWbWqlqX90bEE8ATDdViZhn5Cj+zQmUd2JMq58CNlL5OnDiRrS9I+91yD9BJGQAz7IOBIG+NbfOe36xQDr9ZoRx+s0I5/GaFcvjNCuXwmxXK4TcrlMNvViiH36xQDr9ZoRx+s0I5/GaFmhYDe96tUgcE5ewrdQDM8ePHB26TOhtOyu+W+nulyt1fP7znNyuUw29WKIffrFB1ZuxZKul7kl6QtFPSXU0WZmbtqnPC7xjwmYgYlzQPeFbS5oh4oaHazKxFyXv+iNgfEePV7Z8Au5hixh4zG06NvOeXNAZcA2yZYpmn6zIbQrXDL2ku8A3g7og4PHm5p+syG061wi9pBp3gb4iIx5opycxyqHO2X8ADwK6I+HJzJZlZDnX2/DcCvwn8sqRt1dfqhuoys5bVmavvX4Hhu2DZzPriK/zMCpV9VF/KdEc5R0TlnI4pta+cowFzTnuWMhIwVeoIwtR2Kdp+LXrPb1Yoh9+sUA6/WaEcfrNCOfxmhXL4zQrl8JsVyuE3K5TDb1Yoh9+sUA6/WaEcfrNCTYvpulIGOOQc/JIqtcaUATBHjx5N6it1cMno6OAvrZQ2MJxTYU02jK9H7/nNCuXwmxXK4TcrVBMf3T0i6T8kfauJgswsjyb2/HfRma3HzKaRup/bvwT4deD+Zsoxs1zq7vn/ArgHGL7/Y5jZGdWZtOMW4GBEPHuW9TxXn9kQqjtpx62S9gCP0Jm84x8nr+S5+syGU50puj8bEUsiYgxYC3w3Ij7eWGVm1ir/n9+sUI1c2x8R3we+38TPMrM8vOc3K9S0GNWXIudIryNHjiS1O3bsWFK7d955Z+A2hw8fTuordTvOnj174DZz5sxJ6mvWrFkDt8k9yi7nNF/9Gr6KzCwLh9+sUA6/WaEcfrNCOfxmhXL4zQrl8JsVyuE3K5TDb1Yoh9+sUA6/WaEcfrNCOfxmhXrXjupLlTLaK3U+u5TReQBvvPHGwG0OHDiQ1Nfbb7+d1G7RokUDt1myZElSXyMjIwO3mTFjRlJfqc91yuuq7ZGp3vObFcrhNyuUw29WqLoz9lwo6VFJL0raJekDTRVmZu2qe8LvL4FvR8THJM0ELmigJjPLIDn8kuYDK4DbASLiCJD2YXZmll2dw/7LgUPA31VTdN8v6bRPYPR0XWbDqU74R4FlwFcj4hrgbWD95JU8XZfZcKoT/r3A3ojYUt1/lM4fAzObBurM1XcAeFXSVdVDK4EXGqnKzFpX92z/7wIbqjP9LwOfqF+SmeVQK/wRsQ1Y3kwpZpbTtBjYkzKYIud0TMePH09qlzpdV8p/TbZs2XL2laYwMTGR1G7FihUDt5k/f35SX+eff/7AbVIGA0H6tFsp7VIHEfXLl/eaFcrhNyuUw29WKIffrFAOv1mhHH6zQjn8ZoVy+M0K5fCbFcrhNyuUw29WKIffrFAOv1mhpsWovhSpUx2ljtBLkVpjyjRf4+PjSX1t3Lgxqd211147cJsjR9I+/7Xt0W9NGMYavec3K5TDb1Yoh9+sUHWn6/p9STsl7ZD0sKTZTRVmZu1KDr+kS4HfA5ZHxPuBEWBtU4WZWbvqHvaPAudLGqUzT99/1y/JzHKo87n9+4A/BV4B9gNvRcRTk9fzdF1mw6nOYf8CYA2dOfveC8yR9PHJ63m6LrPhVOew/1eA/4yIQxFxFHgM+GAzZZlZ2+qE/xXgBkkXqHOp2kpgVzNlmVnb6rzn30Jncs5x4PnqZ93XUF1m1rK603V9DvhcQ7WYWUa+ws+sUNNiVF/q6LdcUusbHU3b/BdffPHAbVauXJnU1/LlafOwXnbZZQO3mTVrVlJfKfPgDftrCtqv0Xt+s0I5/GaFcvjNCuXwmxXK4TcrlMNvViiH36xQDr9ZoRx+s0I5/GaFcvjNCuXwmxVqWgzsSZE6PVLKIJHUATozZsxIard48eKB29x4441JfaVMDQYwd+7cgdvMmzcvqa/U7Z8i9XWV0s4De8ysFQ6/WaEcfrNCnTX8kh6UdFDSjq7HLpK0WdLu6vuCdss0s6b1s+f/OrBq0mPrgacj4krg6eq+mU0jZw1/RPwAeHPSw2uAh6rbDwEfabYsM2tb6nv+RRGxv7p9AFjUa0VP12U2nGqf8IvOPzB7/hPT03WZDafU8L8maTFA9f1gcyWZWQ6p4d8ErKturwO+2Uw5ZpZLP//qexj4N+AqSXslfRL4AvCrknbTmbDzC+2WaWZNO+tF0RFxW49FabNAmNlQ8BV+ZoXKPqovZaTSMI6IaqKv1FF9c+bMGbhN6si3EydOJLVL6W/mzJlJfaWMxExpcy7atWn4KjKzLBx+s0I5/GaFcvjNCuXwmxXK4TcrlMNvViiH36xQDr9ZoRx+s0I5/GaFcvjNCpV9YE/KIJ3UKZJS5BxElDrYJqW/kZGRpL5SpdSYc9BM6nOWWmOuAW2D8J7frFAOv1mhHH6zQqVO1/UlSS9Kek7S45IubLVKM2tc6nRdm4H3R8TPAz8GPttwXWbWsqTpuiLiqYg4Vt19BljSQm1m1qIm3vPfATzZa6Gn6zIbTrXCL+le4Biwodc6nq7LbDglX+Qj6XbgFmBl5LwKx8wakRR+SauAe4BfioifNluSmeWQOl3X3wDzgM2Stkn6Wst1mlnDUqfreqCFWswsI1/hZ1ao7KP6UuQcEZUyaiv3+c6cU5GlTteVs8aUEYs560vVdo3e85sVyuE3K5TDb1Yoh9+sUA6/WaEcfrNCOfxmhXL4zQrl8JsVyuE3K5TDb1Yoh9+sUA6/WaGmxai+nFJGUqWOvkodDTjsoxxT26WOIEyRc9un9udRfWbWCoffrFBJ03V1LfuMpJC0sJ3yzKwtqdN1IWkpcBPwSsM1mVkGSdN1Vf6czsd3+zP7zaahpPf8ktYA+yJiex/rerousyE0cPglXQD8IfBH/azv6brMhlPKnv99wOXAdkl76MzQOy7pPU0WZmbtGvgin4h4HviZk/erPwDLI+L1Busys5alTtdlZtNc6nRd3cvHGqvGzLLxFX5mhco+sCfXNEmp/aQMLkntazoMEsnZLnUQ0bt16q22p4Hznt+sUA6/WaEcfrNCOfxmhXL4zQrl8JsVyuE3K5TDb1Yoh9+sUA6/WaEcfrNCOfxmhXL4zQqltkcOndKZdAj4rx6LFwLD8GlAruNUruNUw17Hz0ZEXx+WmTX8ZyJpa0Qsdx2uw3XkqcOH/WaFcvjNCjVM4b/vXBdQcR2nch2netfUMTTv+c0sr2Ha85tZRg6/WaGyhl/SKkk/kjQhaf0Uy2dJ2lgt3yJprIUalkr6nqQXJO2UdNcU63xY0luStlVffc1LmFjPHknPV/1snWK5JP1VtU2ek7Ss4f6v6vo9t0k6LOnuSeu0tj0kPSjpoKQdXY9dJGmzpN3V9wU92q6r1tktaV0LdXxJ0ovVdn9c0oU92p7xOWygjs9L2te1/Vf3aHvGfJ0mIrJ8ASPAS8AVwExgO3D1pHV+G/hadXstsLGFOhYDy6rb84AfT1HHh4FvZdoue4CFZ1i+GngSEHADsKXl5+gAnQtFsmwPYAWwDNjR9difAOur2+uBL07R7iLg5er7gur2gobruAkYrW5/cao6+nkOG6jj88Af9PHcnTFfk79y7vmvByYi4uWIOAI8AqyZtM4a4KHq9qPASjX8oewRsT8ixqvbPwF2AZc22UfD1gB/Hx3PABdKWtxSXyuBlyKi11WYjYuIHwBvTnq4+3XwEPCRKZr+GrA5It6MiP8BNgOrmqwjIp6KiGPV3WfoTErbqh7box/95OsUOcN/KfBq1/29nB66/1+n2uhvARe3VVD1tuIaYMsUiz8gabukJyX9XFs1AAE8JelZSZ+aYnk/260pa4GHeyzLtT0AFkXE/ur2AWDRFOvk3C4Ad9A5ApvK2Z7DJtxZvf14sMfboIG3R7En/CTNBb4B3B0RhyctHqdz6PsLwF8D/9xiKR+KiGXAzcDvSFrRYl89SZoJ3Ar80xSLc26PU0TnmPac/j9a0r3AMWBDj1Xafg6/CrwP+EVgP/BnTfzQnOHfByztur+kemzKdSSNAvOBN5ouRNIMOsHfEBGPTV4eEYcj4n+r208AMyQtbLqO6ufvq74fBB6nc/jWrZ/t1oSbgfGIeG2KGrNtj8prJ9/aVN8PTrFOlu0i6XbgFuA3qj9Ep+njOawlIl6LiOMRcQL42x4/f+DtkTP8PwSulHR5tZdZC2yatM4m4ORZ248B3+21wVNV5xAeAHZFxJd7rPOek+caJF1PZzu18UdojqR5J2/TOcG0Y9Jqm4Dfqs763wC81XVI3KTb6HHIn2t7dOl+HawDvjnFOt8BbpK0oDoMvql6rDGSVgH3ALdGxE97rNPPc1i3ju5zPB/t8fP7ydepmjhDOcCZzNV0zq6/BNxbPfbHdDYuwGw6h50TwL8DV7RQw4foHEY+B2yrvlYDnwY+Xa1zJ7CTzhnTZ4APtrQ9rqj62F71d3KbdNci4CvVNnseWN5CHXPohHl+12NZtgedPzj7gaN03qd+ks55nqeB3cC/ABdV6y4H7u9qe0f1WpkAPtFCHRN03keffJ2c/E/Ue4EnzvQcNlzHP1TP/XN0Ar14ch298nWmL1/ea1aoYk/4mZXO4TcrlMNvViiH36xQDr9ZoRx+s0I5/GaF+j868av+pcbVgQAAAABJRU5ErkJggg==;" parent="1" vertex="1">
                    <mxGeometry x="951" y="120" width="258" height="251" as="geometry"/>
                </mxCell>
                <mxCell id="5" value="" style="shape=image;verticalLabelPosition=bottom;labelBackgroundColor=#ffffff;verticalAlign=top;aspect=fixed;imageAspect=0;image=data:image/png,iVBORw0KGgoAAAANSUhEUgAAAP8AAAD4CAYAAAAjDTByAAAAOXRFWHRTb2Z0d2FyZQBNYXRwbG90bGliIHZlcnNpb24zLjMuNCwgaHR0cHM6Ly9tYXRwbG90bGliLm9yZy8QVMy6AAAACXBIWXMAAAsTAAALEwEAmpwYAAAPwklEQVR4nO3df4xc1XnG8e/D2mtqB4HpugYbZHCEkGjUFrCApJEb1S01FHAqRcioaSFEiqKWFqpUyClSE/WvpGnTn1EiSkhpiyAqgQZF0OCSoKhScQOu+WkSDDVg12C7VJA2wmbh7R9zHY2XHXvmnXuPd3Oej7Ta2Zl797x7Zp6dmTtz5lVEYGb1Oe5YF2Bmx4bDb1Yph9+sUg6/WaUcfrNKLSg52NTUVKxatarkkCM7cOBAsbEWLVpUbCxJqf1KvhpUssbS85EZLzPWCy+8wP79+4carGj4V61axZYtW0beLzMJ2Stp586dI+/z1ltvpcZavXp1ar+JiYmR9yl9Y8/st2BB7uaYmf/sfLz99tup/TLXWWasCy+8cOht/bDfrFIOv1mlxgq/pPWSvidph6RNbRVlZt1Lh1/SBPAF4BLgHOAqSee0VZiZdWuce/4LgB0R8XxEHATuBDa0U5aZdW2c8K8EXur7eVdz3mEkfUzSI5Ie2b9//xjDmVmbOj/gFxE3R8SaiFgzNTXV9XBmNqRxwr8bOL3v59Oa88xsHhgn/N8FzpJ0pqRJYCNwbztlmVnX0u/wi4hpSdcB3wQmgFsj4qnWKjOzTo319t6IuA+4r6VazKwgv8PPrFJFF/aUdNxxuf9rK1asGHmfzKINyNeYWZRSemFPZpHO9PR0aqw33nhj5H0mJydTYy1cuDC1X2aRTtcLuHzPb1Yph9+sUg6/WaUcfrNKOfxmlXL4zSrl8JtVyuE3q5TDb1Yph9+sUg6/WaUcfrNKFV/Yk1ngkFkkku2ik2mhle3ikpVZbJOdj+zio5IttDL7Zf+u7HWd2S9b49C/v9PfbmZzlsNvVimH36xS43TsOV3StyU9LekpSde3WZiZdWucA37TwCciYqukE4BHJW2OiKdbqs3MOpS+54+IPRGxtTn9A2A7s3TsMbO5qZXn/JLOAM4Ftsxymdt1mc1BY4df0ruArwE3RMTrMy93uy6zuWms8EtaSC/4t0fE3e2UZGYljHO0X8CXge0R8fn2SjKzEsa55/954DeAX5S0rfm6tKW6zKxj4/Tq+1cg92ZsMzvm/A4/s0rNi3ZdJVdEZVpGZVs4ZVthdb3aqw2ZlXbZ+ViyZElqv4zsqr5SK1NHmcO5fysys044/GaVcvjNKuXwm1XK4TerlMNvVimH36xSDr9ZpRx+s0o5/GaVcvjNKuXwm1Wq+MKezKKUbBunjMwCjOyClOx+mcUlJRekQG5RSsnrOdu+LFtj5rrOzP0o9fme36xSDr9ZpRx+s0q18dHdE5L+Q9I32ijIzMpo457/enrdesxsHhn3c/tPA34VuKWdcsyslHHv+f8cuBHIvY5kZsfMOE07LgP2RsSjR9nOvfrM5qBxm3ZcIWkncCe95h3/MHMj9+ozm5vGadH9yYg4LSLOADYC34qID7dWmZl1yq/zm1Wqlff2R8RDwENt/C4zK8P3/GaVKr6qL7O6aWJiosg4kFt1mF0hll1pl5Ft8fXmm2+m9svMyfHHH19srOzcZ26LkLs9Zube7brM7KgcfrNKOfxmlXL4zSrl8JtVyuE3q5TDb1Yph9+sUg6/WaUcfrNKOfxmlXL4zSrl8JtVqviqvoxMf7TsSruM6enp1H7Zvm8HDx4ssg/kV78tWbJk5H2y11lmxeLChQtTY2Vl5tG9+sysEw6/WaUcfrNKjdux5yRJd0l6RtJ2Se9tqzAz69a4B/z+AvjniPiQpElgcQs1mVkB6fBLOhFYC1wDEBEHgdwhZTMrbpyH/WcC+4CvNC26b5H0jtd33K7LbG4aJ/wLgPOAL0bEucD/AZtmbuR2XWZz0zjh3wXsiogtzc930ftnYGbzwDi9+l4GXpJ0dnPWOuDpVqoys86Ne7T/d4DbmyP9zwMfGb8kMythrPBHxDZgTTulmFlJxRf2ZBazZBZFlGxPlV2gk20pduDAgZH3eeihh1Jj7dq1K7Xf5ZdfPvI+K1asSI2Vmf/s3JdcfNS1uVeRmRXh8JtVyuE3q5TDb1Yph9+sUg6/WaUcfrNKOfxmlXL4zSrl8JtVyuE3q5TDb1Yph9+sUkVX9UlKrW7KrMDKrrTLtEjKtuvKyqxy3LFjR2qsTZve8clsQzn//PNH3mfZsmWpsSYmJkbeJ7uqL7s6L3N77HoloO/5zSrl8JtVyuE3q9S47bp+T9JTkp6UdIek49sqzMy6lQ6/pJXA7wJrIuI9wASwsa3CzKxb4z7sXwD8hKQF9Pr0/df4JZlZCeN8bv9u4E+AF4E9wGsR8cDM7frbde3bty9fqZm1apyH/UuBDfR69q0Alkj68Mzt+tt1ZV/HNbP2jfOw/5eA/4yIfRHxJnA38L52yjKzro0T/heBiyQtVu/tS+uA7e2UZWZdG+c5/xZ6zTm3Ak80v+vmluoys46N267rU8CnWqrFzAryO/zMKlW8V19mpVKmP1p21VZ2NWBGZgUhwOLFi0fe58orr0yNtXbt2tR+K1euHHmfycnJ1Fgle/Vlbx+Z231m9eYofM9vVimH36xSDr9ZpRx+s0o5/GaVcvjNKuXwm1XK4TerlMNvVimH36xSDr9ZpRx+s0oVX9jT9WKF+SQ7F5kFMKecckpqrOXLl6f2yyxkybTdgtxim+zcZ1toZcZzuy4z64TDb1Yph9+sUkcNv6RbJe2V9GTfeSdL2izp2eb70m7LNLO2DXPP/7fA+hnnbQIejIizgAebn81sHjlq+CPiO8CrM87eANzWnL4N+GC7ZZlZ17LP+ZdHxJ7m9MvAwNeD3K7LbG4a+4Bf9D4JceCnIbpdl9nclA3/K5JOBWi+722vJDMrIRv+e4Grm9NXA19vpxwzK2WYl/ruAP4NOFvSLkkfBT4D/LKkZ+k17PxMt2WaWduO+t7+iLhqwEXrWq7FzAryO/zMKlV8VV9mBdb09PTI+2RbYWXaOM2H1k/ZGrMryzLjlVwxNx9k2tSNwvf8ZpVy+M0q5fCbVcrhN6uUw29WKYffrFIOv1mlHH6zSjn8ZpVy+M0q5fCbVcrhN6tU0YU9EZFarFByIUtGdoFOVsnWT9m/LdN6K7uQJbPfokWLio0FuXl0uy4z64TDb1Yph9+sUtl2XZ+T9IykxyXdI+mkTqs0s9Zl23VtBt4TET8DfB/4ZMt1mVnHUu26IuKBiDj02VoPA6d1UJuZdaiN5/zXAvcPurC/Xdf+/ftbGM7M2jBW+CXdBEwDtw/apr9d19TU1DjDmVmL0m/ykXQNcBmwLkq+o8bMWpEKv6T1wI3AL0TED9stycxKyLbr+mvgBGCzpG2SvtRxnWbWsmy7ri93UIuZFeR3+JlVqni7rozMCrFsC6eSbabmg+zfVmr1JuSus0wLOCi7grPrNmQ/vrdaMzsih9+sUg6/WaUcfrNKOfxmlXL4zSrl8JtVyuE3q5TDb1Yph9+sUg6/WaUcfrNKOfxmlSq6qk9SsVVR2XEy+2VXiGVXsWX2y64QK9mbLiszVvaT50rerrrme36zSjn8ZpVKtevqu+wTkkKSP5PbbJ7JtutC0unAxcCLLddkZgWk2nU1/ozex3f7M/vN5qHUc35JG4DdEfHYENv+qF3Xvn37MsOZWQdGDr+kxcAfAH84zPb97bqWLVs26nBm1pHMPf+7gTOBxyTtpNehd6ukU9oszMy6NfKbfCLiCeCnDv3c/ANYExFuwWs2j2TbdZnZPJdt19V/+RmtVWNmxfgdfmaVmhftujKLUrILNzKLdEou0IHcfGQX9pSsMavkQqfsfBw8eHDkfSYnJ1NjDcv3/GaVcvjNKuXwm1XK4TerlMNvVimH36xSDr9ZpRx+s0o5/GaVcvjNKuXwm1XK4TerlMNvVillV7+lBpP2AS8MuHgKmAufBuQ6Duc6DjfX61gVEUN9WGbR8B+JpEciYo3rcB2uo0wdfthvVimH36xScyn8Nx/rAhqu43Cu43A/NnXMmef8ZlbWXLrnN7OCHH6zShUNv6T1kr4naYekTbNcvkjSV5vLt0g6o4MaTpf0bUlPS3pK0vWzbPMBSa9J2tZ8DdWXMFnPTklPNOM8MsvlkvSXzZw8Lum8lsc/u+/v3CbpdUk3zNims/mQdKukvZKe7DvvZEmbJT3bfF86YN+rm22elXR1B3V8TtIzzbzfI+mkAfse8TpsoY5PS9rdN/+XDtj3iPl6h4go8gVMAM8Bq4FJ4DHgnBnb/Bbwpeb0RuCrHdRxKnBec/oE4Puz1PEB4BuF5mUnMHWEyy8F7gcEXARs6fg6epneG0WKzAewFjgPeLLvvD8GNjWnNwGfnWW/k4Hnm+9Lm9NLW67jYmBBc/qzs9UxzHXYQh2fBn5/iOvuiPma+VXynv8CYEdEPB8RB4E7gQ0zttkA3NacvgtYJ0ltFhEReyJia3P6B8B2YGWbY7RsA/B30fMwcJKkUzsaax3wXEQMehdm6yLiO8CrM87uvx3cBnxwll1/BdgcEa9GxP8Am4H1bdYREQ9ExKFGDg/Ta0rbqQHzMYxh8nWYkuFfCbzU9/Mu3hm6H23TTPprwE92VVDztOJcYMssF79X0mOS7pf0013VAATwgKRHJX1slsuHmbe2bATuGHBZqfkAWB4Re5rTLwPLZ9mm5LwAXEvvEdhsjnYdtuG65unHrQOeBo08H9Ue8JP0LuBrwA0R8fqMi7fSe+j7s8BfAf/UYSnvj4jzgEuA35a0tsOxBpI0CVwB/OMsF5ecj8NE7zHtMX09WtJNwDRw+4BNur4Ovwi8G/g5YA/wp2380pLh3w2c3vfzac15s24jaQFwIvDfbRciaSG94N8eEXfPvDwiXo+I/21O3wcslDTVdh3N79/dfN8L3EPv4Vu/YeatDZcAWyPilVlqLDYfjVcOPbVpvu+dZZsi8yLpGuAy4Nebf0TvMMR1OJaIeCUi3oqIt4G/GfD7R56PkuH/LnCWpDObe5mNwL0ztrkXOHTU9kPAtwZNeFZzDOHLwPaI+PyAbU45dKxB0gX05qmLf0JLJJ1w6DS9A0xPztjsXuA3m6P+FwGv9T0kbtNVDHjIX2o++vTfDq4Gvj7LNt8ELpa0tHkYfHFzXmskrQduBK6IiB8O2GaY63DcOvqP8fzagN8/TL4O18YRyhGOZF5K7+j6c8BNzXl/RG9yAY6n97BzB/DvwOoOang/vYeRjwPbmq9LgY8DH2+2uQ54it4R04eB93U0H6ubMR5rxjs0J/21CPhCM2dPAGs6qGMJvTCf2Hdekfmg9w9nD/AmveepH6V3nOdB4FngX4CTm23XALf07Xttc1vZAXykgzp20Hsefeh2cuiVqBXAfUe6Dluu4++b6/5xeoE+dWYdg/J1pC+/vdesUtUe8DOrncNvVimH36xSDr9ZpRx+s0o5/GaVcvjNKvX/Z88I/n1CASoAAAAASUVORK5CYII=;" parent="1" vertex="1">
                    <mxGeometry x="700" y="120" width="258" height="251" as="geometry"/>
                </mxCell>
                <mxCell id="6" value="&lt;span style=&quot;color: rgb(101, 71, 53); font-family: &amp;quot;droid sans mono&amp;quot;, monospace, monospace, &amp;quot;droid sans fallback&amp;quot;; font-size: 14px;&quot;&gt;587727180596969574&lt;/span&gt;" style="text;html=1;strokeColor=none;fillColor=none;align=center;verticalAlign=middle;whiteSpace=wrap;rounded=0;fontStyle=1" parent="1" vertex="1">
                    <mxGeometry x="150" y="371" width="130" height="20" as="geometry"/>
                </mxCell>
                <mxCell id="7" value="&lt;span style=&quot;color: rgb(101, 71, 53); font-family: &amp;quot;droid sans mono&amp;quot;, monospace, monospace, &amp;quot;droid sans fallback&amp;quot;; font-size: 14px;&quot;&gt;587731187814563977&lt;/span&gt;" style="text;html=1;strokeColor=none;fillColor=none;align=center;verticalAlign=middle;whiteSpace=wrap;rounded=0;fontStyle=1" parent="1" vertex="1">
                    <mxGeometry x="400" y="371" width="130" height="20" as="geometry"/>
                </mxCell>
                <mxCell id="8" value="&lt;span style=&quot;color: rgb(101, 71, 53); font-family: &amp;quot;droid sans mono&amp;quot;, monospace, monospace, &amp;quot;droid sans fallback&amp;quot;; font-size: 14px;&quot;&gt;587727220876705819&lt;/span&gt;" style="text;html=1;strokeColor=none;fillColor=none;align=center;verticalAlign=middle;whiteSpace=wrap;rounded=0;fontStyle=1" parent="1" vertex="1">
                    <mxGeometry x="770" y="371" width="130" height="20" as="geometry"/>
                </mxCell>
                <mxCell id="9" value="&lt;span style=&quot;color: rgb(101, 71, 53); font-family: &amp;quot;droid sans mono&amp;quot;, monospace, monospace, &amp;quot;droid sans fallback&amp;quot;; font-size: 14px;&quot;&gt;587731187277758607&lt;/span&gt;" style="text;html=1;strokeColor=none;fillColor=none;align=center;verticalAlign=middle;whiteSpace=wrap;rounded=0;fontStyle=1" parent="1" vertex="1">
                    <mxGeometry x="1027" y="371" width="130" height="20" as="geometry"/>
                </mxCell>
                <mxCell id="10" value="&lt;font style=&quot;font-size: 40px&quot;&gt;Spiral&lt;/font&gt;" style="text;html=1;strokeColor=none;fillColor=none;align=center;verticalAlign=middle;whiteSpace=wrap;rounded=0;" parent="1" vertex="1">
                    <mxGeometry x="270" y="80" width="130" height="20" as="geometry"/>
                </mxCell>
                <mxCell id="11" value="&lt;font style=&quot;font-size: 40px&quot;&gt;Ellitptical&lt;/font&gt;" style="text;html=1;strokeColor=none;fillColor=none;align=center;verticalAlign=middle;whiteSpace=wrap;rounded=0;" parent="1" vertex="1">
                    <mxGeometry x="897" y="80" width="130" height="20" as="geometry"/>
                </mxCell>
                <mxCell id="12" value="" style="shape=singleArrow;direction=south;whiteSpace=wrap;html=1;fillColor=#000000;arrowWidth=0.5095238095238106;arrowSize=0.5222222222222217;" parent="1" vertex="1">
                    <mxGeometry x="630" y="470" width="70" height="75" as="geometry"/>
                </mxCell>
                <mxCell id="13" value="&lt;font style=&quot;font-size: 40px&quot;&gt;expansion&lt;/font&gt;" style="text;html=1;strokeColor=none;fillColor=none;align=center;verticalAlign=middle;whiteSpace=wrap;rounded=0;" parent="1" vertex="1">
                    <mxGeometry x="750" y="488" width="130" height="20" as="geometry"/>
                </mxCell>
                <mxCell id="38" value="" style="shape=image;verticalLabelPosition=bottom;labelBackgroundColor=#ffffff;verticalAlign=top;aspect=fixed;imageAspect=0;image=data:image/png,iVBORw0KGgoAAAANSUhEUgAAAPsAAAD7CAYAAACscuKmAAAAOXRFWHRTb2Z0d2FyZQBNYXRwbG90bGliIHZlcnNpb24zLjMuNCwgaHR0cHM6Ly9tYXRwbG90bGliLm9yZy8QVMy6AAAACXBIWXMAAAsTAAALEwEAmpwYAAAQlklEQVR4nO3dX4xc5XnH8e+P9V9sg+21axkW2VSYABe1iVYEBIoIfyKXRIELhKBR5VaWfEMrokYK0EpVIxUp3EC4qCKZQuMLGqAk1BaKkrgOqKpUGZZiiMEBHAqyLcPCYgQYY3vtpxdzXC2rXe/MM2fOOHl/H8nambPz+n12Z357Zs+e57yKCMzsD99Z/S7AzJrhsJsVwmE3K4TDblYIh92sEA67WSG6Cruk9ZJel7RX0j11FWVm9VP27+ySBoA3gBuB/cALwB0R8Vp95ZlZXWZ1MfYKYG9EvAUg6XHgZmDasC9btixWrVrVxZTt+304WShb4x/q13by5MnUXEeOHOl4jKTUXHPnzk2Ny8w3MDDQ8Zh9+/YxNjY25WTdhP18YN+E+/uBr5xuwKpVq9i5c2fHE2VeOMeOHet4THaubPhOnDiRGpcNRUb2azt+/HjHYw4fPpya65VXXul4zKxZuZf+xRdfnBqXme/cc8/teMwNN9ww7ed6foBO0iZJI5JGPvjgg15PZ2bT6CbsB4ALJtwfqrZ9QURsjojhiBhetmxZF9OZWTe6CfsLwBpJF0qaA9wObKunLDOrW/p39ogYl/RXwC+BAeDRiHi1tsrMrFbdHKAjIn4O/LymWsysh3wGnVkhHHazQjjsZoVw2M0K4bCbFcJhNyuEw25WiK7+zp6RaawYHx/veEy2WSQzLtvQkh3XpGyNmUak7FyZhpFs11u2wSrTLZd53Z8uX96zmxXCYTcrhMNuVgiH3awQDrtZIRx2s0I47GaFcNjNCuGwmxXCYTcrhMNuVgiH3awQjTfCZJodmlzuKDNXtoEj24yRWW0l2xiUacaA3JJMn3zySWquRYsWdTwmuyLMnDlzUuMy6l75x3t2s0I47GaFcNjNCuGwmxVixrBLelTSqKTdE7YtlbRd0pvVxyW9LdPMutXOnv3HwPpJ2+4BdkTEGmBHdd/MzmAzhj0i/hP4cNLmm4Et1e0twC31lmVmdcv+zr4iIg5Wt98FVtRUj5n1SNcH6KJ1Fsq0Z6JI2iRpRNLI+++/3+10ZpaUDft7klYCVB9Hp3tgRGyOiOGIGF6+fHlyOjPrVjbs24AN1e0NwNZ6yjGzXmnnT28/Af4b+JKk/ZI2Aj8AbpT0JnBDdd/MzmAzdgNExB3TfOr6mmsxsx5qtOstIhrrYMt2azW51NTRo0dT4zI1Hj58ODVX9vnK1Dh79uzUXPPmzet4zMDAQGqu7HPdVKfi6cb4dFmzQjjsZoVw2M0K4bCbFcJhNyuEw25WCIfdrBAOu1khHHazQjjsZoVw2M0K4bCbFaLx5Z8yjRWZpopsI0ym+SC7/FOmOQLgww8nXxJwZtlGmKVLl6bGzZ8/v+Mx2eaUs87qfJ+VXXorq8klzKbjPbtZIRx2s0I47GaFcNjNCuGwmxXCYTcrhMNuVgiH3awQDrtZIRx2s0I47GaFaGf5pwskPSvpNUmvSrqr2r5U0nZJb1Yfl/S+XDPLamfPPg58NyIuA64E7pR0GXAPsCMi1gA7qvtmdoZqZ623g8DB6vYnkvYA5wM3A9dWD9sCPAfcPcP/lepGy3SHHTt2rOMx2bmyyxZla/z88887HpNZIgnynXkZ2U60TLdcplMOmu2Wyy41NZ2OvmJJq4HLgZ3AiuoHAcC7wIpaKzOzWrUddkkLgZ8C34mIjyd+LlrNulM27EraJGlE0sjY2FhXxZpZXlthlzSbVtAfi4ifVZvfk7Sy+vxKYHSqsRGxOSKGI2J4cHCwjprNLKGdo/ECHgH2RMQDEz61DdhQ3d4AbK2/PDOrSzuXpboa+HPgN5J2Vdv+FvgB8KSkjcA7wG09qdDMatHO0fj/AqY7BHl9veWYWa/4DDqzQjjsZoVw2M0K4bCbFcJhNyuEw25WCIfdrBCNrvUWEY11sB09erTjMZDr8sp2hn388cczP6gm2e/HoUOHUuMyXWWLFy9OzbVgwYKOx2TWooP8mm2Zbrns2nfT8Z7drBAOu1khHHazQjjsZoVw2M0K4bCbFcJhNyuEw25WCIfdrBAOu1khHHazQjjsZoVotBEm68SJEx2PyS6dk5krsxwT5GvMNLW88cYbqbn27NmTGnfppZd2PGbFityiQkNDQx2POfvss1NzNbn806xZncfzdPV5z25WCIfdrBAOu1khHHazQrSz1ts8Sc9LelnSq5K+X22/UNJOSXslPSFpTu/LNbOsdvbsR4HrImItsA5YL+lK4H7gwYi4CDgEbOxZlWbWtRnDHi2fVndnV/8CuA54qtq+BbilFwWaWT3aXZ99oFrBdRTYDvwO+CgixquH7AfO70mFZlaLtsIeESciYh0wBFwBXNLuBJI2SRqRNDI2Npar0sy61tHR+Ij4CHgWuApYLOnUKT5DwIFpxmyOiOGIGB4cHOymVjPrQjtH45dLWlzdng/cCOyhFfpbq4dtALb2qEYzq0E7J9+uBLZIGqD1w+HJiHhG0mvA45L+EXgJeKSHdZpZl2YMe0S8Alw+xfa3aP3+bma/Bxrvest0lWVklh8CmD17dsdjMt1JAJ999llq3KeffjrzgybZtWtXaq6HH344Ne6+++7reMyyZctSc2WW38p2r2WXf8q8HjPLP7nrzcwcdrNSOOxmhXDYzQrhsJsVwmE3K4TDblYIh92sEA67WSEcdrNCOOxmhXDYzQrhsJsVovGut0y3UWbMnDm5K1tnupqya7Y1WeO6detScz3wwAOpcStXrux4zNy5c1NzZboOs92XmU40yNWYeX24683MHHazUjjsZoVw2M0K4bCbFcJhNyuEw25WCIfdrBAOu1khHHazQrQd9mrZ5pckPVPdv1DSTkl7JT0hKXfup5k1opM9+120FnQ85X7gwYi4CDgEbKyzMDOrV1tn50saAr4B3Af8jVpn218H/Fn1kC3APwA/Ot3/ExGNLf+UXaYnuyxQxoIFC1LjzjvvvI7HnHPOOam5sk0+mXHZZbQyS3YdOXIkNdfChQtT4zJfW6Yx6HTLTLW7Z/8h8D3g1DM4CHwUEePV/f3A+R1XZmaNaWd99m8CoxHxYmYCSZskjUgaGRsby/wXZlaDdt5bXA18S9JNwDzgHOAhYLGkWdXefQg4MNXgiNgMbAZYu3Zt7r21mXVtxj17RNwbEUMRsRq4Hfh1RHwbeBa4tXrYBmBrz6o0s65183f2u2kdrNtL63f4R+opycx6oaNDhBHxHPBcdfst4Ir6SzKzXvAZdGaFcNjNCuGwmxXCYTcrhMNuVgiH3awQDrtZIRpd/knSabtypnP8+PGOx2S76zJdb9nOsGyXV6ZbLrvU1OHDh1PjMs/ZokWLUnNlut6yX9fg4GBq3Pz58zse4+WfzCzFYTcrhMNuVgiH3awQDrtZIRx2s0I47GaFcNjNCuGwmxXCYTcrhMNuVgiH3awQjTbCQK7RpMklmTLLRmXryzbQZGSaRQAGBgZqrmR62UaYzPc/O9e8efNS4zJNLXV/771nNyuEw25WCIfdrBAOu1kh2l2f/W3gE+AEMB4Rw5KWAk8Aq4G3gdsi4lBvyjSzbnWyZ/9aRKyLiOHq/j3AjohYA+yo7pvZGaqbt/E3A1uq21uAW7quxsx6pt2wB/ArSS9K2lRtWxERB6vb7wIraq/OzGrT7kk110TEAUl/BGyX9NuJn4yIkDTl2SjVD4dNAENDQ10Va2Z5be3ZI+JA9XEUeJrWUs3vSVoJUH0cnWbs5ogYjojh7GV4zax7M4Zd0gJJi07dBr4O7Aa2ARuqh20AtvaqSDPrXjtv41cAT1fnH88C/jUifiHpBeBJSRuBd4DbelemmXVrxrBHxFvA2im2jwHX96IoM6tf48s/ZbqvMl1N2eWfMp1o2bnGx8dT4zJLaGXGACxZsiQ1bu7cuR2PyS6HlZFZjqmbcXUv5ZQZ49NlzQrhsJsVwmE3K4TDblYIh92sEA67WSEcdrNCOOxmhXDYzQrhsJsVwmE3K4TDblYIh92sEI13vTW1dlhmzTaA48ePNzIG8l1eTXVQdTMu02WXfW1kvo/Z7rXsc5b5ftS9xqH37GaFcNjNCuGwmxXCYTcrhMNuVgiH3awQDrtZIRx2s0I47GaFcNjNCtFW2CUtlvSUpN9K2iPpKklLJW2X9Gb1MbeagJk1ot09+0PALyLiElpLQe0B7gF2RMQaYEd138zOUDOe1S/pXOCrwF8ARMQx4Jikm4Frq4dtAZ4D7j7d/3Xy5Ml000injhw5khqXaT5YuHBhaq6sTJNPZlkryDd+ZJpaso0wmSXFMmMgv4xW3U0tGe1UfiHwPvAvkl6S9M/V0s0rIuJg9Zh3aa32amZnqHbCPgv4MvCjiLgcOMykt+zR2tVMubuRtEnSiKSRsbGxbus1s6R2wr4f2B8RO6v7T9EK/3uSVgJUH0enGhwRmyNiOCKGBwcH66jZzBJmDHtEvAvsk/SlatP1wGvANmBDtW0DsLUnFZpZLdo9+vLXwGOS5gBvAX9J6wfFk5I2Au8At/WmRDOrQ1thj4hdwPAUn7q+1mrMrGd8Bp1ZIRx2s0I47GaFcNjNCuGwmxXCYTcrhMNuVghll0lKTSa9T+sEnGXAB41NPLUzoQZwHZO5ji/qtI5VEbF8qk80Gvb/n1QaiYipTtIpqgbX4TqarMNv480K4bCbFaJfYd/cp3knOhNqANcxmev4otrq6Mvv7GbWPL+NNytEo2GXtF7S65L2SmrsarSSHpU0Kmn3hG2NXwpb0gWSnpX0mqRXJd3Vj1okzZP0vKSXqzq+X22/UNLO6vl5orp+Qc9JGqiub/hMv+qQ9Lak30jaJWmk2taP10jPLtveWNglDQD/BPwpcBlwh6TLGpr+x8D6Sdv6cSnsceC7EXEZcCVwZ/U9aLqWo8B1EbEWWAesl3QlcD/wYERcBBwCNva4jlPuonV58lP6VcfXImLdhD919eM10rvLtkdEI/+Aq4BfTrh/L3Bvg/OvBnZPuP86sLK6vRJ4valaJtSwFbixn7UAZwP/A3yF1skbs6Z6vno4/1D1Ar4OeAZQn+p4G1g2aVujzwtwLvC/VMfS6q6jybfx5wP7JtzfX23rl75eClvSauByYGc/aqneOu+idaHQ7cDvgI8iYrx6SFPPzw+B7wGnLmw/2Kc6AviVpBclbaq2Nf289PSy7T5Ax+kvhd0LkhYCPwW+ExEf96OWiDgREeto7VmvAC7p9ZyTSfomMBoRLzY99xSuiYgv0/o1805JX534yYael64u2z6TJsN+ALhgwv2halu/tHUp7LpJmk0r6I9FxM/6WQtARHwEPEvr7fJiSaeuS9jE83M18C1JbwOP03or/1Af6iAiDlQfR4Gnaf0AbPp56eqy7TNpMuwvAGuqI61zgNtpXY66Xxq/FLZaawA9AuyJiAf6VYuk5ZIWV7fn0zpusIdW6G9tqo6IuDcihiJiNa3Xw68j4ttN1yFpgaRFp24DXwd20/DzEr2+bHuvD3xMOtBwE/AGrd8P/67BeX8CHASO0/rpuZHW74Y7gDeB/wCWNlDHNbTegr0C7Kr+3dR0LcCfAC9VdewG/r7a/sfA88Be4N+AuQ0+R9cCz/Sjjmq+l6t/r556bfbpNbIOGKmem38HltRVh8+gMyuED9CZFcJhNyuEw25WCIfdrBAOu1khHHazQjjsZoVw2M0K8X9yTa6d2vP2KgAAAABJRU5ErkJggg==;" parent="1" vertex="1">
                    <mxGeometry x="331" y="620" width="258" height="258" as="geometry"/>
                </mxCell>
                <mxCell id="39" value="" style="shape=image;verticalLabelPosition=bottom;labelBackgroundColor=#ffffff;verticalAlign=top;aspect=fixed;imageAspect=0;image=data:image/png,iVBORw0KGgoAAAANSUhEUgAAAPsAAAD7CAYAAACscuKmAAAAOXRFWHRTb2Z0d2FyZQBNYXRwbG90bGliIHZlcnNpb24zLjMuNCwgaHR0cHM6Ly9tYXRwbG90bGliLm9yZy8QVMy6AAAACXBIWXMAAAsTAAALEwEAmpwYAAAQ1UlEQVR4nO3dX4xc5XnH8e/P9mIbY9nAbo1lG9uVTRBCYKIVAYEiAiVy0yhwgRAUVW5l5BtaETVSgFaqGqmVwk0IElUkq9D4ggZTEmqEoiSuA6oqKsNSIAEcgkMN2DLYBv+rsY3XfnoxZ6vFWu/OeWbmjOn7+0jWzpyd1++zM/PbMzN7nvMqIjCz//+m9bsAM2uGw25WCIfdrBAOu1khHHazQjjsZoXoKOySVkt6S9J2Sfd3qygz6z5l/84uaTrwW+BmYCfwEnBnRLzZvfLMrFtmdDD2amB7RLwDIOkJ4BbgjGEfHByMpUuX1p7o1KlTtcdIqj0mO+7zcGBS9v5o8mfL1pjR9GPW1PPqvffeY9++fRNO1knYFwHvj7u+E/jSZAOWLl3KCy+8UHui48eP1x4zMDBQewzAtGn139mcPHkyNVf2CZepMXt/fPrpp6lxGZmfKzsu+5hldjwAM2bUj1pmruuuu+6M3+v5B3SS1kkakTSyd+/eXk9nZmfQSdh3AUvGXV9cbfuMiFgfEcMRMTw0NNTBdGbWiU7C/hKwUtJySecAdwDPdKcsM+u29Hv2iBiV9OfAz4HpwGMR8UbXKjOzrurkAzoi4qfAT7tUi5n1kI+gMyuEw25WCIfdrBAOu1khHHazQjjsZoVw2M0K0dHf2TMyTQtz586tPebIkSO1x0C+GSMj0xwBuQ6qbENLtmEk03hz4sSJ1FznnHNOalxGk8+PzOM82Rjv2c0K4bCbFcJhNyuEw25WCIfdrBAOu1khHHazQjjsZoVw2M0K4bCbFcJhNyuEw25WiMYbYbKNFXU1udxRtqEls9INwPTp02uPyTZwjI6OpsbNnDkzNa4p2edH9v7I3P/dbrrxnt2sEA67WSEcdrNCOOxmhZgy7JIek7RH0uvjtl0gabOkt6uv5/e2TDPrVDt79h8Cq0/bdj+wJSJWAluq62Z2Fpsy7BHx78DHp22+BdhQXd4A3Nrdssys27Lv2RdExO7q8gfAgi7VY2Y90vEHdNE6CuWMR6JIWidpRNLI3r17O53OzJKyYf9Q0kKA6uueM90wItZHxHBEDA8NDSWnM7NOZcP+DLCmurwG2NSdcsysV9r509uPgP8EviBpp6S1wHeBmyW9DfxBdd3MzmJTdnBExJ1n+NZNXa7FzHqo8a63jGynUUam0yi7tNLRo0dT45pc7iizjBPk7pNMxyHkOimzP1em4xByHY7dfpx9uKxZIRx2s0I47GaFcNjNCuGwmxXCYTcrhMNuVgiH3awQDrtZIRx2s0I47GaFcNjNCtF4I0ym0eTUqVO1x2QbFjINHNklrQ4ePJgat3///tpj5s6dm5pr0aJFqXGzZs2qPSbbGJR5fmQfs+yyVpnn44kTJ2qPmayZyHt2s0I47GaFcNjNCuGwmxXCYTcrhMNuVgiH3awQDrtZIRx2s0I47GaFcNjNCtHO8k9LJD0n6U1Jb0i6t9p+gaTNkt6uvp7f+3LNLKudPfso8K2IuAy4BrhH0mXA/cCWiFgJbKmum9lZqp213nYDu6vLhyVtAxYBtwA3VDfbADwP3DfV/yepdpGZDqXsUkKZcdm5Dh06lBr32muv1R5z0UUXpebKLkGU6djKzpXpRMt0ynUybsaM+g2mmftwMrXes0taBlwFbAUWVL8IAD4AFnS1MjPrqrbDLuk84MfANyPiM7ukaO3aJty9SVonaUTSyL59+zoq1szy2gq7pAFaQX88In5Sbf5Q0sLq+wuBPRONjYj1ETEcEcODg4PdqNnMEtr5NF7Ao8C2iPjeuG89A6ypLq8BNnW/PDPrlnY+NbgO+BPg15Jerbb9FfBd4ElJa4F3gdt7UqGZdUU7n8b/B3Cmj9Bv6m45ZtYrPoLOrBAOu1khHHazQjjsZoVw2M0K4bCbFcJhNytEo2u9SUqt9ZbpGMqs2Qa5DqrsXPPmzUuNy3RD7dixIzVX5r4HuPzyy2uPyXa9HTt2rPaY7Jptma5NyHVuZtcrPBPv2c0K4bCbFcJhNyuEw25WCIfdrBAOu1khHHazQjjsZoVw2M0K4bCbFcJhNyuEw25WiEYbYUZHRzl48GDtceedd17tMQMDA7XHZGWbRebMmZMaN3/+/NpjHnnkkdRcF198cWrc3XffXXvMFVdckZpr9uzZtceMjo6m5srKNLVkxkzWqOM9u1khHHazQjjsZoVw2M0K0c5ab7MkvSjpNUlvSPpOtX25pK2StkvaKCl3mhEza0Q7e/bjwI0RcSWwClgt6RrgQeChiFgB7AfW9qxKM+vYlGGPlv+prg5U/wK4EXiq2r4BuLUXBZpZd7S7Pvv0agXXPcBm4HfAgYgY+2PlTmBRTyo0s65oK+wRcTIiVgGLgauBS9udQNI6SSOSRj766KNclWbWsVqfxkfEAeA54FpgvqSxQ8cWA7vOMGZ9RAxHxPCFF17YSa1m1oF2Po0fkjS/ujwbuBnYRiv0t1U3WwNs6lGNZtYF7RzUvRDYIGk6rV8OT0bEs5LeBJ6Q9HfAK8CjPazTzDo0Zdgj4lfAVRNsf4fW+3cz+xxotOsNICJqj8ksr5TtRDt16lTtMZmlfSDXrQWwbNmy2mOySwlt3LgxNW7VqlW1xyxfvjw1V6YrMvv8yCy9Bbn7P7MclrvezMxhNyuFw25WCIfdrBAOu1khHHazQjjsZoVw2M0K4bCbFcJhNyuEw25WCIfdrBAOu1khGu16mzZtGrNmzUqNa0qm0+jYsWOpubLdcosW1T/d31133ZWaa+7cualxme6wjz/+ODXXggULao/JrvWW7R7M+OSTT2qPmaxr03t2s0I47GaFcNjNCuGwmxXCYTcrhMNuVgiH3awQDrtZIRx2s0I47GaFaDvs1bLNr0h6trq+XNJWSdslbZRU/zhTM2tMnT37vbQWdBzzIPBQRKwA9gNru1mYmXVXW40wkhYDfwT8PfCXaq0xcyPwx9VNNgB/C/xgiv+HmTNn1i4y0zCSWcYJcs0Hky25M5k5c+akxmWW0Lr00ktTc2XuDyDV8HTo0KHUXIcPH6495txzz03Nlfm5ILeEWaZZZ7LnRrt79u8D3wbGEnQhcCAixqrZCdRvxTKzxrSzPvvXgT0R8XJmAknrJI1IGtm3b1/mvzCzLmhnz34d8A1JO4AnaL18fxiYL2nsbcBiYNdEgyNifUQMR8Tw4OBgF0o2s4wpwx4RD0TE4ohYBtwB/DIi7gKeA26rbrYG2NSzKs2sY538nf0+Wh/Wbaf1Hv7R7pRkZr1Q67RUEfE88Hx1+R3g6u6XZGa94CPozArhsJsVwmE3K4TDblYIh92sEA67WSEcdrNCNLr8k6TUUk6ZDrYZM3I/WmZctsMuu5RQZomqSy65pLG5AA4cOFB7TLYTLfOcynYcZpfsGhgYaGTMZPeF9+xmhXDYzQrhsJsVwmE3K4TDblYIh92sEA67WSEcdrNCOOxmhXDYzQrhsJsVwmE3K0SjjTARkVoGJ9Mwklk6B3JNFZnlmCDfVJFp1pk/f35qrhUrVqTGZRphmmwoOnLkSGqu2bNnp8ZlniOZ+6Mbyz+Z2eecw25WCIfdrBAOu1kh2l2ffQdwGDgJjEbEsKQLgI3AMmAHcHtE7O9NmWbWqTp79q9ExKqIGK6u3w9siYiVwJbqupmdpTp5GX8LsKG6vAG4teNqzKxn2g17AL+Q9LKkddW2BRGxu7r8AbCg69WZWde0e3TG9RGxS9LvAZsl/Wb8NyMiJE341/zql8M6gCVLlnRUrJnltbVnj4hd1dc9wNO0lmr+UNJCgOrrnjOMXR8RwxExPDQ01J2qzay2KcMuaY6kuWOXga8CrwPPAGuqm60BNvWqSDPrXDsv4xcAT0sau/0/R8TPJL0EPClpLfAucHvvyjSzTk0Z9oh4B7hygu0fATf1oigz675Gu96gtQRUXSdOnGhkHsh1y2WXSMp2vWW6vLKdedkur4xsjbNmzao9Jvv8OHr0aGrczJkza4/JdDdO9nP5cFmzQjjsZoVw2M0K4bCbFcJhNyuEw25WCIfdrBAOu1khHHazQjjsZoVw2M0K4bCbFcJhNytEo11vkrreydNtTa71lrkvAI4dO1Z7TKZTDvL3/bx582qPydz3kOuKzN4f2Rozj3Xm5/Jab2bmsJuVwmE3K4TDblYIh92sEA67WSEcdrNCOOxmhXDYzQrhsJsVoq2wS5ov6SlJv5G0TdK1ki6QtFnS29XX83tdrJnltbtnfxj4WURcSmspqG3A/cCWiFgJbKmum9lZasqj8yXNA74M/ClARHwKfCrpFuCG6mYbgOeB+yb7vyIiteRRtmkh49SpU43Ndfz48dS4zP2RbWjJjss0fhw+fDg1V2aJqoGBgdRc2edHZlzmvu90+aflwF7gnyS9Iukfq6WbF0TE7uo2H9Ba7dXMzlLthH0G8EXgBxFxFXCE016yR6uvbsLeOknrJI1IGtm3b1+n9ZpZUjth3wnsjIit1fWnaIX/Q0kLAaqveyYaHBHrI2I4IoYHBwe7UbOZJUwZ9oj4AHhf0heqTTcBbwLPAGuqbWuATT2p0My6ot1PUf4CeFzSOcA7wJ/R+kXxpKS1wLvA7b0p0cy6oa2wR8SrwPAE37qpq9WYWc/4CDqzQjjsZoVw2M0K4bCbFcJhNyuEw25WCIfdrBDKLl2UmkzaS+sAnEGg3wfKnw01gOs4nev4rLp1LI2IoYm+0WjY/29SaSQiJjpIp6gaXIfraLIOv4w3K4TDblaIfoV9fZ/mHe9sqAFcx+lcx2d1rY6+vGc3s+b5ZbxZIRoNu6TVkt6StF1SY2ejlfSYpD2SXh+3rfFTYUtaIuk5SW9KekPSvf2oRdIsSS9Keq2q4zvV9uWStlaPz8bq/AU9J2l6dX7DZ/tVh6Qdkn4t6VVJI9W2fjxHenba9sbCLmk68A/AHwKXAXdKuqyh6X8IrD5tWz9OhT0KfCsiLgOuAe6p7oOmazkO3BgRVwKrgNWSrgEeBB6KiBXAfmBtj+sYcy+t05OP6VcdX4mIVeP+1NWP50jvTtseEY38A64Ffj7u+gPAAw3Ovwx4fdz1t4CF1eWFwFtN1TKuhk3Azf2sBTgX+C/gS7QO3pgx0ePVw/kXV0/gG4FnAfWpjh3A4GnbGn1cgHnAf1N9ltbtOpp8Gb8IeH/c9Z3Vtn7p66mwJS0DrgK29qOW6qXzq7ROFLoZ+B1wICJGq5s09fh8H/g2MHZi9Qv7VEcAv5D0sqR11bamH5eenrbdH9Ax+amwe0HSecCPgW9GxKF+1BIRJyNiFa0969XApb2e83SSvg7siYiXm557AtdHxBdpvc28R9KXx3+zocelo9O2T6XJsO8Cloy7vrja1i9tnQq72yQN0Ar64xHxk37WAhARB4DnaL1cni9p7LyETTw+1wHfkLQDeILWS/mH+1AHEbGr+roHeJrWL8CmH5eOTts+lSbD/hKwsvqk9RzgDlqno+6Xxk+FrdbaPI8C2yLie/2qRdKQpPnV5dm0PjfYRiv0tzVVR0Q8EBGLI2IZrefDLyPirqbrkDRH0tyxy8BXgddp+HGJXp+2vdcffJz2QcPXgN/Sen/41w3O+yNgN3CC1m/PtbTeG24B3gb+DbiggTqup/US7FfAq9W/rzVdC3AF8EpVx+vA31Tbfx94EdgO/Asws8HH6Abg2X7UUc33WvXvjbHnZp+eI6uAkeqx+Vfg/G7V4SPozArhD+jMCuGwmxXCYTcrhMNuVgiH3awQDrtZIRx2s0I47GaF+F8EDJCGoJZzjQAAAABJRU5ErkJggg==;" parent="1" vertex="1">
                    <mxGeometry x="80" y="620" width="258" height="258" as="geometry"/>
                </mxCell>
                <mxCell id="40" value="" style="shape=image;verticalLabelPosition=bottom;labelBackgroundColor=#ffffff;verticalAlign=top;aspect=fixed;imageAspect=0;image=data:image/png,iVBORw0KGgoAAAANSUhEUgAAAPsAAAD7CAYAAACscuKmAAAAOXRFWHRTb2Z0d2FyZQBNYXRwbG90bGliIHZlcnNpb24zLjMuNCwgaHR0cHM6Ly9tYXRwbG90bGliLm9yZy8QVMy6AAAACXBIWXMAAAsTAAALEwEAmpwYAAAPhElEQVR4nO3dX4xc5X3G8e/D+m9ty8b2dLXy4q4rrCBfFBMGAjKyiF0iN41iLhCCRNW2suQbWhE1UjCtVDVSK4WbEC6qSFah8QUNpiTUlhUlcTdGVaXIsIBJ/CfEG9cIWza7UCxSJGJs/3oxZ6vF2vXOvHPOmTXv85GsnXN2Xr+/3Zln/u35nVcRgZl9+t3Q6wLMrB4Ou1kmHHazTDjsZplw2M0y4bCbZaKrsEvaJulNSWOSdpVVlJmVT6l/Z5fUB/wauA84A7wCPBwRx8srz8zKMq+LsXcCYxFxCkDSc8B2YMawr169OoaGhrqY0syu5fTp07z77rua7nvdhH0N8PaU7TPA5641YGhoiNHR0Y4nqvMov5S5brgh7d1QnT+XNO3tP6vUGuf6z5Za31y/re+4444Zv1f5B3SSdkoalTQ6MTFR9XRmNoNuwn4WuGnK9mCx7xMiYndENCOi2Wg0upjOzLrRTdhfAdZLWidpAfAQsL+cssysbMnv2SPikqS/BH4C9AHPRMSx0iozs1J18wEdEfEj4Ecl1WJmFfIRdGaZcNjNMuGwm2XCYTfLhMNulgmH3SwTDrtZJrr6O3td6mx0SJnrypUrtc0FaT9b3Q0tKQ0jc715BuqtsWx+ZjfLhMNulgmH3SwTDrtZJhx2s0w47GaZcNjNMuGwm2XCYTfLhMNulgmH3SwTDrtZJq6LRphPq9QGmjrnSm0YuXz5csdjUldbSfnZUn+uVHXPNx0/s5tlwmE3y4TDbpYJh90sE7OGXdIzksYlHZ2yb6Wkg5JOFl9vrLZMM+tWO8/s3wO2XbVvFzASEeuBkWLbzOawWcMeEf8J/M9Vu7cDe4rLe4D7yy3LzMqW+p69PyLOFZfPA/0l1WNmFen6A7ponW5zxlNuStopaVTS6MTERLfTmVmi1LC/I2kAoPg6PtMVI2J3RDQjotloNBKnM7NupYZ9PzBcXB4G9pVTjplVpZ0/vX0f+DnwGUlnJO0AvgXcJ+kk8MfFtpnNYbM2wkTEwzN8a2vJtZhZhWrvektZPqfOjqE6l/dJnavObrk6l9FK6ZRLldphlzouRdn3RR8ua5YJh90sEw67WSYcdrNMOOxmmXDYzTLhsJtlwmE3y4TDbpYJh90sEw67WSYcdrNMXBfLP6U0BNTZLJIqtcaUhpGPP/44aa7UZox58zq/a6WMgbmxtNJs5sL90c/sZplw2M0y4bCbZcJhN8uEw26WCYfdLBMOu1kmHHazTDjsZplw2M0y4bCbZaKd5Z9uknRI0nFJxyQ9WuxfKemgpJPF1xurL9fMUrXzzH4J+HpEbADuAh6RtAHYBYxExHpgpNg2szmqnbXezgHnisu/lXQCWANsB+4trrYHeAl4rJIqE9TZCXXx4sWkcZcuXUoa99FHH3U85oMPPkiaK/X3uGjRoo7HLFmyJGmuhQsXdjym7i60OpeNmrGGTq4saQi4DTgM9BcPBADngf5ySzOzMrUddklLgR8AX4uITzxNRKvpedrGZ0k7JY1KGp2YmOiqWDNL11bYJc2nFfRnI+KHxe53JA0U3x8AxqcbGxG7I6IZEc1Go1FGzWaWoJ1P4wU8DZyIiG9P+dZ+YLi4PAzsK788MytLO+cB2gT8GfBLSUeKfX8DfAt4XtIO4C3gwUoqNLNStPNp/H8BM30ku7XccsysKr3/e4CZ1cJhN8uEw26WCYfdLBMOu1kmHHazTDjsZpm4LtZ6q1NKN1Tqemgp3WsA7733Xsdjzp8/nzTXhx9+mDSuv7/zvqjBwcGkufr6+joeM3/+/KS5Um/rlPtV2Z2bfmY3y4TDbpYJh90sEw67WSYcdrNMOOxmmXDYzTLhsJtlwmE3y4TDbpYJh90sEw67WSaui0aYlOaDOpf3uXz5ctK41OWfUhbbOHz4cNJcY2NjSeM2b97c8Zjly5cnzbV48eKOx6Q0z0D6Mk4p41KbbmasodT/zczmLIfdLBMOu1kmHHazTLSz1tsiSS9LekPSMUnfLPavk3RY0pikvZIWVF+umaVq55n9d8CWiLgV2Ahsk3QX8ATwZETcDLwP7KisSjPr2qxhj5b/LTbnF/8C2AK8UOzfA9xfRYFmVo5212fvK1ZwHQcOAr8BLkTE5B+KzwBrKqnQzErRVtgj4nJEbAQGgTuBW9qdQNJOSaOSRlMOBjGzcnT0aXxEXAAOAXcDKyRNHoE3CJydYczuiGhGRLPRaHRTq5l1oZ1P4xuSVhSXFwP3ASdohf6B4mrDwL6KajSzErRzbPwAsEdSH60Hh+cj4oCk48Bzkv4BeB14usI6zaxLs4Y9In4B3DbN/lO03r+b2XXguuh6S5G6dE5qB1uK1BpTlo167bXXkubau3dv0rjbb7+94zEXL15Mmqvs7rAqzIUafbisWSYcdrNMOOxmmXDYzTLhsJtlwmE3y4TDbpYJh90sEw67WSYcdrNMOOxmmXDYzTLhsJtl4rroekvtDqtLan3z5qX9+letWtXxmK1btybN1Ww2k8atXbu24zELFy5MmitlHbW5fp+C8mv0M7tZJhx2s0w47GaZcNjNMuGwm2XCYTfLhMNulgmH3SwTDrtZJhx2s0y0HfZi2ebXJR0ottdJOixpTNJeSQuqK9PMutXJM/ujtBZ0nPQE8GRE3Ay8D+woszAzK1dbnRiSBoE/Bf4R+Gu1jtDfAnyluMoe4O+B71ZQY5LU5XZSmipSG1rmz5+fNG5gYKDjMZs2bUqaK2WpKYClS5d2PGbZsmVJc6X+/lOk3q9SxvWqEeY7wDeAK8X2KuBCRFwqts8Aa0qtzMxK1c767F8CxiPi1ZQJJO2UNCppdGJiIuW/MLMStPPMvgn4sqTTwHO0Xr4/BayQNPn6aRA4O93giNgdEc2IaDYajRJKNrMUs4Y9Ih6PiMGIGAIeAn4WEV8FDgEPFFcbBvZVVqWZda2bv7M/RuvDujFa7+GfLqckM6tCRx9jRsRLwEvF5VPAneWXZGZV8BF0Zplw2M0y4bCbZcJhN8uEw26WCYfdLBMOu1kmal/+KaWTZy50DFUxV2rX25IlSzoek9oZduXKldmvVNJ8CxaknRIhpVMxZUwvxpWp9xWYWS0cdrNMOOxmmXDYzTLhsJtlwmE3y4TDbpYJh90sEw67WSYcdrNMOOxmmXDYzTJReyNMSlNL6pI7KepsukltTkmZr6+vL2muVCk11tlkknqbpdZYVwPYtfiZ3SwTDrtZJhx2s0w47GaZaHd99tPAb4HLwKWIaEpaCewFhoDTwIMR8X41ZZpZtzp5Zv98RGyMiGaxvQsYiYj1wEixbWZzVDcv47cDe4rLe4D7u67GzCrTbtgD+KmkVyXtLPb1R8S54vJ5oL/06sysNO0e1XFPRJyV9PvAQUm/mvrNiAhJ0x4BUDw47ARYu3ZtV8WaWbq2ntkj4mzxdRx4kdZSze9IGgAovo7PMHZ3RDQjotloNMqp2sw6NmvYJS2RtGzyMvAF4CiwHxgurjYM7KuqSDPrXjsv4/uBF4tje+cB/xoRP5b0CvC8pB3AW8CD1ZVpZt2aNewRcQq4dZr97wFbqyjKzMpXe9dbijo7hlK6mursyoN6l7ZKXf6pzhpTOvrqrC9V2TX6cFmzTDjsZplw2M0y4bCbZcJhN8uEw26WCYfdLBMOu1kmHHazTDjsZplw2M0y4bCbZcJhN8vEddH1VqeUTqPU7qTUbrm53gWYOi61wy5Fnb/71Pnc9WZmSRx2s0w47GaZcNjNMuGwm2XCYTfLhMNulgmH3SwTDrtZJhx2s0y0FXZJKyS9IOlXkk5IulvSSkkHJZ0svt5YdbFmlq7dZ/angB9HxC20loI6AewCRiJiPTBSbJvZHDVrI4yk5cBm4M8BIuIicFHSduDe4mp7gJeAx9r4/9Iq7VDqPCnNGKlzXQ9NFXWOS226+bQu5VT2smLt/HbXARPAv0h6XdI/F0s390fEueI652mt9mpmc1Q7YZ8HfBb4bkTcBnzIVS/Zo/UQNO3DkKSdkkYljU5MTHRbr5klaifsZ4AzEXG42H6BVvjfkTQAUHwdn25wROyOiGZENBuNRhk1m1mCWcMeEeeBtyV9pti1FTgO7AeGi33DwL5KKjSzUrR7ppq/Ap6VtAA4BfwFrQeK5yXtAN4CHqymRDMrQ1thj4gjQHOab20ttRozq4yPoDPLhMNulgmH3SwTDrtZJhx2s0w47GaZcNjNMqGyO2uuOZk0QesAnNXAu7VNPL25UAO4jqu5jk/qtI4/iIhpj0uvNez/P6k0GhHTHaSTVQ2uw3XUWYdfxptlwmE3y0Svwr67R/NONRdqANdxNdfxSaXV0ZP37GZWP7+MN8tErWGXtE3Sm5LGJNV2NlpJz0gal3R0yr7aT4Ut6SZJhyQdl3RM0qO9qEXSIkkvS3qjqOObxf51kg4Xt8/e4vwFlZPUV5zf8ECv6pB0WtIvJR2RNFrs68V9pLLTttcWdkl9wD8BfwJsAB6WtKGm6b8HbLtqXy9OhX0J+HpEbADuAh4pfgd11/I7YEtE3ApsBLZJugt4AngyIm4G3gd2VFzHpEdpnZ58Uq/q+HxEbJzyp65e3EeqO217RNTyD7gb+MmU7ceBx2ucfwg4OmX7TWCguDwAvFlXLVNq2Afc18tagN8DXgM+R+vgjXnT3V4Vzj9Y3IG3AAcA9aiO08Dqq/bVersAy4H/pvgsrew66nwZvwZ4e8r2mWJfr/T0VNiShoDbgMO9qKV46XyE1olCDwK/AS5ExKXiKnXdPt8BvgFMnrB/VY/qCOCnkl6VtLPYV/ftUulp2/0BHdc+FXYVJC0FfgB8LSI+6EUtEXE5IjbSema9E7il6jmvJulLwHhEvFr33NO4JyI+S+tt5iOSNk/9Zk23S1enbZ9NnWE/C9w0ZXuw2NcrbZ0Ku2yS5tMK+rMR8cNe1gIQEReAQ7ReLq+QNHlewjpun03AlyWdBp6j9VL+qR7UQUScLb6OAy/SegCs+3bp6rTts6kz7K8A64tPWhcAD9E6HXWv1H4qbLXWAHoaOBER3+5VLZIaklYUlxfT+tzgBK3QP1BXHRHxeEQMRsQQrfvDzyLiq3XXIWmJpGWTl4EvAEep+XaJqk/bXvUHH1d90PBF4Ne03h/+bY3zfh84B3xM69FzB633hiPASeA/gJU11HEPrZdgvwCOFP++WHctwB8Brxd1HAX+rtj/h8DLwBjwb8DCGm+je4EDvaijmO+N4t+xyftmj+4jG4HR4rb5d+DGsurwEXRmmfAHdGaZcNjNMuGwm2XCYTfLhMNulgmH3SwTDrtZJhx2s0z8H4opKqcUWDE+AAAAAElFTkSuQmCC;" parent="1" vertex="1">
                    <mxGeometry x="951" y="620" width="258" height="258" as="geometry"/>
                </mxCell>
                <mxCell id="41" value="" style="shape=image;verticalLabelPosition=bottom;labelBackgroundColor=#ffffff;verticalAlign=top;aspect=fixed;imageAspect=0;image=data:image/png,iVBORw0KGgoAAAANSUhEUgAAAPsAAAD7CAYAAACscuKmAAAAOXRFWHRTb2Z0d2FyZQBNYXRwbG90bGliIHZlcnNpb24zLjMuNCwgaHR0cHM6Ly9tYXRwbG90bGliLm9yZy8QVMy6AAAACXBIWXMAAAsTAAALEwEAmpwYAAAP70lEQVR4nO3dX4xc5XnH8e+PtdcEJ4px1l38B2wQVhAXxYQVfwRCBErkpiFwgSxoVLmVJd/QiqiRgmmlqpFaKdyEcFFFsgqNL2iAklBbKEriOlhVpcqwFJMYHIJDbbGWYb0tKGklbNY8vZiz1WLtemeeOefMOu/vI1k7c3befR+fmd/M7Ox5zquIwMx++10w6ALMrB0Ou1khHHazQjjsZoVw2M0K4bCbFaKvsEvaLOkNSUck7airKDOrn7J/Z5c0BPwSuBOYAF4C7o+I1+srz8zqsqSPsdcDRyLiLQBJTwF3A/OGfWRkJNavX9/HlM07depUa3MtW7astbkkpca1edBVmzW2vT8y82XmOnbsGFNTU3NO1k/Y1wJvz7o+AdxwrgHr16/nwIEDPU+U+U9n75SjR4/2PObMmTOpua644orUuKGhoZ7HtP3gzoxbsiT3cMzs/+z++Oijj1LjMvdZZq4bbpg/go1/QCdpu6RxSeNTU1NNT2dm8+gn7MeBS2ddX1dt+5iI2BkRYxExNjIy0sd0ZtaPfsL+ErBR0uWShoH7gD31lGVmdUv/zh4R05L+FPgxMAQ8ERGv1VaZmdWqnw/oiIgfAj+sqRYza5CPoDMrhMNuVgiH3awQDrtZIRx2s0I47GaFcNjNCtHX39kXswsuyD2PrVmzpucxmSYHyNeYaeJouxEm09QyPT2dmuuDDz7oeczw8HBqrqVLl6bGZZpa6m548iu7WSEcdrNCOOxmhXDYzQrhsJsVwmE3K4TDblYIh92sEA67WSEcdrNCOOxmhXDYzQrReiNMpiEg01SRXaUlsyRTdpWQrExzSnZ/ZJt12lySKTMu+//K3teZcdka5/15tf40M1u0HHazQjjsZoVw2M0KsWDYJT0haVLSoVnbVkraK+nN6uvFzZZpZv3q5pX9u8Dms7btAPZFxEZgX3XdzBaxBcMeEf8K/PdZm+8GdlWXdwH31FuWmdUt+zv7aEScqC6/A4zWVI+ZNaTvD+iic/TEvEdQSNouaVzS+NTUVL/TmVlSNuzvSloNUH2dnO+GEbEzIsYiYmxkZCQ5nZn1Kxv2PcDW6vJWYHc95ZhZU7r509v3gH8HPitpQtI24JvAnZLeBH6vum5mi9iCHSYRcf8837qj5lrMrEHnxfJPbXYMZZYgyi4JlF1aqe5uqCZkOtGy+2P58uWpcRnZrre2OjfPtQ8X/6PGzGrhsJsVwmE3K4TDblYIh92sEA67WSEcdrNCOOxmhXDYzQrhsJsVwmE3K4TDblaI1hthMk0c2WWBMjINC9kGjuy4TDNGmw0ckGviaPN+zi6Hla0xc19n9v256vMru1khHHazQjjsZoVw2M0K4bCbFcJhNyuEw25WCIfdrBAOu1khHHazQjjsZoXoZvmnSyW9IOl1Sa9JerDavlLSXklvVl8vbr5cM8vq5pV9GvhaRFwN3Ag8IOlqYAewLyI2Avuq62a2SHWz1tsJ4ER1+TeSDgNrgbuB26qb7QL2Aw918fN6LnJoaKjnMW0urZTtoMp2omVkl4z68MMPU+My++TCCy9sba7svs88FiH3eMzs+9qWf5K0AbgWOACMVk8EAO8Aoz1XZmat6Trskj4JfB/4akT8evb3ovN0MudTiqTtksYljU9NTfVVrJnldRV2SUvpBP3JiPhBtfldSaur768GJucaGxE7I2IsIsZGRkbqqNnMErr5NF7A48DhiPjWrG/tAbZWl7cCu+svz8zq0s15b24G/gj4uaSD1ba/AL4JPCNpG3AM2NJIhWZWi24+jf83YL4TW91Rbzlm1hQfQWdWCIfdrBAOu1khHHazQjjsZoVw2M0K4bCbFaL1td4yMutrZTvRMqanp1PjsuuGnT59upUxkO8OW758ec9jsvdZpqNv6dKlqbmyMvvRa72ZWYrDblYIh92sEA67WSEcdrNCOOxmhXDYzQrhsJsVwmE3K4TDblYIh92sEA67WSFab4TJNH9kmgjaXO4o29CSXaLq1KlTPY/Zv39/aq6JiYnUuLvuuqvnMWvWrEnNldn/2X3fZrNO3QZfgZm1wmE3K4TDblYIh92sEN2s9XahpBclvSrpNUnfqLZfLumApCOSnpY03Hy5ZpbVzSv7KeD2iLgG2ARslnQj8AjwaERcCbwHbGusSjPr24Jhj47/qa4urf4FcDvwbLV9F3BPEwWaWT26XZ99qFrBdRLYC/wKeD8iZs60OAGsbaRCM6tFV2GPiDMRsQlYB1wPXNXtBJK2SxqXND41NZWr0sz61tOn8RHxPvACcBOwQtLMEXjrgOPzjNkZEWMRMTYyMtJPrWbWh24+jV8laUV1+RPAncBhOqG/t7rZVmB3QzWaWQ26OTZ+NbBL0hCdJ4dnIuJ5Sa8DT0n6G+AV4PEG6zSzPi0Y9oj4GXDtHNvfovP7u5mdB1rtepOU6v7JdChlO9EyS+5kl3/KynQBHjlyJDXXjh07UuOuu+66nsesWrUqNdfQ0FDPY7Jdb9nutczjse5OOR8ua1YIh92sEA67WSEcdrNCOOxmhXDYzQrhsJsVwmE3K4TDblYIh92sEA67WSEcdrNCOOxmhWh9rbdMJ09mfa1sV1O2Wy4j02EHcNFFF/U8ZsuWLam5br311tS4tWt7PyXh8HDubORtrvWWfXxkHveZ7sZz1lDrTzOzRcthNyuEw25WCIfdrBAOu1khHHazQjjsZoVw2M0K4bCbFcJhNytE12Gvlm1+RdLz1fXLJR2QdETS05JyxzqaWSt6eWV/kM6CjjMeAR6NiCuB94BtdRZmZvXqqhND0jrgD4C/Bf5cnW6A24E/rG6yC/hr4DsL/ay6D+4/n2X3RaZh5JJLLknNNTo6mhqXafzILOMEueaU7L7PLsmUmW9Qyz99G/g6MFPxZ4D3I2JmkbMJoPc2JzNrTTfrs38JmIyIlzMTSNouaVzS+MmTJzM/wsxq0M0r+83AlyUdBZ6i8/b9MWCFpJlfA9YBx+caHBE7I2IsIsayq3SaWf8WDHtEPBwR6yJiA3Af8NOI+ArwAnBvdbOtwO7GqjSzvvXzCcBDdD6sO0Lnd/jH6ynJzJrQ03mRImI/sL+6/BZwff0lmVkTfASdWSEcdrNCOOxmhXDYzQrhsJsVwmE3K4TDblaI1pd/ynQoTU9PL3yjs2SXVsosC3Q+LCWUrTHbeZWZr82OsvNBZtmzc/Eru1khHHazQjjsZoVw2M0K4bCbFcJhNyuEw25WCIfdrBAOu1khHHazQjjsZoVw2M0K0WojTESkDu5vs/EjI9vQktXmUkLZ/1tmKads40dm3LJly1qbC3L7cVDLP5nZec5hNyuEw25WCIfdrBDdrs9+FPgNcAaYjogxSSuBp4ENwFFgS0S810yZZtavXl7ZPx8RmyJirLq+A9gXERuBfdV1M1uk+nkbfzewq7q8C7in72rMrDHdhj2An0h6WdL2attoRJyoLr8DjNZenZnVptuDam6JiOOSfgfYK+kXs78ZESFpzqNYqieH7QCXXXZZX8WaWV5Xr+wRcbz6Ogk8R2ep5nclrQaovk7OM3ZnRIxFxNjIyEg9VZtZzxYMu6Tlkj41cxn4AnAI2ANsrW62FdjdVJFm1r9u3saPAs9Vx/YuAf4xIn4k6SXgGUnbgGPAlubKNLN+LRj2iHgLuGaO7f8F3NFEUWZWv9aXf8rIdFBllwRqc9mi80H2/9ZWdyPk7rPMkmLQbodj3cta/fY+Ss3sYxx2s0I47GaFcNjNCuGwmxXCYTcrhMNuVgiH3awQDrtZIRx2s0I47GaFcNjNCuGwmxWi1a43Sa11DWXnyYzLdlBlu7wy47IdVG2ubZaVmSu7FmCbj6u6+ZXdrBAOu1khHHazQjjsZoVw2M0K4bCbFcJhNyuEw25WCIfdrBAOu1khugq7pBWSnpX0C0mHJd0kaaWkvZLerL5e3HSxZpbX7Sv7Y8CPIuIqOktBHQZ2APsiYiOwr7puZovUgo0wkj4N3Ar8MUBEnAZOS7obuK262S5gP/BQE0VmmjiyjQ6ZppY2G1ogtz+yjTBt1pjVZmNQdn+cPn265zHDw8OpuebTTeWXAyeBf5D0iqS/r5ZuHo2IE9Vt3qGz2quZLVLdhH0J8DngOxFxLfC/nPWWPTovo3O+lEraLmlc0vjJkyf7rdfMkroJ+wQwEREHquvP0gn/u5JWA1RfJ+caHBE7I2IsIsZWrVpVR81mlrBg2CPiHeBtSZ+tNt0BvA7sAbZW27YCuxup0Mxq0e2Zav4MeFLSMPAW8Cd0niiekbQNOAZsaaZEM6tDV2GPiIPA2BzfuqPWasysMT6CzqwQDrtZIRx2s0I47GaFcNjNCuGwmxXCYTcrhLLdYanJpJN0DsAZAaZam3hui6EGcB1ncx0f12sd6yNizuPSWw37/08qjUfEXAfpFFWD63Adbdbht/FmhXDYzQoxqLDvHNC8sy2GGsB1nM11fFxtdQzkd3Yza5/fxpsVotWwS9os6Q1JRyS1djZaSU9ImpR0aNa21k+FLelSSS9Iel3Sa5IeHEQtki6U9KKkV6s6vlFtv1zSger+ebo6f0HjJA1V5zd8flB1SDoq6eeSDkoar7YN4jHS2GnbWwu7pCHg74DfB64G7pd0dUvTfxfYfNa2QZwKexr4WkRcDdwIPFDtg7ZrOQXcHhHXAJuAzZJuBB4BHo2IK4H3gG0N1zHjQTqnJ58xqDo+HxGbZv2paxCPkeZO2x4RrfwDbgJ+POv6w8DDLc6/ATg06/obwOrq8mrgjbZqmVXDbuDOQdYCXAT8B3ADnYM3lsx1fzU4/7rqAXw78DygAdVxFBg5a1ur9wvwaeA/qT5Lq7uONt/GrwXennV9oto2KAM9FbakDcC1wIFB1FK9dT5I50She4FfAe9HxMyJ89u6f74NfB2YOZH7ZwZURwA/kfSypO3Vtrbvl0ZP2+4P6Dj3qbCbIOmTwPeBr0bErwdRS0SciYhNdF5ZrweuanrOs0n6EjAZES+3PfccbomIz9H5NfMBSbfO/mZL90tfp21fSJthPw5cOuv6umrboHR1Kuy6SVpKJ+hPRsQPBlkLQES8D7xA5+3yCkkz5yVs4/65GfiypKPAU3Teyj82gDqIiOPV10ngOTpPgG3fL32dtn0hbYb9JWBj9UnrMHAfndNRD0rrp8KWJOBx4HBEfGtQtUhaJWlFdfkTdD43OEwn9Pe2VUdEPBwR6yJiA53Hw08j4itt1yFpuaRPzVwGvgAcouX7JZo+bXvTH3yc9UHDF4Ff0vn98C9bnPd7wAngQzrPntvo/G64D3gT+BdgZQt13ELnLdjPgIPVvy+2XQvwu8ArVR2HgL+qtl8BvAgcAf4JWNbifXQb8Pwg6qjme7X699rMY3NAj5FNwHh13/wzcHFddfgIOrNC+AM6s0I47GaFcNjNCuGwmxXCYTcrhMNuVgiH3awQDrtZIf4PdFiHlThrK60AAAAASUVORK5CYII=;" parent="1" vertex="1">
                    <mxGeometry x="700" y="620" width="258" height="258" as="geometry"/>
                </mxCell>
                <mxCell id="42" value="&lt;span style=&quot;color: rgb(101, 71, 53); font-family: &amp;quot;droid sans mono&amp;quot;, monospace, monospace, &amp;quot;droid sans fallback&amp;quot;; font-size: 14px;&quot;&gt;587727180596969574&lt;/span&gt;" style="text;html=1;strokeColor=none;fillColor=none;align=center;verticalAlign=middle;whiteSpace=wrap;rounded=0;fontStyle=1" parent="1" vertex="1">
                    <mxGeometry x="150" y="871" width="130" height="20" as="geometry"/>
                </mxCell>
                <mxCell id="43" value="&lt;span style=&quot;color: rgb(101, 71, 53); font-family: &amp;quot;droid sans mono&amp;quot;, monospace, monospace, &amp;quot;droid sans fallback&amp;quot;; font-size: 14px;&quot;&gt;587731187814563977&lt;/span&gt;" style="text;html=1;strokeColor=none;fillColor=none;align=center;verticalAlign=middle;whiteSpace=wrap;rounded=0;fontStyle=1" parent="1" vertex="1">
                    <mxGeometry x="400" y="871" width="130" height="20" as="geometry"/>
                </mxCell>
                <mxCell id="44" value="&lt;span style=&quot;color: rgb(101, 71, 53); font-family: &amp;quot;droid sans mono&amp;quot;, monospace, monospace, &amp;quot;droid sans fallback&amp;quot;; font-size: 14px;&quot;&gt;587727220876705819&lt;/span&gt;" style="text;html=1;strokeColor=none;fillColor=none;align=center;verticalAlign=middle;whiteSpace=wrap;rounded=0;fontStyle=1" parent="1" vertex="1">
                    <mxGeometry x="770" y="871" width="130" height="20" as="geometry"/>
                </mxCell>
                <mxCell id="45" value="&lt;span style=&quot;color: rgb(101, 71, 53); font-family: &amp;quot;droid sans mono&amp;quot;, monospace, monospace, &amp;quot;droid sans fallback&amp;quot;; font-size: 14px;&quot;&gt;587731187277758607&lt;/span&gt;" style="text;html=1;strokeColor=none;fillColor=none;align=center;verticalAlign=middle;whiteSpace=wrap;rounded=0;fontStyle=1" parent="1" vertex="1">
                    <mxGeometry x="1027" y="871" width="130" height="20" as="geometry"/>
                </mxCell>
                <mxCell id="46" value="" style="shape=image;verticalLabelPosition=bottom;labelBackgroundColor=#ffffff;verticalAlign=top;aspect=fixed;imageAspect=0;image=data:image/png,iVBORw0KGgoAAAANSUhEUgAAAPsAAAD7CAYAAACscuKmAAAAOXRFWHRTb2Z0d2FyZQBNYXRwbG90bGliIHZlcnNpb24zLjMuNCwgaHR0cHM6Ly9tYXRwbG90bGliLm9yZy8QVMy6AAAACXBIWXMAAAsTAAALEwEAmpwYAAAbDUlEQVR4nO2da6wd1XXH/39sDMa8/AiWhZEhCkrEh2KQRYgSRQQKomkUvkQoD1VuZclf0oqoqQK0UpVUrUS+5PGhimSVNHxIA+RVEIqSUBdUVaocLoUkgENwKBG2/MA3drBJwJisfjjjm323zuy7Zp89c87N/v+kqzsze2bvdR7rzFqz1l6bZgYhxB8+Z01bACHEMEjZhagEKbsQlSBlF6ISpOxCVIKUXYhKmEjZSd5K8nmS+0jeVUooIUR5mBtnJ7kCwM8B3AxgP4AnAHzMzJ4rJ54QohQrJ7j2OgD7zOxFACB5P4DbALQq+4YNG2zLli0TDOmn72Sh5d5/abzyps5Ltf3ud79b2H7rrbfcbW19kmwdK24766yzxm7H++F1qf69ssTHPf2//PLLmJ+fH9s4ibJfCuDlYH8/gHenLtiyZQv27Nkzti3nyxJfE+6HX4DUdblKlfvl9o6dK2OJH4mc1+Z9v+PzQuWMFTXcf/311xe2T5w4sei8kydPtradOnVqYTulLOH+qlWrFrWtWbNmYXv16tWtbWefffbCdvyjkBp7xYoVC9srV/5eJcP+4ra4/zPccsstY48DAzygI7mT5BzJuaNHj/Y9nBCihUmU/QCAy4L9zc2xRZjZLjPbZmbbNmzYMMFwQohJmETZnwBwJckrSK4C8FEAD5cRSwhRmmyf3cxOk/xLAD8AsALAV83s2WKSCSGKMskDOpjZ9wB8r5AsQogemUjZc8h5Wlw6rFOiv5xxu5ybG6Ly0neozBv98LaFpJ6k54bGcsNmOfTdfxtKlxWiEqTsQlTC4Ga8B685l5uw4um7y7m5ZnwJE7kEJeRIJdWEbd7km9TYqQy3MEEFWJyI4jXV4z7aElhiGVPvR9xnSJtcXZLG2q4J0Z1diEqQsgtRCVJ2ISphZnz2EhNhUv316SuXCq/lPBMoQenwGrDYp8w5L3Vdl1lpbT57TNgW+9ep0J5Xxrb+ljq3bawcdGcXohKk7EJUwkxm0HnNuaGz00rPRV9uZnxu9tuQobd4DngbqXBaKgsvpkRtBE/fJfrXnV2ISpCyC1EJM/k0fsgMOq9MXc4rbcbnypXbR877HZvnbaZ76rxUWarUU/tUBl0buRl0uU/SJ70GkBkvhHAiZReiEqTsQlTCTIbe+rx+kv5KhwBzxi3V5h0vJ7wGtPvbXUpJt/nzqdeVyn7zHB/XR+qZgHcm3VBZcil0ZxeiEqTsQlTCTJrxpTOHujArhSG8fZboPzdj0RtS84bXvG2xHKmJKm1mdsqsjvtIrfTSFpZLZd15ydEDFa8QQkjZhagFKbsQlTCoz25mRUNvQ88GywlJ9SFjbtgvp49cn70t9Bb75adPn25tS/nzbXjTZVO+fdwW9ulNpS2RVluaJe/sJL9K8gjJZ4Jj60g+SvKF5v/afsUUQkyKx4z/GoBbo2N3AdhtZlcC2N3sCyFmmCXNeDP7L5KXR4dvA3BDs30fgMcB3FlKqD5CUl7TdNJxl+qzTzM71dZHHzmz2VJZcqk+UnhnpeUu/xSa7inzvwR9uoe5D+g2mtnBZvsQgI2Z/QghBmLip/E2+olp/ZkhuZPkHMm5o0ePTjqcECKT3Kfxh0luMrODJDcBONJ2opntArALAK699trWH4W+J4+UnsQyZGGL3Lpt3jLNqf5Tx3My6LxjAf5JLDnmeZc+ShSv8LpDqf7C63Lch9w7+8MAtjfb2wE8lNmPEGIgPKG3bwD4HwDvJLmf5A4A9wC4meQLAP642RdCzDCep/Efa2m6qbAsQogemclZb330XToklTqeW/ChRNGItraUT53yIdv6XkrGtv5zffYSPrW3D68cKVKvK34P2saOz/OMrVlvQggpuxC1MDN140vTd2ZZzliA33zOWd001Uc44WSS/r3nlchYbDOfvQUkUm3TnJjiDb2VnkyjO7sQlSBlF6ISpOxCVMJM+ux9pKIO6bN7ZSyRYpo728xbhz0Xr5/urbXu9dm9s9JyZ6+VmJEZj5XzfW+TV6E3IYSUXYhaWBYZdKUz10oUCMg5r8vYpZdM6mLGl6iFnlOvvUT2m7cefJewVgkTvAQKvQkhXEjZhaiEZfE0flpmfGq80pllgH/JpFT55ba2VAZdTGjurlz5+69I7uSR1PEcEz81rvcp+yxl0A0li+7sQlSClF2ISpCyC1EJM+OzD1k0YlZ99ra2lF8e++JtPnsq9BYTLlEc+vZdfPQShR5LZL95/eHcDLrwuiHDcDnozi5EJUjZhaiEmcmgG3ISSyrslJsZl9NWon5cbMa3me6pTLtUVph3CaYUuWZ8SG72W+mwVuq9moWVWlPozi5EJUjZhagEKbsQlbCsfXZv8Yd4v8SsNy8l0mVTs968yxyXWL8sJW8qLOc9LyYnHJbrN8+6vw1M/jo9yz9dRvIxks+RfJbkHc3xdSQfJflC839t59GFEIPh+Zk9DeDTZnYVgOsBfJLkVQDuArDbzK4EsLvZF0LMKJ613g4CONhsnyC5F8ClAG4DcENz2n0AHgdw5xJ9zVzoLbeP3BrkJYpXeNtCSmSulXB5cuvRpVyBHJO2yzWpLLlpmf85LmanB3QkLwdwDYA9ADY2PwQAcAjAxs6jCyEGw63sJM8H8G0AnzKzV8M2G/3MjP2pIbmT5BzJufn5+YmEFULk41J2kmdjpOhfN7PvNIcPk9zUtG8CcGTctWa2y8y2mdm29evXl5BZCJHBkj47R07JvQD2mtkXgqaHAWwHcE/z/yHPgJP67F5/2xt68y6bHO+nKqd4Z0LFbW0htS6hN+9zBW9b+Nq6vN/eZYhT/bfJ1DdDp8QONVvOE2d/L4A/A/BTkk83x/4WIyV/kOQOAL8EcHsvEgohiuB5Gv/fANp+zm4qK44Qoi8Gz6DzzKLymtZeUz11XZellUJC8zM+L2XGe2eipWRsk3fcfhveOumhjPE1YZt3GeW4jxUrVowdN+4j9X57s/L6XuIpl6EKYCg3XohKkLILUQmDmvElMuhKZJaVMONTT2hzzfi2Ou8pcz/XjM8pSpHKHvM+7Y9N7tCMT7Wlzkt9Fl53IjcjsjR9jq07uxCVIGUXohKk7EJUwkwWryhRiLFvn93r46V8dm/N95SMXrr49t5CHym8Pnu4llzol6fk6OL3h3jr3k8z9NYnurMLUQlSdiEqYSYz6FK1znJquAGLzeIclyFFKoyTksO73HKX0FtIbhiurS69d2JQTMqMD8cKTfq4/3A7Pi9F22fRJXzXdp533KXIeR9zztGdXYhKkLILUQlSdiEqYdkt2ewNm+UWwPDONvPiLVCRasutPZ96/pCSo+3ZQRwq9KaphttxeC3sP1wqOpYr9NNjeePr2gjHzp051wdtfnaXNe086M4uRCVI2YWohJkx40tQoo55l0IRHrwFKlJj5YYYQ7M7NsHffPPNhe1Tp0652uLzQrliUzrcD03wOGy2atWqVhnD/fA8r9keE5rBsTuR00cu3vBa6aWodWcXohKk7EJUwrIw473LP7Vd03cfqety6+TlRBaAxWZ8aHa/8cYbi84L9+O2119/fcntWI5zzz13Uds555yzsB2a4PF5OZmCuRNy2iIEqWuGwDvepAU2dGcXohKk7EJUgpRdiEqYSZ89N2zm9aNL9J/rU/cpB7A4XBX67LG//Zvf/GZh+7e//W1rW9t2PPZ55523qC3cD7fj9yP0570zFWO8s+q8swWnSZ9FMZe8s5M8l+SPSP6Y5LMkP9ccv4LkHpL7SD5ActVSfQkhpofHjH8DwI1mdjWArQBuJXk9gM8D+KKZvQPAMQA7epNSCDExnrXeDMDJZvfs5s8A3Ajg483x+wB8FsBXHP11Op57XglSq3l6KWHip8J3qdrzoRkfm+CvvfbawvbJkycXtb366qsL2ydOnBi7HXPhhRcu2g/dCe+KtymzNewvzn5LTZLxmvG536vSYbpJzfiJi1eQXNGs4HoEwKMAfgHguJmd+QT2A7jU05cQYjq4lN3M3jKzrQA2A7gOwLu8A5DcSXKO5Nz8/HyelEKIiekUejOz4wAeA/AeABeTPGM/bQZwoOWaXWa2zcy2rV+/fhJZhRATsKTPTvJtAN40s+MkVwO4GaOHc48B+AiA+wFsB/BQKaFK+VMhOWGLVEEGb+gtJlX/3Ps8IzXrLZyxFqbBxuG10E8/fvz4orZjx44tbP/qV78aezzmkksuaW0LU2fDbWCx/+0tONnlOUhOAZIuBSfbPrMuvnxO8YqcZwWeOPsmAPeRXIGRJfCgmT1C8jkA95P8RwBPAbi38+hCiMHwPI3/CYBrxhx/ESP/XQixDJjJJZv7JmUChWZlHNZqM6O6mPE5y0alzPhU7XmvGf/rX/96UdvRo0cXtg8fPjz2ONC+HDKw2Fy/6KKLxsoHLDbd49fiNeNz6/VNi9yiFKpBJ4RwIWUXohJmchXXEpQowxtnarXJGD/xTWYxJUzftrG6mPFtT+PjDLrU0/hXXnllYfvQoUNjt4HFryV+yh5m1IWTcGIzPjXZJSf7zZuVOCsmPZCXDafiFUKIVqTsQlSClF2ISljWxStiUuGwHB/HO+utS98pn71EWC7HL43HastqizPcwv3UTLSwLc4a9L4f06TvDM62tlQGZw66swtRCVJ2ISphJs34XPM5taropGOl2rpck6pd3mbSdjFvw7ZwmaS4Xvv555+/sB2G62KZQ3M8vCZu27Rp06K2DRs2LGxfcMEFC9urV69edF4YsouXdQrN/5QrkCqO4aVEWC638IS3tv0gxSuEEMsfKbsQlSBlF6ISZsZnT4XNcvrI7b9vn91bfDHX9wyvC33q2FeO02xDQt95zZo1C9txpaGw/7Vr1y5qC88Nffb42UE4VspnT4XoSofvuoRtSxSeyAm9KV1WCNGKlF2IShjcjG8zP3KyvVLmljcs18Vkm5XQW4rw3HBppVRhiDgzLjTd161bt7Adh+jCseKwXNhHuPxTPDsulYXXZsbn1p5PvY/hbLnc5Zy9bSnzPOf74UV3diEqQcouRCUs6+IVXbLf2kz3XBM51UeqzWumhdupSSZxMYjwiXaqjHKq8ERboYi4v7CP0GWI98Pt2GVIvc4+zdvciExMicIT3qfxyqATQriQsgtRCVJ2ISphZnz2ruf0Me4QpLLkQp815Xunln8KyfX72/z0VJgyVdgiFV7z+uJtM+C69BGSKm4ZE46XO9OyxKy3VJsH9xXNss1PkXyk2b+C5B6S+0g+QHLVUn0IIaZHl5+HOwDsDfY/D+CLZvYOAMcA7CgpmBCiLC4znuRmAH8K4J8A/DVHdseNAD7enHIfgM8C+MpSfU1qTk9zmagS4cGUOReai6FZGU8QScnRZvrGZnaYDReb8W1jeceNx84Nm7W9Fu9Y4/o8Q8qMj68Jsw+9E21KTITJMeNLhN6+BOAzAM68I+sBHDezM9+S/QAudfYlhJgCSyo7yQ8BOGJmT+YMQHInyTmSc/Pz8zldCCEK4DHj3wvgwyQ/COBcABcC+DKAi0mubO7umwEcGHexme0CsAsArr766tl4JC5EhXjWZ78bwN0AQPIGAH9jZp8g+U0AHwFwP4DtAB7yDJgTesvxlfsugJE7VthHHEJq69ObBhz3mZtW6x07J+wU4y084Q29eX3qLj57OF6Xz8J7Xk7xil5Db2O4E6OHdfsw8uHvnaAvIUTPdEqqMbPHATzebL8I4LryIgkh+mBmatDl0MV8LlF7vu/a4m1mWhw28/bvzaDzmvGpLLOYtj682WNxW24GXY4ZH+OtDZhbPy5ndl+foTchxDJHyi5EJSy7GnQpcp4i5/afOl7itYRmWqpoRCqbzJu1lWvGp97v1NPtNnn7mAjj/b7lfl9yTPAhi3Qsur7zFUKIZYmUXYhKkLILUQkzE3pL1XJvo0TorYT/nvL/ShQvjH23sM/Y/wv7SC3xlHom0FYco0so0lucM+XLtvnz3vPi8VKFOHJ99hIz1krMEPSgO7sQlSBlF6ISZjL0lpu55jWtS1A6my4mlalVwqwM+4gnybSZ+Lm18FKfbSqkFmb5pSYQlagbnypQkZMB2MWM9xbp8LxOZdAJIaTsQtSClF2ISpgZnz2k76KS3qILs1JrPianBnl8Xuhjx7Pq2vzvVHgt9YwhtRyyN6SWqt2e8odLFAnte8ZaW/9dlqb2oDu7EJUgZReiEmYmg06UwWveeUN7XpchJUfKDPbWg/dmyXnDmakZfLE7Edbri12enOw3b1vOks0pdGcXohKk7EJUgsz4TJbbSrNdSj3nLGmUelIfkjJhUyvBpp7G58iYKuMdy9i2Im18bomVZnPdJg+6swtRCVJ2ISpByi5EJcxkBp035FC6SOW4sfuk7wy9EssRpcJVfY4F+DPovKT6SMnRd+jNG6Zsu8aLd332lwCcAPAWgNNmto3kOgAPALgcwEsAbjezY50lEEIMQhcz/gNmttXMtjX7dwHYbWZXAtjd7AshZpRJzPjbANzQbN+H0Rpwd6YuIFnUjM8153Kv806gye2jxKSNEte1Febw1mRP9ZGbnZYKlXnN3ZylpmK5vPXvSkyEmVYGnQH4IcknSe5sjm00s4PN9iEAGzuPLoQYDO+d/X1mdoDkJQAeJfmzsNHMjOTY21Lz47ATADZv3jyRsEKIfFx3djM70Pw/AuC7GC3VfJjkJgBo/h9puXaXmW0zs23r168vI7UQojNL3tlJrgFwlpmdaLZvAfAPAB4GsB3APc3/hzwD5vjs3uVp+6jl3taH5/g4vCmm3qKS3rG7FLfMWd7aO3aXVNRwPzVLL2fs3Lru3gIbuaG3PtNlPWb8RgDfbQZaCeDfzOz7JJ8A8CDJHQB+CeD2iSQRQvTKkspuZi8CuHrM8XkAN/UhlBCiPDOZQRebOW01zLqY6iVM8BJLNqfMtBKhvZx64jFtmWYpU9obJsqtQZebTZZjxncJvZVYbtnrpua4wIvGWfJqIcQfBFJ2ISpByi5EJcyMzx4ej2dXtfnpucvu5i7PW3p9ty6VX7x9eP1+bx+pZyTe15Jb8710anROccvcttzX6Tm+VFsburMLUQlSdiEqYWbM+JBURldullybidzFpG+TvVQRijazNTYdw+WFU+9V37MC+17SKLcgRltbCTM+93V668F7jueiO7sQlSBlF6ISBjXjvcUr+qCEqR1GCfqedJN6n8KMrhITYXLxmue5SxqVMG/bXI0upnqOG9LlSXoJd8WD7uxCVIKUXYhKkLILUQkzGXrrm9wsuRIhwJzQWIn3rHQ21lJ9lC6imOsPe3323BlrpQtP9Pmd0J1diEqQsgtRCdWY8W3mc5cMOq8Zn1omKUXOxI/SWWa59GHe5vThnZCTyqDrEnrLWa5JGXRCiF6RsgtRCVJ2ISphcJ99UlJ+TM5stqFTXUv0UcL/zpGxRApoH6E3b2isRF33EumyKfp8pqU7uxCVIGUXohIGN+M9pnFuzfcw5BWHv9pmrMXn5cwiK2V6lTatS8tRImzW5bwSobecuu65BTZKZAr2ievOTvJikt8i+TOSe0m+h+Q6ko+SfKH5v7ZvYYUQ+XjN+C8D+L6ZvQujpaD2ArgLwG4zuxLA7mZfCDGjeFZxvQjA+wH8OQCY2SkAp0jeBuCG5rT7ADwO4M5UX2aWlV2Ws+xSyoxPyeB9Gl8iK2xWGfJJek4fXczsNvM894l+rhmfYqjvhOfOfgWAVwD8K8mnSP4LR0s3bzSzg805hzBa7VUIMaN4lH0lgGsBfMXMrgHwGiKT3Ua3wLG3QZI7Sc6RnJufn59UXiFEJh5l3w9gv5ntafa/hZHyHya5CQCa/0fGXWxmu8xsm5ltW79+fQmZhRAZeNZnP0TyZZLvNLPnMVqT/bnmbzuAe5r/D3kGzMlKy/HZu4TlcigxE6oE3vezy/teerZZjl/epY8cX7xU/frc1zYNvHH2vwLwdZKrALwI4C8wsgoeJLkDwC8B3N6PiEKIEriU3cyeBrBtTNNNRaURQvTGTGbQ5fblNeNzZShdV60Ecf8l3t82+b2rj6b6KGEi9zFRpYSr4Tm+VFufKDdeiEqQsgtRCVJ2ISpByi5EJUjZhagEKbsQlcCSobAlByNfwSgBZwOAo4MNPJ5ZkAGQHDGSYzFd5dhiZm8b1zCosi8MSs6Z2bgknapkkBySY0g5ZMYLUQlSdiEqYVrKvmtK44bMggyA5IiRHIspJsdUfHYhxPDIjBeiEgZVdpK3knye5D6Sg1WjJflVkkdIPhMcG7wUNsnLSD5G8jmSz5K8YxqykDyX5I9I/riR43PN8StI7mk+nwea+gW9Q3JFU9/wkWnJQfIlkj8l+TTJuebYNL4jvZVtH0zZSa4A8M8A/gTAVQA+RvKqgYb/GoBbo2PTKIV9GsCnzewqANcD+GTzHgwtyxsAbjSzqwFsBXAryesBfB7AF83sHQCOAdjRsxxnuAOj8uRnmJYcHzCzrUGoaxrfkf7KtpvZIH8A3gPgB8H+3QDuHnD8ywE8E+w/D2BTs70JwPNDyRLI8BCAm6cpC4DzAPwvgHdjlLyxctzn1eP4m5sv8I0AHgHAKcnxEoAN0bFBPxcAFwH4PzTP0krLMaQZfymAl4P9/c2xaTHVUtgkLwdwDYA905ClMZ2fxqhQ6KMAfgHguJmdbk4Z6vP5EoDPADhTXWT9lOQwAD8k+STJnc2xoT+XXsu26wEd0qWw+4Dk+QC+DeBTZvbqNGQxs7fMbCtGd9brALyr7zFjSH4IwBEze3LoscfwPjO7FiM385Mk3x82DvS5TFS2fSmGVPYDAC4L9jc3x6aFqxR2aUiejZGif93MvjNNWQDAzI4DeAwjc/likmdKlQ3x+bwXwIdJvgTgfoxM+S9PQQ6Y2YHm/xEA38XoB3Doz2Wisu1LMaSyPwHgyuZJ6yoAHwXw8IDjxzyMUQlsoEMp7EngqPjYvQD2mtkXpiULybeRvLjZXo3Rc4O9GCn9R4aSw8zuNrPNZnY5Rt+H/zSzTwwtB8k1JC84sw3gFgDPYODPxcwOAXiZ5DubQ2fKtpeRo+8HH9GDhg8C+DlG/uHfDTjuNwAcBPAmRr+eOzDyDXcDeAHAfwBYN4Ac78PIBPsJgKebvw8OLQuAPwLwVCPHMwD+vjn+dgA/ArAPwDcBnDPgZ3QDgEemIUcz3o+bv2fPfDen9B3ZCmCu+Wz+HcDaUnIog06IStADOiEqQcouRCVI2YWoBCm7EJUgZReiEqTsQlSClF2ISpCyC1EJ/w8VReycpSOVpgAAAABJRU5ErkJggg==;" parent="1" vertex="1">
                    <mxGeometry x="331" y="930" width="258" height="258" as="geometry"/>
                </mxCell>
                <mxCell id="47" value="" style="shape=image;verticalLabelPosition=bottom;labelBackgroundColor=#ffffff;verticalAlign=top;aspect=fixed;imageAspect=0;image=data:image/png,iVBORw0KGgoAAAANSUhEUgAAAPsAAAD7CAYAAACscuKmAAAAOXRFWHRTb2Z0d2FyZQBNYXRwbG90bGliIHZlcnNpb24zLjMuNCwgaHR0cHM6Ly9tYXRwbG90bGliLm9yZy8QVMy6AAAACXBIWXMAAAsTAAALEwEAmpwYAAAbMUlEQVR4nO2dW6xd1XWG/x8bcw/GHNeysGWogoh4aEw4IkREEYES0TQKLxHKRZVbWfJLWhE1VYBWqpKqlchLLg9VJKuk8UMaILcaoSgJdUFVlQo4FJIADsGhXGwZbHMJtwQwGX3Y67jzzO4191hzz7X2NvP/pKOzbnvOsfbeY68x5hhzTJoZhBBvf06YtQBCiGGQsgtRCVJ2ISpByi5EJUjZhagEKbsQlTCVspO8muSjJPeRvKGUUEKI8jA3zk5yFYBfArgKwH4A9wH4hJk9Uk48IUQpVk/x2ksA7DOzxwGA5C0ArgHQquwLCwu2ZcuWiQ2nfoBS50hObLvLdV7mKTGp9L2F9H2ffcrehT7us8S9eeR66qmncOTIkbGdTaPs5wB4OtjfD+C9qRds2bIFP/nJT8aeC2/kd7/73Ypz4X58LuSEE/7PK4nf3NS5NlLXhfLm/jh5v1QpOeJz4X7b9qQ22+4tfu9LKEVKxrbrvO3F9PGZtV2b+/2b9vty2WWXtZ7rfYCO5A6SSySXDh8+3Hd3QogWplH2AwA2B/ubmmMrMLOdZrZoZovr16+fojshxDRMo+z3ATif5Hkk1wD4OIDby4glhChNts9uZkdJ/jmAHwFYBeDrZvZwMcmEEEWZZoAOZvYDAD8oJIsQokemUvaSeEeOw1HNLm14R02HJCVjiZHpXLyj1n32C6y8T+97M0u8kYVZoXRZISpByi5EJQxuxnvMm9hUbzPnUuReNy9mfWkzPjdRJGXS55jWXWTPSToaOpux9PcldS/T3qee7EJUgpRdiEqQsgtRCXPps3v9oJQPmZq00XcYp++ZeSVkTk0o8vrsba8B/OMPpX3svsdcZjWz0tt+ql892YWoBCm7EJVw3JnxqfBDaJp6w0ld6DPMUupciDds5p2jXcI9STF0aC/Vd2nmIaNOT3YhKkHKLkQlDG7G50xIyZlgMC+ZcH0w5KQQr/vjLY81r8wyC68N72QuL3qyC1EJUnYhKkHKLkQlzE3xihx/pESZ5hL0URq4hF8+ZDgpt+BIKuvR0++4/Wnp4iu3fU59hCmnvU892YWoBCm7EJUwN6G3Em3Ni+meIieTr0SBjS5mZemVXlJmfGi6x9d5zfoh6dv1SiEzXgjhQsouRCVI2YWohLeVz+5lyPTNLv5wm4/aJbSXk05corBh7mqyIfH99/k5lSqoMeRKttMy8clO8uskD5F8KDi2juSdJB9r/p/Vm4RCiCJ4zPhvALg6OnYDgD1mdj6APc2+EGKOmWjGm9l/kDw3OnwNgMub7V0A7gZwfUnBIhlcx2e1bFGK3KIRqTBOabNvliHMkNR9Ho/rAHjJdZW6kjtAt8HMDjbbzwDYMJUUQojemXo03kY/S60/TSR3kFwiuXT48OFpuxNCZJI7Gv8syY1mdpDkRgCH2i40s50AdgLAxRdf7LJXvKPDJczP3EkVuWZluP/WW2+tOOcdjfdOQEkd73sSUU4J6j7ciWmLpZToKz5XwtXIeU3uk/12ANua7W0Adme2I4QYCE/o7VsA/gvABST3k9wO4CYAV5F8DMAfNvtCiDnGMxr/iZZTVxaWRQjRI3NTvCJFTh3zEpRYhipV2z720Yf02XMoMb6RGy4tnanW5VwOuVl4fWbTKTdeiEqQsgtRCXNpxueabLPKoOuymqzXjA/biIs69G3G55iS3vcgFQIssQyVl6Ez60qH3nLQk12ISpCyC1EJUnYhKmEufXYvs5zZlhtOSvnsYfpsKq3W61N7r4vHBML9VOHIEoUvc9OOc9roYz23EunVJeVPtaUnuxCVIGUXohLm0owvUcc8t42cmUu5obfYPD969OjY67q4CW2me8oEX7Vq1Ypz4X643feyRSWKkXhr/A29xHQfRUa6oie7EJUgZReiEubSjPfSxVTPMaNSyw/lmtleMz48lxq1T8kYmu6xGd9mqgPAiSeeOLG9eD/XLM4xTbuMbHtH4L01/2JKmP8lXBQPerILUQlSdiEqQcouRCUM7rN7/Jpcv6t0NpPXFy/ls4f7b7755tjt+LrQz49J+eWrV68euw20h+zi67x4fd54/KFEYYucTLOUz55afjp3bMJbUHVa9GQXohKk7EJUwnEReutzwkuJ5Zm6tO8NvYWm+xtvvLHiutS5sL+UqR7ur1mzZsW5tnBS7Ap4TdpUeKp06G1e8Zr4OaFCL3qyC1EJUnYhKkHKLkQlzE3obaiUwbiNPtcTG4e3eEXol7/++usrrgv3f/vb37a2H6a9xj57eC4eO2i7n5SPHrfflk5couBkifrvuaG33Da97Xnfq17WeiO5meRdJB8h+TDJ65rj60jeSfKx5v9ZnXsXQgyGx4w/CuCzZnYhgEsBfJrkhQBuALDHzM4HsKfZF0LMKZ613g4CONhsv0xyL4BzAFwD4PLmsl0A7gZwfS9SrpSn1zb6NvFThS3aQm+xGf/aa6+N3Y7bDE31eCZbGG5LzZxLhd5SYSJvDXwvOXX3UjIOXTe+RL2+aen0zpM8F8BFAO4BsKH5IQCAZwBsKCqZEKIobmUneTqA7wL4jJm9FJ6z0U/Q2J8hkjtILpFcOnLkyFTCCiHycSk7yRMxUvRvmtn3msPPktzYnN8I4NC415rZTjNbNLPFhYWFEjILITKY6LNz5GzcDGCvmX0pOHU7gG0Abmr+7/Z0mDPrrfSaX6VnUHW5zjvrLUyDjX323/zmN8e2X3311dY2Qr88TokNxwdSswxDPz32+1Mz1kpXu0mRaqOtvVL+cE54cJprJ/WbwhNnvwzAnwD4OckHm2N/jZGS30ZyO4AnAVzbuXchxGB4RuP/E0DbT8+VZcURQvTFcTHrrYT5VWKJnRJhnJwChakQXTzrra32fCpbLyY0i1MFMFIytr3fcRupsJzXPM/5LLp8ZvM4y66XDDohxNsDKbsQlTCoGU/SZX7kTnQoYW7l1DvvMqkiVcu9rdhEKuss7js0z1Pyp8z4nMIT3vr13gy3FN5oR0zu92robLs2pnVn9WQXohKk7EJUgpRdiEqYy9Bb38UJUu3l+OxefzXeT9VyD8+llltOzTZrC8PFbXqXfe5SeKItCy81c87bfq4cqeN9z4jL8bEHL14hhHh7IGUXohLmpgadl9D8TJnPuWE471I/Yd/xdSlzK2XGh/slQm/eMFy8hJTXjA9JhRHDSThxyM/7fod4J0rF7af6mmV4zWueT607U71aCHHcIGUXohKk7EJUwqA+u5kl/ezwOg9dQhPeIgNenymnsEK8nxt6S50L7zP0xWO/PNyP22grnBHXqA+vS6XfhvJ2+cxyZr2l8M5oLEHpddoAn4zJcZWsXoUQxx1SdiEqYfDQW2xOjqOP2UltYZ0++vKapikTP9yOl1ZqC9HF/YVmdlyrLtyPzcpTTjll4jYAnH766ce24zp5obuWeq9yZqmVWJ6pRBZeKbz36T3Xhp7sQlSClF2IShh8NN5jxqfM25AS5lWuSehts4sZ32aep0btvWb8yy+/vOK6559//th2uNQUAJx88snHtkPTPTwOAGeeeeax7dgcD+UIy0rH95LKRGzLIkxl2pWeKBVfOyuTvkTferILUQlSdiEqQcouRCUM7rPH/uEy3hlPqdrlIX3UD89po0sGXei/psJr4X5qSaaUzx4ushkuJwWs9M3btuPXxe9BKFfo98fyhu9HfC7l67e14R2DKbX+QJ/fs9LjSRM1jOTJJO8l+VOSD5P8QnP8PJL3kNxH8laSaya1JYSYHZ7H6esArjCzdwPYCuBqkpcC+CKAL5vZOwG8AGB7b1IKIabGs9abAXil2T2x+TMAVwD4ZHN8F4DPA/jahLZcE2G8tcVzl12aJd6wXCq8Fpq38eqsbeZu7D699tprx7ZfeeWV1nNh+7GZHWbNxedCk/+00047tn3SSSetuC5lxofXhufmqf57ziqu3rqHg5vxTSerOFrB9RCAOwH8CsCLZrYcNN8P4JypJBFC9IpL2c3sLTPbCmATgEsAvMvbAckdJJdILj333HN5UgohpqZT6M3MXgRwF4D3AVhLctm+3ATgQMtrdprZopktnn322dPIKoSYgok+O8n1AN40sxdJngLgKowG5+4C8DEAtwDYBmD3NIKkZh21nfP4/8vk+Dsl1h5L4Q3LpXzZ2AduC3PFfn/YV1x4IkxpDsNr8X2Gob04LBf66WecccZY+WK5UveSKp7pTZ8tMYvRS5f1CHJ89pyZcp44+0YAu0iuwsgSuM3M7iD5CIBbSP49gAcA3OxoSwgxIzyj8T8DcNGY449j5L8LIY4D5nL5p5QZn5olFdL38j7eGmPepZUAvxkfhsNiszg0hcPr4pBcyowPQ2pt28DKmnSnnnrqinNhYYtwdlxo3scyxvcShgtDGVN192JKhLW8LqYXr3meqm2v4hVCiFak7EJUwuBmfI7Z4x2N7zt7qk32XNMulqlt8ktqND4cEQdWmsKhiZwqchHLG47Ah9l18WSasI7dO97xjhXn1q5de2z717/+det1obyh6Q+sjAqEZnzskvRtxqcoXaI8NanHO1msDT3ZhagEKbsQlSBlF6IS5mbJ5nmZlZYi5edO217cZngu9lFDHz7OXAv9+dAfjkNeoX8ch7zCkFpc2KJN3nhWXbifCt+FYw6pNkKfPR6r6eOz8LafU7yixPiAQm9CiFak7EJUwqBmPElXDblU5pDn+DT0nV2Xuq7tdal66nHxijCTLQxzrVu3bsV1L7300rHtOIOuLQsvVQsvnOwCrHQ1QvljEzzsO15TIDTjw+2UW5MbBvUuV5WitKleehkqPdmFqAQpuxCVIGUXohIGD715Uv5yJu13uS63L2+6bOkQXR8+exhei2nz01NjKXFoLwwJhtfFPnu4n/LZ21Jn4zZK1YP3nis9btSlIMs4UrLqyS5EJUjZhaiEwUNv05rxnuPT4J0ZlQrVDBl6iwmz4cJwWGzGp5bObjPd4/sM34N4xlroCoSvi03wcD9VCy9lxof7JYpLdMH73cwtjtH1OpnxQggpuxC1cFyMxnuZZfZbDilTL7Xaa4q2mm6xmR1OQInN4jZzMb7n0LSO2w/7To3op4qRhHK1TYqJX5eaJJOaSFKi8InXVE+5fTkl1b3oyS5EJUjZhagEKbsQlTCXobe+8YY3SoRLYlJ1wXOI+w5ngIWz1+IiF2GmXZxNFxaYSPn2oc8e140PffZQjtQyVPG9tIXl4rBhW4gubj8VRvR+Ln3MZgtJZQMO5rM3yzY/QPKOZv88kveQ3EfyVpJrJrUhhJgdXR4t1wHYG+x/EcCXzeydAF4AsL2kYEKIsrjMeJKbAPwxgH8A8Jcc2TJXAPhkc8kuAJ8H8LVJbbWZSNPWk+/jddNmM40jZQaGIbZcc7FtkkzKjI9rz7dlq6VCb6laeF4zPqbNdO9ixofvaSh/agXdEhNfumTyeddF8HzPSmTQfQXA5wAs9342gBfNbPmd3Q/gHGdbQogZMFHZSX4EwCEzuz+nA5I7SC6RXDpy5EhOE0KIAnie7JcB+CjJJwDcgpH5/lUAa0ku22SbABwY92Iz22lmi2a2uLCwUEBkIUQOnvXZbwRwIwCQvBzAX5nZp0h+G8DHMPoB2AZgt6fDnBls3pTHnAIEXYoFlE6RzS3SkcLrs7cVhgDa/fRYprCNVDHKtjXsAH/oLeWXp2bOpcYc2ugjlTYnDXae0mWvx2iwbh9GPvzNU7QlhOiZTkk1ZnY3gLub7ccBXFJeJCFEH8xNBl1Ovewutd9y6sL1PbPNay52MedCkzm1TFRqOaU21yaWLwzZperThdtxzbw2c78L3nvpIzNuVmj5JyFEK1J2ISph8OIVbeSsouldBbVLv9OulNmlv9yy2KlzbWZ8bD57J1y09Qv8/8w7D/FofGp5qbYlpFL37H2vYpM+bMPrknTB+1l7R+Nz+tGTXYhKkLILUQlSdiEqYXCf3Rte8ry+9JK2k9roO4OujVSRxlim8NrQ541DUjljGnFoLPTZUyGvMDQW++WpGXFtfnQXn7rNT0/NessNAbb1O+lc2zhR6Zr3erILUQlSdiEq4bgIvYWUKCyQaypN64LEbfSx0mxb6C0mFWpqM3djMzs048NJMUC7GR/Lm1qRti27LiVvH6G3kNzlpUpPpslpS092ISpByi5EJUjZhaiEufHZc8IMfYfaUuQW0fDi9fFSYblUCCnl57b1FbcX1pePi0akimOEhH65twBGLEfOTMKhyZGjdGhZT3YhKkHKLkQlDGrGm1mnmm/h64Z4TS6l6teXyJ4qsYyRt3hFaGbHobcw7Bea8aliG6lwWKrIRU69/VS9uz4yM730+b3Vk12ISpCyC1EJg4/Ge03EHHJKSefKUcJ0zx3FT40+t42yxyZy+Dkks64Sk0dC0zrO1gtN99DET5nIqQkuKTPeO0kmtbRSH4VEvAxVE1FPdiEqQcouRCVI2YWohMF99ja/w1vosfSSuX1kv3ln5g2ZaRfj9XNTRR3awmvxfjg7LveeUxl03mzAkFQIOFUQJPVeeRly3YIQ7/rsTwB4GcBbAI6a2SLJdQBuBXAugCcAXGtmLxSVTghRjC5m/AfNbKuZLTb7NwDYY2bnA9jT7Ash5pRpzPhrAFzebO/CaA246ye9yGNO95FZ1lWeuN/cNvomtwBGzrkuBR/aTN/YfPaGS1NFNLw13710WW5rlp99V7xPdgPwY5L3k9zRHNtgZgeb7WcAbCgunRCiGN4n+/vN7ADJ3wNwJ8lfhCfNzEiO/Ylrfhx2AMDmzZunElYIkY/ryW5mB5r/hwB8H6Olmp8luREAmv+HWl6708wWzWxx/fr1ZaQWQnRm4pOd5GkATjCzl5vtDwH4OwC3A9gG4Kbm/25Ph32GKryvKR0aG7pAQuna+d5a6yl/1VtrvUvIKyQVAswpRpmb9hrL6E07zjlX+nvlMeM3APh+0/FqAP9iZj8keR+A20huB/AkgGuLSiaEKMpEZTezxwG8e8zx5wBc2YdQQojyzE0NupA+whmls5ZyTbYh5cht31tr3dteSJfiJTmht9zsuhKZmV5XoI9lnz0oN16ISpCyC1EJUnYhKmEuffaYPlMSu4TockIkfSwB3fe6eF4/PcRbyz033bRE6K1NvknkhHG9cqTkKu3368kuRCVI2YWohMHNeM+yx32Yvl55vHLMa999FsTwmqJxG33Xw8+Z9TZP7+9QWaV6sgtRCVJ2ISphbsz4PgtU9EEfJr73Pcg517e8uUtNedsPSZnqXhN56PcjR8bSeqAnuxCVIGUXohKk7EJUwtz47McbuWt8lQ6zeGdh9TEOkroXbzGLEgUzvZTISPOGS71r8MX7fdaU15NdiEqQsgtRCYOa8SSnNseOtxBdF3JCMLkTS0rUqkudy5nQUaKARO79e2X0To7qEnrz4rnPZB2/rF6FEMcdUnYhKkHKLkQlzGXxCu+stxLhmBJ110sxq6V8U3jHSLyhpnkJvebOPMsNveXWpS+JnuxCVIKUXYhKGNSMN7OpzZTSpnsJk6pUPbO267q8Z0PO8kq1P6uQWopcM7v092BWIWPXk53kWpLfIfkLkntJvo/kOpJ3knys+X9W38IKIfLxmvFfBfBDM3sXRktB7QVwA4A9ZnY+gD3NvhBiTvGs4nomgA8A+FMAMLM3ALxB8hoAlzeX7QJwN4DrJ7VXsrhCH+bWkDXovNlvfZSc9maF5Zaj9l4XLgcVLw3VtlRUbvabdzJKqg3vezW02+Tp1/NkPw/AYQD/TPIBkv/E0dLNG8zsYHPNMxit9iqEmFM8yr4awHsAfM3MLgLwKiKT3UY/aWMfASR3kFwiuXTkyJFp5RVCZOJR9v0A9pvZPc3+dzBS/mdJbgSA5v+hcS82s51mtmhmiwsLCyVkFkJk4Fmf/RmST5O8wMwexWhN9keav20Abmr+7/Z0mON/5syg8pLrr+aSCieVCDUNOfaRaqNE6C302duWb473vbPN+gi95ZIz1pQjkzfO/hcAvklyDYDHAfwZRlbBbSS3A3gSwLWdexdCDIZL2c3sQQCLY05dWVQaIURvzM1EmJywRYkiAN6JDfG5Pmgz4/uondY3bWZxbiGOvjMKc9/jnJp/fS7RlUK58UJUgpRdiEqQsgtRCVJ2ISpByi5EJUjZhagEDlzP7DBGCTgLAGadKD8PMgCSI0ZyrKSrHFvMbP24E4Mq+7FOySUzG5ekU5UMkkNyDCmHzHghKkHKLkQlzErZd86o35B5kAGQHDGSYyXF5JiJzy6EGB6Z8UJUwqDKTvJqko+S3EdysGq0JL9O8hDJh4Jjg5fCJrmZ5F0kHyH5MMnrZiELyZNJ3kvyp40cX2iOn0fynubzubWpX9A7JFc19Q3vmJUcJJ8g+XOSD5Jcao7N4jvSW9n2wZSd5CoA/wjgjwBcCOATJC8cqPtvALg6OjaLUthHAXzWzC4EcCmATzfvwdCyvA7gCjN7N4CtAK4meSmALwL4spm9E8ALALb3LMcy12FUnnyZWcnxQTPbGoS6ZvEd6a9s+/IqLX3/AXgfgB8F+zcCuHHA/s8F8FCw/yiAjc32RgCPDiVLIMNuAFfNUhYApwL4bwDvxSh5Y/W4z6vH/jc1X+ArANwBgDOS4wkAC9GxQT8XAGcC+B80Y2ml5RjSjD8HwNPB/v7m2KyYaSlskucCuAjAPbOQpTGdH8SoUOidAH4F4EUzO9pcMtTn8xUAnwOwXHDu7BnJYQB+TPJ+kjuaY0N/Lr2WbdcAHdKlsPuA5OkAvgvgM2b20ixkMbO3zGwrRk/WSwC8q+8+Y0h+BMAhM7t/6L7H8H4zew9GbuanSX4gPDnQ5zJV2fZJDKnsBwBsDvY3NcdmhasUdmlInoiRon/TzL43S1kAwMxeBHAXRubyWpLLpcqG+HwuA/BRkk8AuAUjU/6rM5ADZnag+X8IwPcx+gEc+nOZqmz7JIZU9vsAnN+MtK4B8HEAtw/Yf8ztGJXABjqUwp4GjgqH3Qxgr5l9aVaykFxPcm2zfQpG4wZ7MVL6jw0lh5ndaGabzOxcjL4P/25mnxpaDpKnkTxjeRvAhwA8hIE/FzN7BsDTJC9oDi2XbS8jR98DH9FAw4cB/BIj//BvBuz3WwAOAngTo1/P7Rj5hnsAPAbg3wCsG0CO92Nkgv0MwIPN34eHlgXAHwB4oJHjIQB/2xz/fQD3AtgH4NsAThrwM7ocwB2zkKPp76fN38PL380ZfUe2AlhqPpt/BXBWKTmUQSdEJWiATohKkLILUQlSdiEqQcouRCVI2YWoBCm7EJUgZReiEqTsQlTC/wLggfvLLEw3bAAAAABJRU5ErkJggg==;" parent="1" vertex="1">
                    <mxGeometry x="80" y="930" width="258" height="258" as="geometry"/>
                </mxCell>
                <mxCell id="48" value="" style="shape=image;verticalLabelPosition=bottom;labelBackgroundColor=#ffffff;verticalAlign=top;aspect=fixed;imageAspect=0;image=data:image/png,iVBORw0KGgoAAAANSUhEUgAAAPsAAAD7CAYAAACscuKmAAAAOXRFWHRTb2Z0d2FyZQBNYXRwbG90bGliIHZlcnNpb24zLjMuNCwgaHR0cHM6Ly9tYXRwbG90bGliLm9yZy8QVMy6AAAACXBIWXMAAAsTAAALEwEAmpwYAAAXXklEQVR4nO2dbaxlZXXHf4t54V0GmNtxwmCHRqLhQx3MFTEag1AMVSNfDPElzbSZZL7YBlMbgTZptGkT/OLLh8ZkUqzzwQr41iHEqHQKaZo0yKWgAiMy0jHMZOBekBFEBQZWP5x9J8/ZOXvf5+zz7Jdzn/8vubl772ef51lnn7POs9Zea6/H3B0hxPrntL4FEEJ0g5RdiEyQsguRCVJ2ITJByi5EJkjZhciEmZTdzK4zs8fN7LCZ3ZxKKCFEeqxpnN3MNgA/B64FjgIPAB9z98fSiSeESMXGGV57BXDY3Z8EMLPbgeuBSmXfunWr79y5c4YhhRB1HDlyhGeffdYmtc2i7BcBTwX7R4F31r1g586dLC0tTT1QX1l+deOaTbyenRB7PbqUMZdMzPI1bXKN27xW73jHOyrbWr9BZ2Z7zWzJzJZWVlbaHk4IUcEsyn4MuDjY31EcG8Pd97n7orsvLiwszDCcEGIWZlH2B4BLzewSM9sMfBS4K41YQojUNPbZ3f2kmf0l8ANgA/BVd380mWRCiKTMcoMOd/8e8L1EsgghWmQmZe+K8I5nLnd95wF9FvOF0mWFyAQpuxCZMBdmfF+UEyZyNFtzfM9lhpY40xTN7EJkgpRdiEyQsguRCXPns9f5T237SbG+W+oHaJq+r6ZyDNHfHCrzdK00swuRCVJ2ITJh7sz4OvrKtJtmrKE8I9/k+qSQvetwZpPvRJ+1CtpEM7sQmSBlFyIT1pUZP+8M5c5uChO/yhTu+j0O5ZqG9OXKaWYXIhOk7EJkgpRdiEyQz96QIfqC0K5csX55+dymfmiKPmYdt+ux20QzuxCZIGUXIhPWlRk/VNN6VlK8rzauTWwIKbX8XZvVTUJlKR5eSv0+NbMLkQlSdiEyQcouRCasK5+9bYbqOzcZq+0nwNrsv+k1bMPX7zLUOStrzuxm9lUzWzazR4JjF5jZPWb2RPH//KRSCSGSE2PGfw24rnTsZuCgu18KHCz2hRADZk0z3t3/y8x2lg5fD1xVbO8H7gNuSilYX6Q2ndo222P7b6OOXUgb5n5qs7vP8N0QaHqDbpu7Hy+2nwa2JZJHCNESM9+N99HPZeXPs5ntNbMlM1taWVmZdTghREOa3o1/xsy2u/txM9sOLFed6O77gH0Ai4uL6zPFrYamNdfaNrtTm+dt3CFP7QLFZvW1YeIPYQmppjP7XcDuYns3cCCNOEKItogJvX0D+B/gLWZ21Mz2ALcC15rZE8CfFPtCiAETczf+YxVN1ySWRQjRIp1n0MX4ITmGRaahbb+/SR9tZ9qlHmuaewVNa+LPSuoa+8qNFyITpOxCZMK6ehCmScGEIRW8qJIlxQMtbT880uXDKSnGmib0tl4y7zSzC5EJUnYhMkHKLkQmDNJnbxr6GJL/PSuxfvpQ0m+HsmRz27Xsu2Qo6bJCiDlDyi5EJgzSjC+TeimhLuWYJmwWG3pLYeJ3aT7XhbxSZ6cNZemmIbqUmtmFyAQpuxCZMBdmfMhQ7j6n6L+pOd7kdU37iKVsLof7Vdvlser6aBoVqOp/KOZ+HbobL4RohJRdiEyQsguRCXPns9fRZagplmnGjfW36/qvet3rr78eLVeXPvt6Cr0N/UlLzexCZIKUXYhMWFdmfF+kMNXr2mLPg3FzPdaMnyYsV8Vpp43PG1Wme+x5k86NIfZBm65DbUPIqNPMLkQmSNmFyAQpuxCZkI3P3iT1so4Uqa5NffYqv7zcVrUN8Nprr1X2EUusv13ns4f7dT563VixMtYRW4AyxVN7XRbnDIlZ/uliM7vXzB4zs0fN7Mbi+AVmdo+ZPVH8P38mSYQQrRJjxp8EPu3ulwFXAp80s8uAm4GD7n4pcLDYF0IMlJi13o4Dx4vtF83sEHARcD1wVXHafuA+4KZWpExM6gIYKUz1urayCV5nnof7oakebpf3U5iVseb5NNejaqymIbqmyzTXPZnXJLTX1xN2U92gM7OdwOXA/cC24ocA4GlgW1rRhBApiVZ2MzsH+DbwKXd/IWzz0c/bxJ84M9trZktmtrSysjKTsEKI5kQpu5ltYqToX3f37xSHnzGz7UX7dmB50mvdfZ+7L7r74sLCQgqZhRANWNNnt5GDcRtwyN2/EDTdBewGbi3+H2hFwhqGkIII9X5o0zTVuj5Cf7uuLdw+efJkdB9Nwkl1PvuGDRsqzwvbpuk/JHVt+7rwWmzobYiVcGLi7O8G/gz4qZk9XBz7W0ZKfqeZ7QF+CdzQioRCiCTE3I3/b6DqZ+matOIIIdpirjPo2l5KqI62M+iqQmjl/bq20HQvm/HhfrmPWMLrXzbHw/2qbWi2lFXZpA+vVd1TdVXjlpmmKOY8LSml3HghMkHKLkQmzLUZ3wZNarM1rcled6e+zlSvM8HDtldffXXidnm/3EfsAzlVd9wBNm7cuOY2jF+DTZs2jbXFmsWxGXqxfbdxJ30I5r5mdiEyQcouRCZI2YXIhHXlszcpENC0fnrT/ut84Njst7qQWuiLv/LKKxOPl/fLfcQWwAh95bK/He6HfvrmzZupIrb2fB0pwrFN/flYv7zp03ezopldiEyQsguRCevKjE9Bk8y4pnXjY4tSxIbXoNp0f/nllyvPq3tIJvaBmbJ5Hu6H29OYsE3q05XPS/GQTJOwWdPwXZshOs3sQmSClF2ITJCyC5EJ68pnb3vJ3Cb9t/HUW2zo7fe///3E7fJ+6L+X+6wLAYb+8emnnz7WdsYZZ0zcLvv9Vf1B9dNydb59bCGOaUJ0Q3+aLRbN7EJkgpRdiEyYazO+acgrto82suRSm/FlEzwMsf3ud787tf3SSy+Nnffb3/721HbZxI/NwgvN57POOmus7eyzz574urpCGWUzPsy8qzPj64pXVIWyUj3ZliJU1pWboJldiEyQsguRCXNnxrd9x71tOVKb8WXTOjTjQ1O9bMa/+OKLE88r91HlFsC4mX3uueeOtdU9aBMSmt3lwhZh5l3YVle2OvZ6N60zVyb2bn9sW5toZhciE6TsQmSClF2ITJgLnz21n57an+8z9Fbns4c+9m9+85ux81544YXKtvB1Vdsw7keX5QjlD33Usl9eV9gizLwLr0G5uGU4VtN6/m2E5WJpUnSlCWvO7GZ2hpn9yMx+bGaPmtnniuOXmNn9ZnbYzO4ws+oSJEKI3okx418Grnb3twG7gOvM7Erg88AX3f3NwPPAntakFELMTMxabw6s2nmbij8HrgY+XhzfD3wW+EoKodowZYYSsmsydt1KreWwVpjxFmbGlcNrYegtNOlh3KwPt8vhu9CcLrsaVYUtQtMc6kN0VYUzmq6Mu14eaGlK7PrsG4oVXJeBe4BfACfcffXTOQpc1IqEQogkRCm7u7/m7ruAHcAVwFtjBzCzvWa2ZGZLKysrzaQUQszMVKE3dz8B3Au8C9hiZqtuwA7gWMVr9rn7orsvLiwszCKrEGIG1vTZzWwBeNXdT5jZmcC1jG7O3Qt8BLgd2A0caFPQSXTtXzctMjnrWHVtdf58VeosjPvsJ06cGGsL93/961+f2i779lVPpcG4b37eeedNlK+8H1uAc5q19fpimvBdV/LHxNm3A/vNbAMjS+BOd7/bzB4DbjezfwQeAm5rUU4hxIzE3I3/CXD5hONPMvLfhRBzwFxk0KWgKkup7eIV01Bl6tWFmsptVYUtytlvYRitbMb/6le/OrX93HPPTdyG8bpzZ5555lhb+BRcKEesqV7eT/2Z5Yhy44XIBCm7EJmQjRmfgqGYiHWmb2jG192ND++sl8340FxfXl6euA3Vd9wBtm7demo7NOO7vhvf5WfWZbZek/elmV2ITJCyC5EJUnYhMmGQPvs0Bf9Sk2KsFP5abMHCuuKLdUseh9lv5YISVcsulc/btGnTxPPK54ZtdfKW33O4P/Sa7NPQdXGMVTSzC5EJUnYhMmGQZnwsKR4umKaPJrXCpjFNq8zuurpt5bYwqy1ckqlc1z3MqCsXjQj7DDPjyuG1cKwdO3aMtV144YWnts8555xT2+XiFVW14aF6yac2zP15o8n71MwuRCZI2YXIBCm7EJkwFz57lX8yzRpcsUv3NqHp2mB1vmfos9eFtcLwF4z70eGyyW94wxvGzgsLPZbDYVV+erm+fDj2G9/4xrG2MF029NlD+WDcZy+/l6qQXVneXPz0WdHMLkQmSNmFyIS5MOOr6DPTLna5oGnCRFVtZTM+3K8z48PQW9mMD58iK/cRnhs+sRY+RQfj7kQ5LLdly5ZT27FmfDn0VmW6p7imOaKZXYhMkLILkQlzbcYPhdg7/2u9LvZufGh2lws+VJnx5aIRVa+B8Yy6uqWmQrnCO//lscO2ugy6sjuR+mGamOPrGc3sQmSClF2ITJCyC5EJ8tlriPXrpilGkCKDLvRty2OHPnadnx72X/ajq3z2cn9hH+W68WGfYVt5rHA/9N+h2mcvX4/Y7Lr15Ke3+tRbsWzzQ2Z2d7F/iZndb2aHzewOM9u8Vh9CiP6Yxoy/ETgU7H8e+KK7vxl4HtiTUjAhRFqizHgz2wF8EPgn4K9tZENcDXy8OGU/8FngKy3IWEnTeuGxD6qkKIBRd26KB2HKVC2TVFeDLsySg3Ezvq5GfShvXWZcuF0+L9yPNeNT1LHr2qSvC8c2DdVOS+zM/iXgM8Dqp30hcMLdV78VR4GLZpJECNEqayq7mX0IWHb3B5sMYGZ7zWzJzJZWVlaadCGESEDMzP5u4MNmdgS4nZH5/mVgi5mt2lk7gGOTXuzu+9x90d0XFxYWEogshGhCzPrstwC3AJjZVcDfuPsnzOybwEcY/QDsBg60J2Y/pPDryn5/2d+MeV2dj14XagrbyqmooX9cToOt8tPLobdwrLpU17CtrvZ8uY+quvRthN7WU1iuilmSam5idLPuMCMf/rY0Igkh2mCqpBp3vw+4r9h+ErgivUhCiDZQBl3LTBNmqTLBy65AaAo3XSYq7KNsnleZ8XWhtzrTuiqEVm6LXYZqGlO9yVNv69WkV268EJkgZRciE7I041OUkm5jVdFYMz4FYf9lMz4cLzTd6+SoM+PrTPA6Ez+2lHRdBl1Iira2+28TzexCZIKUXYhMkLILkQnr1mePrSnfdOmmNnz90PcMfeW6rLtYf69ueeiyr1z15Nw09fGrfOzye4nNjIsNvZVJEXpL4c/H9tfkvFg0swuRCVJ2ITJhrs34NpZ/Sr3Ca13/dcSa7nVZbXUZdKFZXH6fdaZ7jEzl8erkqGuLdQVSh8ZSmfhtntcEzexCZIKUXYhMkLILkQlz7bNPQ9u+eNVYZWKLC4aUfdS6PkIfvs63j02DbeqzxxZ6jC0WmWLJ5lh51zo3hiGkx5bRzC5EJkjZhciEuTbj2zbH26DOnUhh3sVm4cW6NanN+DIpar53GdYa+pNtdWhmFyITpOxCZMJcm/FDYZo6c03uxjelrgBGCtM9pGl2WtO2Jn3EMs1rmjxo0xea2YXIBCm7EJkgZRciE+bOZ5/HcFtI6vBP7BNrqX30shxNz+vyibXY/tomNsMyNbHrsx8BXgReA066+6KZXQDcAewEjgA3uPvz7YgphJiVacz497n7LndfLPZvBg66+6XAwWJfCDFQZjHjrweuKrb3M1oD7qYZ5emE1LXkpsmEa5qRNqtcfZrxsa/psyb7EPtIbdLHzuwO/NDMHjSzvcWxbe5+vNh+GtiWVDIhRFJiZ/b3uPsxM/sD4B4z+1nY6O5uZhN/hoofh70Ab3rTm2YSVgjRnKiZ3d2PFf+Xge8yWqr5GTPbDlD8X6547T53X3T3xYWFhTRSCyGmZs2Z3czOBk5z9xeL7fcD/wDcBewGbi3+H2hT0ECeyrbUPk7btee7pM+03To5+mxL3cfQiTHjtwHfLd7wRuDf3P37ZvYAcKeZ7QF+CdzQnphCiFlZU9nd/UngbROOPwdc04ZQQoj0zF0GXR1NwhYpTPBURShi3YRYYsODfdbka/K6oZr7Q0e58UJkgpRdiEyQsguRCevKZw+Zxheve11MH6nCgbH+YJOwWdPQW+r189roI8WTc03Oa5um3+EqNLMLkQlSdiEyYd2a8W0QG3qLec20/TTtcwikljdFQchZ+uyLWWXUzC5EJkjZhcgEmfEJ6PpufNP+Y8equlPf1F1pEmVoo/8+6evBoxDN7EJkgpRdiEyQsguRCevWZ28786vNjLxpSOEP1/UZ62s2bRuCL9u1HH2FWDWzC5EJUnYhMmHdmvFNSZ1xNU04qc0iEk0z+bosPFEnR9M+mpCqGMnQ0MwuRCZI2YXIBCm7EJkgn71l+qwpnzqVdhrZU6xtlnotuXkj9b0DzexCZIKUXYhMWLdm/FDNub7qtQ+lltw0/XeZaTbU70tIJzXozGyLmX3LzH5mZofM7F1mdoGZ3WNmTxT/z59JEiFEq8Sa8V8Gvu/ub2W0FNQh4GbgoLtfChws9oUQAyVmFdfzgPcCfw7g7q8Ar5jZ9cBVxWn7gfuAm9oQsi/avnPeZwZd2yvexrZ1fY1zJmZmvwRYAf7VzB4ys38plm7e5u7Hi3OeZrTaqxBioMQo+0bg7cBX3P1y4CVKJruPfp4n/kSb2V4zWzKzpZWVlVnlFUI0JEbZjwJH3f3+Yv9bjJT/GTPbDlD8X570Ynff5+6L7r64sLCQQmYhRANi1md/2syeMrO3uPvjjNZkf6z42w3cWvw/0KqkU9J20Yg2ih20UYhi1rHa7n/ewoNN6fKzrSI2zv5XwNfNbDPwJPAXjKyCO81sD/BL4IZ2RBRCpCBK2d39YWBxQtM1SaURQrTGXGfQpSis0HYWm4inzwy61Azxu6nceCEyQcouRCZI2YXIBCm7EJkgZRciE6TsQmSCdRl6MrMVRgk4W4FnOxt4MkOQASRHGckxzrRy/KG7T8xL71TZTw1qtuTuk5J0spJBckiOLuWQGS9EJkjZhciEvpR9X0/jhgxBBpAcZSTHOMnk6MVnF0J0j8x4ITKhU2U3s+vM7HEzO2xmnVWjNbOvmtmymT0SHOu8FLaZXWxm95rZY2b2qJnd2IcsZnaGmf3IzH5cyPG54vglZnZ/8fncUdQvaB0z21DUN7y7LznM7IiZ/dTMHjazpeJYH9+R1sq2d6bsZrYB+GfgT4HLgI+Z2WUdDf814LrSsT5KYZ8EPu3ulwFXAp8srkHXsrwMXO3ubwN2AdeZ2ZXA54EvuvubgeeBPS3LscqNjMqTr9KXHO9z911BqKuP70h7ZdvdvZM/4F3AD4L9W4BbOhx/J/BIsP84sL3Y3g483pUsgQwHgGv7lAU4C/hf4J2Mkjc2Tvq8Whx/R/EFvhq4G7Ce5DgCbC0d6/RzAc4D/o/iXlpqObo04y8Cngr2jxbH+qLXUthmthO4HLi/D1kK0/lhRoVC7wF+AZxw95PFKV19Pl8CPgO8Xuxf2JMcDvzQzB40s73Fsa4/l1bLtusGHfWlsNvAzM4Bvg18yt1f6EMWd3/N3XcxmlmvAN7a9phlzOxDwLK7P9j12BN4j7u/nZGb+Ukze2/Y2NHnMlPZ9rXoUtmPARcH+zuKY30RVQo7NWa2iZGif93dv9OnLADufgK4l5G5vMXMVkuVdfH5vBv4sJkdAW5nZMp/uQc5cPdjxf9l4LuMfgC7/lxmKtu+Fl0q+wPApcWd1s3AR4G7Ohy/zF2MSmBDR6WwbVRg7DbgkLt/oS9ZzGzBzLYU22cyum9wiJHSf6QrOdz9Fnff4e47GX0f/tPdP9G1HGZ2tpmdu7oNvB94hI4/F3d/GnjKzN5SHFot255GjrZvfJRuNHwA+Dkj//DvOhz3G8Bx4FVGv557GPmGB4EngP8ALuhAjvcwMsF+Ajxc/H2ga1mAPwYeKuR4BPj74vgfAT8CDgPfBE7v8DO6Cri7DzmK8X5c/D26+t3s6TuyC1gqPpt/B85PJYcy6ITIBN2gEyITpOxCZIKUXYhMkLILkQlSdiEyQcouRCZI2YXIBCm7EJnw//R5NeUDFcyYAAAAAElFTkSuQmCC;" parent="1" vertex="1">
                    <mxGeometry x="951" y="930" width="258" height="258" as="geometry"/>
                </mxCell>
                <mxCell id="49" value="" style="shape=image;verticalLabelPosition=bottom;labelBackgroundColor=#ffffff;verticalAlign=top;aspect=fixed;imageAspect=0;image=data:image/png,iVBORw0KGgoAAAANSUhEUgAAAPsAAAD7CAYAAACscuKmAAAAOXRFWHRTb2Z0d2FyZQBNYXRwbG90bGliIHZlcnNpb24zLjMuNCwgaHR0cHM6Ly9tYXRwbG90bGliLm9yZy8QVMy6AAAACXBIWXMAAAsTAAALEwEAmpwYAAAYKUlEQVR4nO2dXaxdxXXH///4A2wg2Oa6loOJoQoC8dCYcEUcEUUESkTTKPQhQvlQ5VaW/EIroqYK0EpVIrUSeQnJQxXJKmn8kAbIV41QlIS6oKpS+bgUkgAOwXGxsGW4vsgO4dvGqw9n36s5W2fvO2fOzOx9PP+fdHX35+x19j7r7LVmrVlDM4MQ4sznPV0LIITIg5RdiEKQsgtRCFJ2IQpByi5EIUjZhSiEiZSd5I0knyN5gOTtsYQSQsSHoXF2kisA/AbADQAOA3gcwOfM7Nl44gkhYrFygnOvBnDAzA4CAMl7ANwEoFHZZ2ZmbOvWrRNcMg7uD9zp06eH9rnr9X0hP4wkG9ff855hw2rFihWN501KaHs5k65ifOYJXl7R2/RtP+Z1Dx06hIWFhZEXm0TZLwTworN+GMCH207YunUrHnnkkQkuGX7j3fNOnTq1tPzGG28MHffmm2+OXAaAkydPjmyvLpO7vmrVqqF9a9asWVpeu3bt0D53ffXq1SM+xQD3i9P2Y+KzfTna7ndsJaj/+DXJ3Ha/cyt70z7f59JG2+dsYvv27Y37knfQkdxFco7k3MLCQurLCSEamETZjwC4yFnfUm0bwsx2m9msmc3OzMxMcDkhxCRMouyPA7iU5CUkVwP4LID744glhIhNsM9uZqdI/hWAnwFYAeDbZvZMNMmEEFGZpIMOZvYTAD+JJIsQIiETKfs00dQb2hb+Wrly+PY09fq29ZLW23Db9+19jh2G65IYIa4YvfF1OboKr+VsX+myQhSClF2IQijGjHdxzWfXrAaGk2DqGXTusb5mX719N1mmbuLXzfom+mjW+8o0juxN97i+3X1ObSZ+SDJS6L4YzyikjbZz9GYXohCk7EIUgpRdiELI7rP7+CFt/rB7fv04Xx/H9Y3bwmt16j78uNeqX69+7TafsolQXzMGOa8dOlKxSaY2n32cz5Wz/0ShNyGEF1J2IQphqkNv45g1TWZaPTTmUjfBXRPR19SrH9cW9msKvYV+zpykHr/dZqr7Fhxx72/bc6kT4lKNMwbeN3wnM14I4YWUXYhCmGozvg1fM3sc860pG6vtvHF6fWP0wPvK2EbsunOxSz6NMxCmaV+fshBzyaU3uxCFIGUXohCk7EIUQnafPUbt9ZSk9qlD5Kjj6+PlrPmegqZQVoyQq+854+BbRCM083NS9GYXohCk7EIUwhkbeqvjO3OHi28xCd+BO7nJGUILlaOr2m+hLlqMGYlitBnymfVmF6IQpOxCFIKUXYhC6GXoLbQoQmz/L3Vt8RQjxSY9rk4MPz1n8cUui3nE8Ms7TZcl+W2S8ySfdrZtIPkgyeer/+uTSSiEiIKPGf8dADfWtt0OYJ+ZXQpgX7UuhOgxy5rxZvZfJC+ubb4JwLXV8h4ADwO4LaZgIfgWD2g6p06KTKecbUx7Bl0TMerHhbZRJ+R71va9SvnMQjvoNpnZ0Wr5JQCbIskjhEjExL3xNvgpavw5IrmL5BzJuYWFhUkvJ4QIJLQ3/mWSm83sKMnNAOabDjSz3QB2A8BVV101sY3S1ssbWoLatw2ftic5NvZ0P750NTAjlLb6cbnNeF9CCp/4tudL6Jv9fgA7quUdAPYGtiOEyIRP6O17AP4HwGUkD5PcCeBOADeQfB7AH1frQoge49Mb/7mGXddHlkUIkZCpGPXW5O/EyApLMeoqts83jo8XUtgihY+a0u9PUVQkdXHOFH0r4x6j3HghCkHKLkQh9NKM980w6nJgQ1u4J7VcqcNETfQlRJc7bOYS4x74hoxjh4j1ZheiEKTsQhSClF2IQuilz546FJQzXBKj2EZoOm6XBSdD+lba5mlLneqaeoSgb9ivj6PehBBThpRdiELIbsZPahp3WfwhVxbUOHL4hmf6Mh1RXwpqpK5l39Zmyoy/1nkQvK4qhJh6pOxCFMIZ2xsf2kaIiZV7JtUYWYS+Zmzqnu6cZn1f5Gij01LSQogzAym7EIUgZReiEKYu9Ba77dS+/TiETCsdGnrLOc10X/xhl3Huhy+pQ7qTPhe92YUoBCm7EIXQy9Bbnb4USYhN6AysuUN9PqQIa8We1TbF/Y5BroIserMLUQhSdiEKQcouRCFMhc8emy5DSyF+4zhz2oXKFdJGl3PmNV0rtJhjSPpwClKm9PpM/3QRyYdIPkvyGZK3Vts3kHyQ5PPV//UTSSKESIqPGX8KwJfM7AoA2wHcQvIKALcD2GdmlwLYV60LIXqKz1xvRwEcrZZ/T3I/gAsB3ATg2uqwPQAeBnCbR3sjt+fKIhqH0OmTQs2tkPrhoYSE71KY9G79/TZiTGXcZTGPXCHRaNM/kbwYwJUAHgWwqfohAICXAGwKlE8IkQFvZSd5LoAfAviimb3q7rPBz8nInxSSu0jOkZxbWFiYSFghRDheyk5yFQaK/l0z+1G1+WWSm6v9mwHMjzrXzHab2ayZzc7MzMSQWQgRwLI+OwcOy90A9pvZ151d9wPYAeDO6v/eSQSJUZAv9silGH5i6Hld1nxvIjRc5du/EWPOvJyhwlA5Upzng0+c/RoAfw7gVySfqrb9HQZKfh/JnQAOAbg5iYRCiCj49Mb/N4Cmn9jr44ojhEjF1GXQdTUCLpRQ09f3nFA5fI9NbRb7FtiIUcDDl9Dpttq298FNUG68EIUgZReiEHppxof2yrZNi+SbuRfb/EzRAxy7fd97NY68MerNNxEqR87j2s7LWf/PRW92IQpByi5EIUjZhSiE3vjsMWq+xyjq4BviieGztxHafmwZ245r88ubRrONE0LrYxZhjKzKrsLHerMLUQhSdiEKoTdmvC+hZlTsum1t5u3p06e92qjT9NnaPkv9Wk372mSMYcavWLGisY22fW1MWuik7djUpnSK2v4+4cy26+rNLkQhSNmFKAQpuxCFMHU+e2za/NC+Fi90/e26z/7uu++OXD516tTQce56vY2m9uufxQ2vrVq1amjf6tWrR+5buXL4K+e2WQ/XxS5GGaON1IUjlS4rhJgYKbsQhTB1ZnyMaXpy1ikbxyxrcg3awmt1mVzz/K233lpafvvtt4eOc/e98847Q/uazH93OzAcUlu7du3QvnPOOWfkvrPOOquxjbqJ75LapO9LzbiQWoy+6M0uRCFI2YUohOxmfB9qyIUUuWjbl6KH1ncQS93EbzLjX3vttaHj3PU333xzaJ9r1rvtnTx5cug41+w+//zzG+Voy/xye+p9B9PU8b3/bc89RsZbShM8BnqzC1EIUnYhCkHKLkQhTHXoLXT0k68PFjp6LRTfPoG2DDpfn/348eNLy6+//vrQPjdM1xa+c8No9bCce7/dbLq2EXD15+ke2+a/h2S/pSh84ntcb4tXkDyb5GMkf0HyGZJfrbZfQvJRkgdI3kty9XJtCSG6w8eMfxvAdWb2QQDbANxIcjuArwG4y8w+AOA4gJ3JpBRCTIzPXG8GYNEGXFX9GYDrAHy+2r4HwFcAfCu+iM3mV+pBCamJkclXP841p90Q2htvvDF0nGvWnzhxonFf0zIwbMbXB9q4ZndbBp17XN3E9y2w4dLHkFdf8J2ffUU1g+s8gAcB/BbACTNbfMKHAVyYREIhRBS8lN3M3jWzbQC2ALgawOW+FyC5i+QcybmFhYUwKYUQEzNW6M3MTgB4CMBHAKwjuegGbAFwpOGc3WY2a2azMzMzk8gqhJiAZX12khsBnDSzEyTXALgBg865hwB8BsA9AHYA2OvRVi98Kl8Z6uGenOmyvrSl0rp+dH1km+vDv/rqq0P7jh07trT8yiuvLC3XLTPX/66HAN1wm5tKWx8d1zbqzddnD5lHLUVRkdD2YsyZ4INPnH0zgD0kV2BgCdxnZg+QfBbAPST/EcCTAO4e++pCiGz49Mb/EsCVI7YfxMB/F0JMAVOdQVcnpykWmo0VYvKPc45r+rqj1OrZb+5It9/97ndD+1wz/vDhwyOXAeDss89eWq6H1FzTfdOmTUvL69atGzrOHfXmmv5Ac6Zgm3sV+sx8yVnvTsUrhBBBSNmFKIReFq+IUQ8sp5kW22yf5Hquuds0KAZoN+Pn5+eXlg8dOrS0fPDgwaHjXDO+XrzCNd3dgTZ1d8I13etZeE298ePMSBtjkEwIqb9/Ie3rzS5EIUjZhSgEKbsQhdDL0FtoYYG2c3ynuI2RqRWDtiKNbfvcsJSbkVYPa7mhMtf3ru9bs2bNyO319fr0T+61faYaHmdfH7IwJ6GrsJ/e7EIUgpRdiELoTegttVkcu/2QwRfjtNmWMeYOHqlf2zXX3SmY1q9fP3ScW+SiPojFlcMduFJvwzXdL7vssqF973vf+5aW3bBc3RVw5a0PhHE/Z6hbE0LqQTKhTPod1ptdiEKQsgtRCFJ2IQqhN6E338IC015k0qXN93T99Lb00HqRRtePdn32toKQ9bCZ66dfcMEFS8ubN28eOs71sV0fvb7+3ve+d2m5HuZr89ldGd3ltvuWgtRp2CHf7xA90JtdiEKQsgtRCL0MvcXIoItBCjl8Q0guvrXwgObQW70N15w+99xzh/Zt2LBhadk1x+vTRLnyuqY6AJx33nlLy27orc2Mr7sTXYXe2ogRlguVUaE3IYQXUnYhCqE3vfFiGN/BLnXcHm03W63ehmsy101r1/x369jVy1G7tA2ScZfrA3JcOeqRhaYe+HF64/uS/dYH9GYXohCk7EIUgpRdiELI7rP7hA/OpCy5UEKnKG4qXtEWMmobVedm3tVDY21ZeO5603JdxrrP3uSnp/DRfbPkYlw7NHyXrXhFNW3zkyQfqNYvIfkoyQMk7yW5erk2hBDdMY4ZfyuA/c761wDcZWYfAHAcwM6Yggkh4uJlxpPcAuBPAfwTgL/hwJ64DsDnq0P2APgKgG8lkDEruTOwQmiT0TWt62ax73Guae0WtqiH6Fza2nD3+R5XlzFneC138Yqm70RX0z99A8CXASw++QsAnDCzRYfuMIALo0omhIjKsspO8lMA5s3siZALkNxFco7knDthoBAiLz5v9msAfJrkCwDuwcB8/yaAdSQXbbAtAI6MOtnMdpvZrJnNbty4MYLIQogQfOZnvwPAHQBA8loAf2tmXyD5fQCfweAHYAeAvZMIknu+tD4SEv7xHQE2TtHKprnT2gpTtoUA2+QIKUoR6r+n+B51NZdcCJMk1dyGQWfdAQx8+LvjiCSESMFYSTVm9jCAh6vlgwCuji+SECIFUzfqLTSzrCu6LHbQZiK31bhrYpzP4muC96UoRU66qkuv3HghCkHKLkQh9NKM77L33bfXtMue3a5M2hhZbKFmfChNz6lPEZ6m71xsGfVmF6IQpOxCFIKUXYhC6KXPXqcpo6uO7xRSIdfNcZ5Ll/57yj6B0PCary+bOxMzdmZcytCy3uxCFIKUXYhCmAoz3iWGmRMa3ugqjJO7LnrIAJQ2Qk1dXzlimO6hIdeuwqCaxVUI0YiUXYhCkLILUQi9rBsf45xpJIb/l7KN1PLlDF2lvnYfC5fqzS5EIUjZhSiE3oTe2rLkUtcFn5RxQkFt54UQI+yU2rSOXYTCt2ZeqBwpZIz9HVYGnRCiESm7EIUwFb3xvvSlTllsE9HXNF3uWF9iD8KJUQTE11QPxdfEzxkZ6mr6JyHElCNlF6IQpOxCFEJWn93MismGy0WXGWO+7YdMkTQOMUJv9WmpmtpP0UfikvK5+M7P/gKA3wN4F8ApM5sluQHAvQAuBvACgJvN7HgaMYUQkzKOGf9xM9tmZrPV+u0A9pnZpQD2VetCiJ4yic9+E4A91fIeAH82sTQekGz8i8GiqzHqr0R873eKZ3Em0Yfvka+yG4Cfk3yC5K5q2yYzO1otvwRgU3TphBDR8O2g+6iZHSH5BwAeJPlrd6eZGcmRP1nVj8MuAHj/+98/kbBCiHC83uxmdqT6Pw/gxxhM1fwyyc0AUP2fbzh3t5nNmtnszMxMHKmFEGOzrLKTPIfkeYvLAD4B4GkA9wPYUR22A8DeVELW5An6ayKFX566X2HaaOsHSe3LNt17X5lGjbBLKXPK++Njxm8C8OPqZq0E8G9m9lOSjwO4j+ROAIcA3DyxNEKIZCyr7GZ2EMAHR2x/BcD1KYQSQsSnN8Ur2jiTildMsynf5WiwPtZ0y82kMio3XohCkLILUQhSdiEKoZc+e4xKL9Pgg9VJWXe8y36EnAU4fUld7SYGsWXUm12IQpCyC1EIvTTj68SYurfpvGkw52KQW6a+FGaMPWXzNKM3uxCFIGUXohCmwox3Ca1V3mTOjWOyNZl640zBFCPSELv2fM426oR8ltQZi315ZrHr3enNLkQhSNmFKAQpuxCF0BufPWcd8xi11mNMlRxy3XH2+YaTfD9L7OmbxXhMeu/0ZheiEKTsQhRCVjPetw5bqLnia2b3ZeBHG76me+hnCZnSKPdUUyGuV2i4yvd+pAy1pUZvdiEKQcouRCFI2YUohN6E3mKQeqRV09TAqX3ZPvp/OYjd9zHtRTEnRW92IQpByi5EIfTSjG8bdRRqioWEYHyPizlt1KjlcfANm+UsLhHbzcldX7DtuaSUMcZoOxevNzvJdSR/QPLXJPeT/AjJDSQfJPl89X/92FcXQmTD14z/JoCfmtnlGEwFtR/A7QD2mdmlAPZV60KInrKsGU/yfAAfA/AXAGBm7wB4h+RNAK6tDtsD4GEAt6UQ0pcYpnoK87wJX5Owjb58ljZCsxlDZPbNfst9P3yfRWzT3cXnzX4JgGMA/pXkkyT/pZq6eZOZHa2OeQmD2V6FED3FR9lXAvgQgG+Z2ZUAXkfNZLfBT9XInyuSu0jOkZw7duzYpPIKIQLxUfbDAA6b2aPV+g8wUP6XSW4GgOr//KiTzWy3mc2a2ezGjRtjyCyECMBnfvaXSL5I8jIzew6DOdmfrf52ALiz+r/Xo62gwo8h/lUMX7YtXBWa/RZy3jifP/SzNV07lNihzpwj50Lbd0lx7yd9Lr5x9r8G8F2SqwEcBPCXGFgF95HcCeAQgJsnkkQIkRQvZTezpwDMjth1fVRphBDJ6GUGXZeEmMGxBkCETHOVwjRt+mwx6pjHCMN1OeAkRmZjjO9Vsgw6IcT0I2UXohCk7EIUgpRdiEKQsgtRCFJ2IQqBOUf/kDyGQQLODICFbBceTR9kACRHHckxzLhybDWzkXnpWZV96aLknJmNStIpSgbJITlyyiEzXohCkLILUQhdKfvujq7r0gcZAMlRR3IME02OTnx2IUR+ZMYLUQhZlZ3kjSSfI3mAZLZqtCS/TXKe5NPOtuylsEleRPIhks+SfIbkrV3IQvJsko+R/EUlx1er7ZeQfLR6PvdW9QuSQ3JFVd/wga7kIPkCyV+RfIrkXLWti+9IsrLt2ZSd5AoA/wzgTwBcAeBzJK/IdPnvALixtq2LUtinAHzJzK4AsB3ALdU9yC3L2wCuM7MPAtgG4EaS2wF8DcBdZvYBAMcB7EwsxyK3YlCefJGu5Pi4mW1zQl1dfEfSlW1fLBWV+g/ARwD8zFm/A8AdGa9/MYCnnfXnAGyuljcDeC6XLI4MewHc0KUsANYC+F8AH8YgeWPlqOeV8Ppbqi/wdQAeAMCO5HgBwExtW9bnAuB8AP+Hqi8tthw5zfgLAbzorB+utnVFp6WwSV4M4EoAj3YhS2U6P4VBodAHAfwWwAkzO1Udkuv5fAPAlwGcrtYv6EgOA/Bzkk+Q3FVty/1ckpZtVwcd2kthp4DkuQB+COCLZvZqF7KY2btmtg2DN+vVAC5Pfc06JD8FYN7Mnsh97RF81Mw+hIGbeQvJj7k7Mz2Xicq2L0dOZT8C4CJnfUu1rSu8SmHHhuQqDBT9u2b2oy5lAQAzOwHgIQzM5XUkF0uV5Xg+1wD4NMkXANyDgSn/zQ7kgJkdqf7PA/gxBj+AuZ/LRGXblyOnsj8O4NKqp3U1gM8CuD/j9evcj0EJbMCzFPakcFA47G4A+83s613JQnIjyXXV8hoM+g32Y6D0n8klh5ndYWZbzOxiDL4P/2lmX8gtB8lzSJ63uAzgEwCeRubnYmYvAXiR5GXVpsWy7XHkSN3xUeto+CSA32DgH/59xut+D8BRACcx+PXciYFvuA/A8wD+A8CGDHJ8FAMT7JcAnqr+PplbFgB/BODJSo6nAfxDtf0PATwG4ACA7wM4K+MzuhbAA13IUV3vF9XfM4vfzY6+I9sAzFXP5t8BrI8lhzLohCgEddAJUQhSdiEKQcouRCFI2YUoBCm7EIUgZReiEKTsQhSClF2IQvh/yX5e9/CLGzkAAAAASUVORK5CYII=;" parent="1" vertex="1">
                    <mxGeometry x="700" y="930" width="258" height="258" as="geometry"/>
                </mxCell>
                <mxCell id="50" value="&lt;span style=&quot;color: rgb(101, 71, 53); font-family: &amp;quot;droid sans mono&amp;quot;, monospace, monospace, &amp;quot;droid sans fallback&amp;quot;; font-size: 14px;&quot;&gt;587727180596969574&lt;/span&gt;" style="text;html=1;strokeColor=none;fillColor=none;align=center;verticalAlign=middle;whiteSpace=wrap;rounded=0;fontStyle=1" parent="1" vertex="1">
                    <mxGeometry x="150" y="1181" width="130" height="20" as="geometry"/>
                </mxCell>
                <mxCell id="51" value="&lt;span style=&quot;color: rgb(101, 71, 53); font-family: &amp;quot;droid sans mono&amp;quot;, monospace, monospace, &amp;quot;droid sans fallback&amp;quot;; font-size: 14px;&quot;&gt;587731187814563977&lt;/span&gt;" style="text;html=1;strokeColor=none;fillColor=none;align=center;verticalAlign=middle;whiteSpace=wrap;rounded=0;fontStyle=1" parent="1" vertex="1">
                    <mxGeometry x="400" y="1181" width="130" height="20" as="geometry"/>
                </mxCell>
                <mxCell id="52" value="&lt;span style=&quot;color: rgb(101, 71, 53); font-family: &amp;quot;droid sans mono&amp;quot;, monospace, monospace, &amp;quot;droid sans fallback&amp;quot;; font-size: 14px;&quot;&gt;587727220876705819&lt;/span&gt;" style="text;html=1;strokeColor=none;fillColor=none;align=center;verticalAlign=middle;whiteSpace=wrap;rounded=0;fontStyle=1" parent="1" vertex="1">
                    <mxGeometry x="770" y="1181" width="130" height="20" as="geometry"/>
                </mxCell>
                <mxCell id="53" value="&lt;span style=&quot;color: rgb(101, 71, 53); font-family: &amp;quot;droid sans mono&amp;quot;, monospace, monospace, &amp;quot;droid sans fallback&amp;quot;; font-size: 14px;&quot;&gt;587731187277758607&lt;/span&gt;" style="text;html=1;strokeColor=none;fillColor=none;align=center;verticalAlign=middle;whiteSpace=wrap;rounded=0;fontStyle=1" parent="1" vertex="1">
                    <mxGeometry x="1027" y="1181" width="130" height="20" as="geometry"/>
                </mxCell>
                <mxCell id="54" value="" style="shape=image;verticalLabelPosition=bottom;labelBackgroundColor=#ffffff;verticalAlign=top;aspect=fixed;imageAspect=0;image=data:image/png,iVBORw0KGgoAAAANSUhEUgAAAPsAAAD7CAYAAACscuKmAAAAOXRFWHRTb2Z0d2FyZQBNYXRwbG90bGliIHZlcnNpb24zLjMuNCwgaHR0cHM6Ly9tYXRwbG90bGliLm9yZy8QVMy6AAAACXBIWXMAAAsTAAALEwEAmpwYAAAb30lEQVR4nO2dW8xdxXXH/398wZcAvnypY2FkqIIS8VAMsghRooiYEtE0Ci8RykWVW1nyS1oRNVWAVqqSqpXISy4PVSSrpPFDGiC3GqEoCXVBVaXK4aOQBHAIDiWyLRtfYsfgBIyd1Yezvy9zRmfPWXvO7H2O2f+f9Onbe8/smXUuc/Zas9asoZlBCPHm55JpCyCE6AYNdiF6gga7ED1Bg12InqDBLkRP0GAXoidMNNhJ3k7yeZIHSN5TSighRHmY62cnuQTAzwHcBuAQgCcAfMzMnisnnhCiFEsnuPcmAAfM7EUAIPkAgDsA1A72ubk527x58wRd+pnVYKG25ZrF150rU3jf7373u8XjCxcuDNVLlYVthMckh+qF53HZJZdcMvJ4XFkOKTni81EcPHgQJ0+eHFlxksF+JYCDwfkhAO9K3bB582bs27dvgi7rPzxg+EOPy+q+OG2Q+nKn5M+p16TvSUm9p6m64fudeu/j9s6fP794fPbs2cXjV199dajemTNnRtYDgNdee23xOPwhiAfmsmXLFo9XrFgxVLZq1arF49WrVw+VrVy5cuR98cBMfZ5LlixZPF669PdDMpQpLgvvCdm2bdvI60AHE3Qkd5KcJzl/4sSJtrsTQtQwyWA/DOCq4HxTdW0IM9tlZlvNbOvc3NwE3U2GmS3+TavfcX3nyNik/RxyZM+VPxeSi38l6r1ZmWSwPwHgWpLXkFwO4KMAHi4jlhCiNNk2u5mdJ/mXAH4AYAmAr5rZs8UkE0IUZZIJOpjZ9wB8r5AsQogWmWiwl8Rrs+XMZpciR8ZUmXd2u4TrqgQpeUt7IMbVDQlt8HiWvW7WOlUvLvPa+CnXXqq9lLutrv2cz1bhskL0BA12IXrCzKjxKbzqbQk1u8R9pdXWabgLJ61X9x7kml4pVT08j9X28Dw3Si4lozdgKMfdl2s21aEnuxA9QYNdiJ6gwS5ET+jcZvfYGrl2XdturRI2exuLX9ok134vYbPX1Y3t37qFJMDw4pfQpk61kXK9eRdYpWz0Eq69eH7A04ae7EL0BA12IXrCzLjeSrhxcsu8MuWYAiWizqZJifc7dz17Kj9BSMr1Fq4JT/Ud3he3EbbvXacey+uNqMuNoFs4T75PtSVCiDcVGuxC9ISLYjY+Z2a3pDzj7mtjxr1LNT7XrEmp2XVl3hxxcd34vpBQzY5n4+v6atJGXRReLjmz7/F9iqATQtSiwS5ET9BgF6InzKTrre3VayFNUv52KaPXPusySYfXvZYqS+V8j9sIU0nXRcLFxNFpof2d675LRdfVrZBrkvO9qwSYerIL0RM02IXoCTPjepvFBSIpFT91PSd3WhO871Wui6eurIlZU6eexyp4yr0WnocqfRM13ksqgs4bXZeKtPNGybWJnuxC9AQNdiF6gga7ED1hZmz2pnW6oO1w3ElXODUty5HRG86astlTdnmdey11X0relL2dIpVwMndFnJe699g7Z+Tte+yTneRXSR4j+UxwbR3JR0m+UP1fO7YnIcRU8ajxXwNwe3TtHgB7zexaAHurcyHEDDNWjTez/yJ5dXT5DgC3VMe7ATwO4O4mHbcd+dV2HrvSqnSuHKnItdKr79pQ471l3ui3VH63lPvLm5c+1XdOEor4PPXZNslnP1LWsTVGs8HMjlTHRwFsyGxHCNERE8/G2+AnpfZnheROkvMk548fPz5pd0KITHJn418mudHMjpDcCOBYXUUz2wVgFwDceOONNq2Z9hJqa5fqeeq6N3KthClQ13Z8XmIhjHe2ucnWTV4125v6uURUYqpuKh21JzqyjRx0DwPYXh1vB7Ansx0hREd4XG/fAPA/AN5B8hDJHQDuA3AbyRcA/HF1LoSYYTyz8R+rKbq1sCxCiBaZmeQVbZOTtDLXpva2keva87afsqm99rbX9RZTZ4t75wcAv9sslXiizl3lddGNY9IkkEC9nV565Zxi44XoCRrsQvSEi06Nz83N1qYaP+6+ujKvu6pJX3VurpQaHy5GadJXaZPEG9XWxPVWl/M9NydcCZdr7j0e1b0N15sQ4iJDg12InqDBLkRPmJrNPitJHZrY5Tk2e26oq3fFlzeBY5N87XXk2rLeFWup/rwhsbnhsilyXlsJ2z4nXDaFnuxC9AQNdiF6wkWXg67txBPevnJkypWxSfRb6Ebz5ndLuXhSWx/luLKauLzq7vOq6qk22sjdXuL70mZOeT3ZhegJGuxC9ISLIoIuZya97cQT3nq5s/0pNT41y/7GG2+MPE6p8TF1UWdN1Oc6mqipde03MSdy1OJpJVgZx6Qqvp7sQvQEDXYheoIGuxA9YSZt9hLRb20knsgpy20jlaQxPA/t8vj83LlzI9uLz1O2YGr7pBxXVq69nbtKrUu8KzJLyKsIOiFELRrsQvSEiyKCrkRkWd19ufm9vfVyF8Kk1Pi6KLn4PJW8Iux70m2FxpET4ZYqy80Rl3uPdwFK7kKVrswQPdmF6Aka7EL0BA12IXrCTCavaNv1ViKcNTc8NMfubxIuW2Kb45ww2FT7IV3b7Km+60itAkyVlcgh38Zecgt4tn+6iuRjJJ8j+SzJu6rr60g+SvKF6v/axr0LITrDo8afB/BpM7sOwM0APknyOgD3ANhrZtcC2FudCyFmFM9eb0cAHKmOXyG5H8CVAO4AcEtVbTeAxwHc7Whv7PW2VXBv7nYvKfUz17WX46KL6+ZumZRKWOHpK5YrbKNJLvS69pu0UcL1lkOu+ZZi0jYaTdCRvBrADQD2AdhQ/RAAwFEAGyaSRAjRKu7BTvItAL4N4FNmdiYss8FPzsifHZI7Sc6TnD9x4sREwgoh8nENdpLLMBjoXzez71SXXya5sSrfCODYqHvNbJeZbTWzrXNzcyVkFkJkMNZm58D4uB/AfjP7QlD0MIDtAO6r/u/xdLhgd7TtevOG0nq3K45Jua5SeGX07tOWyvnuzTKTWolWJ3vct9dd1SQUNZTLu0qvdK71ce23SemMOR4/+3sA/BmAn5J8urr2txgM8odI7gDwSwB3FpVMCFEUz2z8fwOo+zm7taw4Qoi26DSCzsxq1c6286l71XjvVkgpUm4i72o279ZNqfeqRC731HuVE/2Wm/M9N3993WvrOuFFztZZpd13io0XoidosAvRE2YmeUXOLHvbanyTSK26ermLWLz1Un3n5lqvo0nEYh0pNT6O5PN6OVKvM4dSO7yWZtKFNnqyC9ETNNiF6Aka7EL0hKnZ7CUi6Nqw2XNX1YV4bfY457s3WaS37xKJEHIjFuuIberQTo/br9tzLp6zSNnpOXZ/iSSkbbv2lDdeCFGLBrsQPaHzCLocNb5O7c7NQVdiIYyXuP06VT1VlnK1pfCaPN77mrgp6yL5miTKWL58+cj24jZSr3Pp0t9/xXNU+picHIK5/ZU2BfRkF6InaLAL0RM02IXoCTMZLuu1o3Ndb23nng/xhsTG5/EebnVyxHj3sQvrpfaLS80xpN6DOjs9treXLVu2eBza17GMqXqp9kO89vs0t4Buc2tqPdmF6Aka7EL0hKlt/9SEnBx0JfLYlWgjpaqXyFnvdVOm3HxxJN+5c+dGlsXqfiovXKgmh+pzqI7HcsUqeN17Fb+WsM34/ajLWV8q93yJfQa89Tz3peroyS5ET9BgF6InXBRqfGlyF354F3t4PQZtbAkUtp9SwUNV/bXXXhsqC89ff/312jbCvuPZ7VB1v/TSSxePU/n0UpFxXlLbUKXay8ljV4qc3Wq1EEYIUYsGuxA9QYNdiJ7Quc2+YGu0kaivy+R/Xru/iXstxw6L2wvt6tAuD21vYNguf/XVV4fKzp49u3j829/+dmR7MbFLbeXKlSNlWrVqVa38cWRc3cq5pHspMXfg3Yq6hM3exncxJzFJyNgnO8kVJH9E8scknyX5uer6NST3kTxA8kGSy8e1JYSYHh41/nUA28zsegBbANxO8mYAnwfwRTN7O4BTAHa0JqUQYmI8e70ZgAU9b1n1ZwC2Afh4dX03gM8C+IqjvUbXU/XaVpW8KncpOXLeg9hMCN1toer+m9/8ZqjeK6+8snh86tSpobLw/Ne//vXI9oDh9yBWz9esWbN4vG7dusXj1EKVVCSid/unuP0cV2fXu716XW+tq/FVw0uqHVyPAXgUwC8AnDazBWPsEIArG/cuhOgM12A3swtmtgXAJgA3AXintwOSO0nOk5w/efJknpRCiIlp5Hozs9MAHgPwbgBrSC6YAZsAHK65Z5eZbTWzrevXr59EViHEBIy12Um+FcAbZnaa5EoAt2EwOfcYgI8AeADAdgB7PB167KYSe4qlyLHLgWFbMbXiq+6euL8Sed1TCS1DGzt0oQHDNvuJEyeGyo4cObJ4fPz48cXj2EUX2sdr164dKgvnDsJw2di2D112Jfbny01akqL0qrfcfie12T1+9o0AdpNcgoEm8JCZPULyOQAPkPxHAE8BuL9x70KIzvDMxv8EwA0jrr+Igf0uhLgImNqqt7ZVdS+5bpYmLqS6sja2XapLShGvbAuj5GLX29GjRxePDx48uHgcuuGA4bzucfthBN3c3FytvKVXlDVJRjKLtLnCTrHxQvQEDXYhesLMpJJuWmcUqVn2nKQA3i2NcvHmQWuixtelo47zzKVm6s+cObN4fPr06ZHHwPBMeqi2A8NqfShHysNRIr1z22q81/RqknjCu/2T5zusHHRCCA12IfqCBrsQPeGicL3VlcX2iddmqssl7u13XPupNkIbO7ZRvVsKpyLG6raXSkWWpezo0C6PE1SEkXHhceq+1GtOydG2i64EuTKG96Ve86RJMfVkF6InaLAL0ROmpsY3WVyQu3DFU6+EGp8yJ2K1NYy8S0WTpWT0LvwIieUI1e7Vq1cPlYURb6EpcNlllw3VCyPo3va2tw2VhQkrwsUvsSngVVu95LaR+z3wypEq8yavmNSs0ZNdiJ6gwS5ET9BgF6InvKn2essJg81NTJCyrbzutVTixJQcKZs9JJwfCO1rYNiODu3rWI4rrrhi8ThOOBnmZA8TTALAhg0bFo8vv/zyxePYRRfK6LVRU+9bif3Rmmzn7CUnkeRUEk4KIS5+NNiF6Akzuf1TypXlrZe7si3VvrdeXa66uG5KxQ/V23ir5BShah26uVasWFErR+wOC9XucLVc/FrCvuJVb6E7LzxuosZ7I8tSppE3KjEnqUhMrgpeV9Yk2nDcdUBPdiF6gwa7ED3hTZu8oo17cpJXNFE5Q5W27jg+j3c+DVXyuu2TgOHZ+Ti9c90imfi1pGQM5arbSXVUmyF171XcRk4UXpN01Dmz4F6TJD73miSajRdC1KLBLkRP0GAXoifMjM1eetVRG5ReheV1vcV2uXfVW9he7L7zbmWcspVzkik0eQ/r+m4SlegllcQzlexk0qi2VBupSMG611nE9cbBts1PkXykOr+G5D6SB0g+SHL5uDaEENOjyc/gXQD2B+efB/BFM3s7gFMAdpQUTAhRFpcaT3ITgD8F8E8A/poDXWEbgI9XVXYD+CyAr6TaMTOXGt+G2u6NwmsbrysrVN1zo/xSUXjexTQlkkuUeI+9C4hyFxeFSTpK5HzPxZu8Isdc8d7xJQCfAbDwrVgP4LSZLXyDDgG4snHvQojOGDvYSX4IwDEzezKnA5I7Sc6TnP/Vr36V04QQogAeNf49AD5M8oMAVgC4HMCXAawhubR6um8CcHjUzWa2C8AuALj++utnY1pdiB7i2Z/9XgD3AgDJWwD8jZl9guQ3AXwEwAMAtgPY4+kwx/WWg7e9EokKcrefTtlkob3dxN0Tnod2emiTxuexzd6mq7OE6y0VLpuy2b3uNe8cRkzuqrc6+ZsknFw4b2vV290YTNYdwMCGv3+CtoQQLdMoqMbMHgfweHX8IoCbyoskhGiDmcxBl6tG5rjvchNgpPryyuFV41P3pdoI3XexGp9yveWYQKk2Spg1qZVzYZlXjU/l9YvLwva9brkm7sGc1X1tut6EEBc5GuxC9ISZVOO9lNgJNsabn66NhTuehQ5NSKmEOVtIxXjbSLWXkxwjXhiUWiQTkmt25KjnJdT4aUXQCSEucjTYhegJGuxC9ISp5Y1vQo4bp+1kGG0n1PAmRYhtN+/qPm+0V8rOLbHqrUQCTm8ixvC1xK5IbwKPeL6gTZs9Z5sr5Y0XQmiwC9EXOlXjSbpUv1xVvbS676WEHE3I2V4qVw6vGy6FN+IvFRmXq8bXfRapCDrvYpf4PDfne0k1PoWe7EL0BA12IXqCBrsQPeGiDpdtQpuusjbazsnJDtTbm7GMKbvfm3wxVc/rGkqFwdbtF+dNKgkMv25vuGmTvPQ5CTbasNk9Nrye7EL0BA12IXrC1CLopunymuZ2UqVdgrGqV+cq87qkRtUtSRMTpE4tbiJfWDeVECS1vXUqcUadXLkRdLl57DzoyS5ET9BgF6InTG02PqVWppiVHV3bICfNdukIt1HndXjz8KXImeluosLWyZGajY9V9WXLli0exx4Drwru3UYr14TSbLwQYhENdiF6gga7ED1hZiLoUnZLXS73XNut622a6/C6B3MTazbZejinntdGTV33Jq/ISVAR3+fdUssbyZeS37s6Li5r0/Xm3Z/9JQCvALgA4LyZbSW5DsCDAK4G8BKAO83sVGMJhBCd0ESNf7+ZbTGzrdX5PQD2mtm1APZW50KIGWUSNf4OALdUx7sx2APu7nE3edQPr/qSG0lVwn3XRJX00rZcdaTy2KUiy3II3VjAsFqcKovV5zq8O942SaKRWuBSF12Xu5imSeKMpnif7AbghySfJLmzurbBzI5Ux0cBbJhIEiFEq3if7O81s8Mk/wDAoyR/FhaamZEc+Viqfhx2AsCmTZsmElYIkY/ryW5mh6v/xwB8F4Otml8muREAqv/Hau7dZWZbzWzr+vXry0gthGjM2Cc7ydUALjGzV6rjDwD4BwAPA9gO4L7q/x5Phzk2u3dfq5yVbk1WfOXsF5cKZ52V0N/U+52bT72u/ZTNW2IPN+98T8puTsmRsudTdn/OqrcUOXnjPWr8BgDfrRpZCuDfzOz7JJ8A8BDJHQB+CeBOl5RCiKkwdrCb2YsArh9x/SSAW9sQSghRnpnc/imVkKFNlX6SNuvqpV5L7mozb9/eRBGp3PMlkkZ43VqpCLoSq8FyovXG3Zez3XJuvr5JUWy8ED1Bg12InqDBLkRPmMm93mLqXEFNst3kZIEp0YY3fDNV1uR11r2/qZVWsR1dt01ziVzrTdxO3tBor3vQ6/5qMq/QVc73GCWcFELUosEuRE/o3PW2oN6k1FtvPvjcpA6p620nvsyJwmvixvG01+S+1Eo3r1rsVW9T5K5a9MqREyXXpP3SanwOerIL0RM02IXoCVOLoMudYS6hxnvVwDiyrG6WOiVHqg3va04ll/DShuqYszNp1zPRdXI0SVCR403IfZ1tqvR6sgvREzTYhegJGuxC9ISZjKDL3QfOi9fuj8tC+zvXZq+rF5Ob8z1nBVWJFWVtrOQqYc+Xdo2VsKkVQSeEaBUNdiF6wkxu/5TjhhuH1+WVo+K3sT1TiDdhR6rNXDW+xHZSJcpy6+VE0LWxWCcHJa8QQmShwS5ET9BgF6InzIzNXtpO99rbsWvM61JL0bYdmtNXE0qHdua+li5tdm/Od2/fCpcVQkwNDXYhekKnaryZTZwLzuvWSqnndcdxG17Too2osLbbz2mvhMnQRL3NUZFLqPEXQwRdDq4nO8k1JL9F8mck95N8N8l1JB8l+UL1f23bwgoh8vGq8V8G8H0zeycGW0HtB3APgL1mdi2AvdW5EGJG8eziegWA9wH4cwAws3MAzpG8A8AtVbXdAB4HcPe49lILQzzkLFQBgAsXLowsazLj7o1OmxUVPJfSr7PE+5GrZntTSafK6uqlyqalqqfwPNmvAXAcwL+SfIrkv3CwdfMGMztS1TmKwW6vQogZxTPYlwK4EcBXzOwGAGcRqew2eByOfCSS3ElynuT8iRMnJpVXCJGJZ7AfAnDIzPZV59/CYPC/THIjAFT/j4262cx2mdlWM9s6NzdXQmYhRAae/dmPkjxI8h1m9jwGe7I/V/1tB3Bf9X+Pp8OSiSi8CSHj85TNHpKys7yJEJqsWOsySUeI1w5tkvO9dASgVw6vzV5i/qFJ2Szg9bP/FYCvk1wO4EUAf4GBVvAQyR0AfgngznZEFEKUwDXYzexpAFtHFN1aVBohRGvMTARdCu9CmBw1PleOnKitceS8NyVUf6+50kT1zXHfpermqOqpsrbdpbOo0is2XoieoMEuRE/QYBeiJ8xM8ooSlLB521jVVFfm7buJ26yurrdeSo5cZr29Un3PQoKKFHqyC9ETNNiF6AksHbWV7Iw8jkEAzhyAaQfKz4IMgOSIkRzDNJVjs5m9dVRBp4N9sVNy3sxGBen0SgbJITm6lENqvBA9QYNdiJ4wrcG+a0r9hsyCDIDkiJEcwxSTYyo2uxCie6TGC9ETOh3sJG8n+TzJAyQ7y0ZL8qskj5F8JrjWeSpskleRfIzkcySfJXnXNGQhuYLkj0j+uJLjc9X1a0juqz6fB6v8Ba1DckmV3/CRaclB8iWSPyX5NMn56to0viOtpW3vbLCTXALgnwH8CYDrAHyM5HUddf81ALdH16aRCvs8gE+b2XUAbgbwyeo96FqW1wFsM7PrAWwBcDvJmwF8HsAXzeztAE4B2NGyHAvchUF68gWmJcf7zWxL4OqaxnekvbTtC2vM2/4D8G4APwjO7wVwb4f9Xw3gmeD8eQAbq+ONAJ7vSpZAhj0AbpumLABWAfhfAO/CIHhj6ajPq8X+N1Vf4G0AHgHAKcnxEoC56FqnnwuAKwD8H6q5tNJydKnGXwngYHB+qLo2LaaaCpvk1QBuALBvGrJUqvPTGCQKfRTALwCcNrPzVZWuPp8vAfgMgIWMIuunJIcB+CHJJ0nurK51/bm0mrZdE3RIp8JuA5JvAfBtAJ8yszPTkMXMLpjZFgyerDcBeGfbfcaQ/BCAY2b2ZNd9j+C9ZnYjBmbmJ0m+Lyzs6HOZKG37OLoc7IcBXBWcb6quTQtXKuzSkFyGwUD/upl9Z5qyAICZnQbwGAbq8hqSC8ueu/h83gPgwyRfAvAABqr8l6cgB8zscPX/GIDvYvAD2PXnMlHa9nF0OdifAHBtNdO6HMBHATzcYf8xD2OQAhtokAp7EjhYyHw/gP1m9oVpyULyrSTXVMcrMZg32I/BoP9IV3KY2b1mtsnMrsbg+/CfZvaJruUguZrkZQvHAD4A4Bl0/LmY2VEAB0m+o7q0kLa9jBxtT3xEEw0fBPBzDOzDv+uw328AOALgDQx+PXdgYBvuBfACgP8AsK4DOd6LgQr2EwBPV38f7FoWAH8E4KlKjmcA/H11/Q8B/AjAAQDfBHBph5/RLQAemYYcVX8/rv6eXfhuTuk7sgXAfPXZ/DuAtaXkUASdED1BE3RC9AQNdiF6gga7ED1Bg12InqDBLkRP0GAXoidosAvREzTYhegJ/w/T7K3v++XQbgAAAABJRU5ErkJggg==;" parent="1" vertex="1">
                    <mxGeometry x="331" y="1240" width="258" height="258" as="geometry"/>
                </mxCell>
                <mxCell id="55" value="" style="shape=image;verticalLabelPosition=bottom;labelBackgroundColor=#ffffff;verticalAlign=top;aspect=fixed;imageAspect=0;image=data:image/png,iVBORw0KGgoAAAANSUhEUgAAAPsAAAD7CAYAAACscuKmAAAAOXRFWHRTb2Z0d2FyZQBNYXRwbG90bGliIHZlcnNpb24zLjMuNCwgaHR0cHM6Ly9tYXRwbG90bGliLm9yZy8QVMy6AAAACXBIWXMAAAsTAAALEwEAmpwYAAAcm0lEQVR4nO2dbaxlVXnH/3+G9xcZhjudTBgCNBINHyqQG8RIDEIx1JryxRBf0kybSeaLbTC1EWiTRps2wS++fGhMJsXKByvgWyHEqHQKaRob5FJQeRFBijITYGYQRFCBGZ9+OPverLN617rPXmftfc64/r/k5u599t5rP3vvs85+nvW8LJoZhBC/+xwzbwGEEOOgzi5EI6izC9EI6uxCNII6uxCNoM4uRCPM1NlJXk3ycZJPkryhllBCiPqw1M9OchOAHwO4CsA+APcD+KCZPVpPPCFELY6d4dhLADxpZk8BAMlbAVwDINnZl5aW7Jxzzll3W+5Hp+QHiWTV/WKOhmCk0mtLMfY115Y/x5jX5r2uEpl+9rOf4dChQ+ueYJbOfhaAZ4L1fQDenjvgnHPOwXe/+10A//9CwvUjR45Mbfvtb3+77nJMeBOPOWbaQtm0adO6+w3R2cNtueusQSx/eN25+5G77lDG8H7HsueehZfcs0jJOM9n5n1+3ueSo+S7c9lllyW3DT5AR3I3yRWSKwcPHhz6dEKIBLN09v0Azg7Wd3SfTWFme8xs2cyWt27d6mqY5NRfCTXaGIJFlEm0wSyd/X4A55M8j+TxAD4A4M46YgkhalNss5vZYZJ/AeDbADYB+IKZPVJNMiFEVWYZoIOZfRPANyvJIoQYkJk6+yzkbFbvSGY8OlliB9doo5Qa5xrCjZMafR7aPTVDzEdlSfznCmWu4eUZEoXLCtEI6uxCNMLoavyqepNTn3MBIKWRdkNG4dUKnKkRRFIiszeIpM911jAvUipyjiHUZ6/pOLTq7u0HKfRmF6IR1NmFaAR1diEa4ahwvaVslZwNGSdpeF1I83TjeO2/Ie3yjbYNidd+j8d0cqTu1dBuPm9Sz5jozS5EI6izC9EIc1PjY7x5zTn3Q5gH71VNvRFRtSi5zlwbMSn1dGg1vra8uW1DmGE1zJUa7sHS76ZHfr3ZhWgEdXYhGmFh1PiQXCKM97hS1XHM5JQcY5oaQ6jxuYjIkFxpK68aX/qsU20cDfUFYzzfA73ZhWgEdXYhGkGdXYhGGN1mX7WHcnZozoacZy3xoTOc5mVfet04fe6H12YP94tLiHuzAEueRYnrqs9+sxRKnYXc8XqzC9EI6uxCNMLc1Pg++3hdQfNKdunTXolbq4Y5UVoAo9RMCFX3nBpf8myHvpY+Kv6iRN550JtdiEZQZxeiEdTZhWiEuYXL9rGDvLOFDllUstZxJdlmfbLjhnRX5fDKWOpyzZ0rR213Zg37fV4h2Ru+2Ul+geQBkg8Hn20heTfJJ7r/Z/Q+sxBiVDxq/BcBXB19dgOAvWZ2PoC93boQYoHZUI03s/8keW708TUALu+WbwFwL4DrHW25VDNvBF2pi26eUXg5GUNzpYYaP8TUUKlzDcG86rbVKBqxKOp+SOkA3TYze7Zbfg7AtkryCCEGYubReJv8TCV/qkjuJrlCcuXQoUOznk4IUUjpaPzzJLeb2bMktwM4kNrRzPYA2AMAF198cfJHwat2l05H5KVGskuupHW4ntuWo0aZaS9DeB1S+5W03YfSZ1t7Kqv4OZfUHuxTwGOV0jf7nQB2dss7AdxR2I4QYiQ8rrcvA/hvAG8huY/kLgA3AbiK5BMA/rBbF0IsMJ7R+A8mNl1ZWRYhxIAsZMHJmNq10IecZmkjOUps9jhrrCQDbAhXkLfQY3hdNSLocpS6XLNFH4L77y2Q2ed+p76P3qIfG51vrb0N9xBC/E6gzi5EI4yqxpN0qZ2lRR3GLCRQQ1X3qvF9rrPk3pUWT6itxucoKfoRn69GLcMa01zlnmfOZOgze+166M0uRCOoswvRCOrsQjTCUeF6q0HtOdG8NljOLo/rpKfs+Ro12XPEbYTruXOVFNHoM97gvd85xrKHgTqFOmcdj8ntoze7EI2gzi5EI/xOqfFDTwNUW42Pt4VqfbjcJ8PJGx0Yqq2bNm2a2haux9u85/KqxbXnBMjhdQH2cTF6a/6lzlW6reQe6M0uRCOoswvRCAupxntV66FrlMVqdklCTm7fnBp/+PDh3nLE5NTsUD0/9tj01yA8LlbpcyP1XjU+p1qnavLVGOmuVdfPm8RSO4qwBL3ZhWgEdXYhGkGdXYhGGN1mL4msqhGZlKI0oqu0fa/N/sYbb6wth/Z7vF+umELOhjzuuOPWlo8//vhkGyFxGzm3XEqOPttq4B1n8boRa2QI1ijiWYLe7EI0gjq7EI2wMK4377ROQ5NTs2vUfstF0IXq+uuvv762/Jvf/GZqv5yKn5Ixdq+dcMIJa8u5hJxUIgkwrcaXJuSkzhWv156iqtRd6lX/c/vlagrOWm9fiTBCCHV2IVpBnV2IRjgqXG+p/UqzwbwZa16bqY8rJTwutpW9Nnu4HtrvcZuhTR271+Jzh6RCZOPxgXAcwBsemgsVLR0jKRk/6ZP15m0zR+3iKSV4pn86m+Q9JB8l+QjJ67rPt5C8m+QT3f8zZpJECDEoHjX+MICPmdkFAC4F8BGSFwC4AcBeMzsfwN5uXQixoHjmensWwLPd8i9JPgbgLADXALi82+0WAPcCuH4IIWvXIst9Xlt17xNBF6rJoXr+2muvTe3361//em05VPeBtBofq+AhsVsuXE8tx216I8ZKizqk2t6o/RrTfdcwE3LMatp66TVAR/JcABcBuA/Atu6HAACeA7CtqmRCiKq4OzvJUwF8DcBHzezlcJtNfoLW/RkiuZvkCsmVQ4cOzSSsEKIcV2cneRwmHf1LZvb17uPnSW7vtm8HcGC9Y81sj5ktm9ny0tJSDZmFEAVsaLNzYlDcDOAxM/t0sOlOADsB3NT9v8NzwppzvdU4rkYYZmnlkRypDDhg2oaP3XKhHR26w3I2e2nd+HA9vuaSNnLkMs+8WWlDhGTXqBpUsxJT7hiPn/2dAP4UwA9JPtR99jeYdPLbSe4C8FMA1/aWTAgxGp7R+P8CkPq5uLKuOEKIoZhbBF0fV4e3eEVtV0WpO6l0W0jolotV8Fx0XbgtVG+9EXMx3nsat5+qPR+773JZdSU12b0MESVXyqwFXbwoNl6IRlBnF6IRRlXjSa6pH30SIrwFArzUmOqndL8a0y7lVPxUVFusIucKYITbQrMgrFsXH5erKV+7Bl0fU660ZlxtShK9aphXIXqzC9EI6uxCNII6uxCNsDDFK3L7lMwbVhoh5XWblbYRXkvshgpt4ly2WWgf58Y+coUyUvPKAdN2enjuOMMuLIjRZx64FN77PcSzLZFjI7lm3S+HXG9CiCTq7EI0wsLUjQ8pdWuVuOVybXgjuvrUCA/V3djFGKrxqWVgWrXOuehyyTRx5F3qOO9UU7n6+Ln69blkmpDS2vOp74v32fahNNHGmwgzq4x6swvRCOrsQjSCOrsQjTCqzW5m2eyr3HGr1MgoSx3Tp31vm31cbyl3W1zzPVzPZZGFrrJf/epXU/vlMtHCMYKTTjppbfmUU06Z2m/z5s1ry3FRzFNPPXVtObSpc7ZyPP7gLUpRUoR06IKTNfYrlSOF3uxCNII6uxCNMLoan6qFVqI+94m0S7mNSk0B7zZv9BiQVq29kXYxoWodq/GhKy5WK8P2Tz755LXlN73pTVP7hc8yNs9SRSlikyTnOgzpcx891HCNzXK+FLNm6eWO15tdiEZQZxeiEUZX41fVxz6Ra+F6Sdng9dr0tJGLxvKO3ubk8Ebexap6qArH0XUhoRr/8stT83rg1VdfXVuOo+tC1TocgY+j7nL3ICV/OLofb8uR+g7ElI5YpyL+ZmlzVhRBJ4QoQp1diEZQZxeiERbG9ZYrxBgydARdjpIpebOukMzYRHgPYnfVCSecsO4yMG0Dh3Zo7Hr7+c9/ntwWErrewqmigXxGXHjdKVce4He9hfvlovC8WW85hoiuK8nkrF2oc8M3O8kTSX6P5PdJPkLyk93n55G8j+STJG8jefxGbQkh5odHjX8NwBVm9jYAFwK4muSlAD4F4DNm9mYALwLYNZiUQoiZ8cz1ZgBe6VaP6/4MwBUAPtR9fguATwD4/EbtpRJhvLXcS11vXkpUvT7nyqlpoaoaqr6xqh6qwrEKHqr8Yfuxey10vYUqPTCdQBO2F7vvQrU+ToQJ1frwumLXm1eND+9HH1XdqxbXnsW1tMZdbTM1xDs/+yZOZnA9AOBuAD8B8JKZrRrg+wCc1fvsQojRcHV2MztiZhcC2AHgEgBv9Z6A5G6SKyRXXnjhhTIphRAz08v1ZmYvAbgHwDsAbCa5agbsALA/ccweM1s2s+UzzzxzFlmFEDOwoc1OciuAN8zsJZInAbgKk8G5ewC8H8CtAHYCuGOjtsxszZbL1TuP3TihnZ4relgjrHHMDKec6y1XvCJ0X5544olT23KFLUJCG/6VV16Z2havrxLb7KGdHo/FhOcOQ27DghfAtPyx/R62UfpcSgpg5LYNMX2zd0zKY7PnrtHjZ98O4BaSmzDRBG43s7tIPgrgVpL/AOBBADc72hJCzAnPaPwPAFy0zudPYWK/CyGOAuY2ZXMObw3ymNoFDmJSKlytKYRTEXRxZlsugi61Ld4vV78+5VIL3XXA9LXFpkZY6GJpaWndtoHpTLqcuVJjHoCcGux9hvG9KlHrvTLmIgUHc70JIY5+1NmFaISFnMU1R25k1Kvu1y5GUGuEtqR4RTwaH0aohZF2cRnocD1W8UPCaLp4FtdQrtNOO21q2y9+8Yu15XB0P474C9X4+FpCNd47xVOMtx5grg3v9yrXXklk3Fwi6IQQRz/q7EI0gjq7EI0wN5u9RnZSn4KQJRFHpQUna0Rc5Wz2kDiLLJx26fTTT19bPuOMM6b2CyPZwv2AaXs7tKnjzLnQpo6z3sLjQndbbLOH22KbPVwPzx27ImsXfKhRAKPUZvfK0WfcYhW92YVoBHV2IRphdDXeU799TLdZqRy5qKrUfuuth3inqArvYazShqpv6A6L1fitW7euLccJLqGqHcobR7/lkm5CmcMkmdgUyLn2wn1z9e68s8TmqOE+re02y7mWS9CbXYhGUGcXohHU2YVohNGz3kps9pK62n1k8soRUmJ7x8flbDJvkY644EPoigtt9i1btkztF9rlcbGK0FYObfE46y18lvF0zqmiFPF1he67eE6B1La4UIa3aGWO0imbS11xnnOVjCNk59/r3ZoQ4qhEnV2IRhhdjfeoXN4IoyHccDWipXLk1LTUttz9iO9nmMEWqvE5t1a8LdVerO6HKnk8rVOYVZer+R6q5Dk1PpQ33i+8B/H9SN3T2m4toNzE9MroUfGlxgsh1NmFaIXRI+hqjJyuUmM6nz4Rbqn9hi5ekbvOOIIuHI1PFX+I1+OotpBQjY8j7XLJKWFCTjiiH19LTo1PmRqx2ZFT41PqeZ/CJ96IzlJPTompUfKd05tdiEZQZxeiEdTZhWiEhYmgCxliih1vmznbzevuKI248kQXbnTu1LRRcWGI0FUWF4sMs9tCOzq2h8OCFblIvrgefEh4v+PIuNBmTy0D09fsnUIq98xyWYZ97PlU+zEpWzxXo35Q11s3bfODJO/q1s8jeR/JJ0neRjL9RIUQc6ePGn8dgMeC9U8B+IyZvRnAiwB21RRMCFEXlxpPcgeAPwbwjwD+ihPd5QoAH+p2uQXAJwB83tGW53xT6yUqSw6v22wIOWoX6cjNBJtzSYWusrhufKiChy60mLCNWN6wzVCNj+UIj8u5B1PRdLEcuSi8nNs3fIbxPc2p+CG5GnElLrUSNT6H983+WQAfB7B69jMBvGRmq3dyH4Czep9dCDEaG3Z2ku8DcMDMHig5AcndJFdIrhw8eLCkCSFEBTxv9ncC+BOSTwO4FRP1/XMANpNcNQN2ANi/3sFmtsfMls1sOax7JoQYF8/87DcCuBEASF4O4K/N7MMkvwLg/Zj8AOwEcIfnhKv2UA17O2dT17C3a2RCxXjDYL3utpybKFd7Pmezhxlr4T2Ibd7QnRffx3DfcL84rDZ3P1I2e+yiy20L10uzJGsUTPHa4rmQWE+BjaGy3q7HZLDuSUxs+JtnaEsIMTC9gmrM7F4A93bLTwG4pL5IQoghWJjpn2rU2/JOj1Nabyy1rY86XnsK4biNVARdrDrmss3Cc4dtxFNNhRF0sfoctpGSCZhW970133MuOq+7qnR6ptIIuhJKpibLRmjWEUsIseioswvRCKMnwpSoPV712RvplGPWmTJz7cXruW3e2Wq9U0PlorZiFdzTHpCf4TUVkZbzCnjV+JLabHF73sjDeFuNgiklyVB92k+2PdPRQoijBnV2IRpBnV2IRpib6y2H11YutalruOG8+w3tqsnZ7KHtGdvbqei0eFuuRn14rthmT0Uf5opLxPZ8qihFzt72ujpjOXIZgt5sthy5cZaaWZ1yvQkh1NmFaIXR1fhVhqgzl6NkCimvil/DzdeHbLJDQlX1RuTl2ovV57D9uJZ76M7L3aucqeFV43MutRI1vo/7q4a7raY7Oofe7EI0gjq7EI2gzi5EI4xus3vcDKV2UA07Ote+l9K68SV4a5znikvEbaSy1OKMtbDoRWyzp+aZy7lLYzs6PF8oU6nrbQi8btyhn7vnPHqzC9EI6uxCNMKoaryZDVLXbRWvSpU6ZgxKVL0+bhbP9FpAmbst566K3WapunDeDDsgrbrXyEob4ns49nepL3qzC9EI6uxCNMLoo/Ee9al0ip0ctZMKcm3XiA4c2gwJVWGv/Llzxap1mBiTU+Nz15lKTukzGh+S++7lPAY1yn+HDJl8NVQpaSHEUYQ6uxCNoM4uRCPMzfXWx9YssYW8dmhpAYyh7fJZp+cF/AUTclMZe6c+ymXE5Wx2r62cyoCL9/NmrPVxveWmc/a6Or3tez4vxTs/+9MAfgngCIDDZrZMcguA2wCcC+BpANea2YtVpRNCVKPPz9K7zexCM1vu1m8AsNfMzgewt1sXQiwos6jx1wC4vFu+BZM54K73Hjx28Yohz12rvRruwZTa3cdllIpWy6mwcf24MILOO8uqN0kmPlfJFFJDzN7rVenn9d33vtkNwHdIPkByd/fZNjN7tlt+DsC26tIJIarhfbNfZmb7Sf4egLtJ/ijcaGZGct2fq+7HYTcAnH322TMJK4Qox/VmN7P93f8DAL6ByVTNz5PcDgDd/wOJY/eY2bKZLS8tLdWRWgjRmw3f7CRPAXCMmf2yW34PgL8HcCeAnQBu6v7f4Tnhqr1So9Cj5zyzHOd1y9XKdqodIltjv5xd7sU7N503dDZns3sz4kpDrXNz5pUWT6n5vcod43l62wB8o2vkWAD/ambfInk/gNtJ7gLwUwDX9pZMCDEaG3Z2M3sKwNvW+fwFAFcOIZQQoj4LOf1TzJARRqXqnHfq5VrnTjHPggkl6nmfqZVq1HxPucNK71vOLef9TnjdoLWfrWLjhWgEdXYhGkGdXYhGGNVmJ1kUvlijpryX2rW/vdPzztLmrAwhU27+tdxxnjb62OwlNnDObZvb5h3DqGHPl6A3uxCNoM4uRCMspOttiKyg0uipWc/VZ1vI0DLmor28BSe96nmuQIWXXIEK77aUfH3kGnoab++5S9rXm12IRlBnF6IRFkaNT6l9tc+z0bYa7ddoI2d2zLPwR0huxN07Gp86Zr31vvv1oUbSkHc03ltgI0fJd0BvdiEaQZ1diEZQZxeiEUa32VP2W642dyqCqXa0W3xcjZryfexLr3uwpD5+To6hI+i8x3ldeX3GMErcVX3q49eOoEu1Ha9rrjchRBJ1diEaYW6JMKUq8qzHLFL73nOXJmYMTYkbqk8SSOoeeOvAbSRjjf1SanypK9L7bOV6E0IkUWcXohHU2YVohNFdb6t4bZ/ccYsSNtoH73V67TNvMYVSvPfYa6OOHepaUiS0T0ZcieutFNnsQggX6uxCNMKoaryZudSPMevM9WmjRHXKuYJq192L2y+tbV9y/71ZXjkV2etq6nM/Uupzn8yzkqjKRamBGOJ6s5PcTPKrJH9E8jGS7yC5heTdJJ/o/p8xkyRCiEHxqvGfA/AtM3srJlNBPQbgBgB7zex8AHu7dSHEguKZxfV0AO8C8GcAYGavA3id5DUALu92uwXAvQCu36i9VGGKoSPoSkbBZzmfp/0ayS5DF+koxVseObyW+Ltx5MiRdffrc801IvlK6vXFLILnyPNmPw/AQQD/QvJBkv/MydTN28zs2W6f5zCZ7VUIsaB4OvuxAC4G8HkzuwjAq4hUdpv8bK3700VyN8kVkiuHDh2aVV4hRCGezr4PwD4zu69b/yomnf95ktsBoPt/YL2DzWyPmS2b2fLS0lINmYUQBXjmZ3+O5DMk32Jmj2MyJ/uj3d9OADd1/+/wnLDEdvHaf942cvIMHaE3ZFYTUN8VNDThdYY2eryes5u9xRxLCmX0ofSZDe1qXsXrZ/9LAF8ieTyApwD8OSZawe0kdwH4KYBrZ5JECDEors5uZg8BWF5n05VVpRFCDMboiTAelaV2wYGcDDXcLKWuvFI13mvWjKm6e11ZuWuOXW+pohSldf3GvG99nrt3W0iJuabYeCEaQZ1diEZQZxeiEeZWvOJoZwh7eBFCKheJ1BhGbfdrn+OO5mekN7sQjaDOLkQjcOQ64wcxCcBZAjDvQPlFkAGQHDGSY5q+cpxjZlvX2zBqZ187KbliZusF6TQlg+SQHGPKITVeiEZQZxeiEebV2ffM6bwhiyADIDliJMc01eSYi80uhBgfqfFCNMKonZ3k1SQfJ/kkydGq0ZL8AskDJB8OPhu9FDbJs0neQ/JRko+QvG4espA8keT3SH6/k+OT3efnkbyvez63dfULBofkpq6+4V3zkoPk0yR/SPIhkivdZ/P4jgxWtn20zk5yE4B/AvBHAC4A8EGSF4x0+i8CuDr6bB6lsA8D+JiZXQDgUgAf6e7B2LK8BuAKM3sbgAsBXE3yUgCfAvAZM3szgBcB7BpYjlWuw6Q8+SrzkuPdZnZh4Oqax3dkuLLtq7O0DP0H4B0Avh2s3wjgxhHPfy6Ah4P1xwFs75a3A3h8LFkCGe4AcNU8ZQFwMoD/AfB2TII3jl3veQ14/h3dF/gKAHcB4JzkeBrAUvTZqM8FwOkA/hfdWFptOcZU488C8Eywvq/7bF7MtRQ2yXMBXATgvnnI0qnOD2FSKPRuAD8B8JKZHe52Gev5fBbAxwGsVqo4c05yGIDvkHyA5O7us7Gfy6Bl2zVAh3wp7CEgeSqArwH4qJm9PA9ZzOyImV2IyZv1EgBvHfqcMSTfB+CAmT0w9rnX4TIzuxgTM/MjJN8VbhzpucxUtn0jxuzs+wGcHazv6D6bF65S2LUheRwmHf1LZvb1ecoCAGb2EoB7MFGXN5NcTXse4/m8E8CfkHwawK2YqPKfm4McMLP93f8DAL6ByQ/g2M9lprLtGzFmZ78fwPndSOvxAD4A4M4Rzx9zJyYlsIEepbBngZPE6JsBPGZmn56XLCS3ktzcLZ+EybjBY5h0+vePJYeZ3WhmO8zsXEy+D/9hZh8eWw6Sp5A8bXUZwHsAPIyRn4uZPQfgGZJv6T5aLdteR46hBz6igYb3AvgxJvbh34543i8DeBbAG5j8eu7CxDbcC+AJAP8OYMsIclyGiQr2AwAPdX/vHVsWAH8A4MFOjocB/F33+e8D+B6AJwF8BcAJIz6jywHcNQ85uvN9v/t7ZPW7OafvyIUAVrpn828AzqglhyLohGgEDdAJ0Qjq7EI0gjq7EI2gzi5EI6izC9EI6uxCNII6uxCNoM4uRCP8H3AWf6J2+6mfAAAAAElFTkSuQmCC;" parent="1" vertex="1">
                    <mxGeometry x="80" y="1240" width="258" height="258" as="geometry"/>
                </mxCell>
                <mxCell id="56" value="" style="shape=image;verticalLabelPosition=bottom;labelBackgroundColor=#ffffff;verticalAlign=top;aspect=fixed;imageAspect=0;image=data:image/png,iVBORw0KGgoAAAANSUhEUgAAAPsAAAD7CAYAAACscuKmAAAAOXRFWHRTb2Z0d2FyZQBNYXRwbG90bGliIHZlcnNpb24zLjMuNCwgaHR0cHM6Ly9tYXRwbG90bGliLm9yZy8QVMy6AAAACXBIWXMAAAsTAAALEwEAmpwYAAAXXklEQVR4nO2dXaxdxXXHfwuD+Www4ItlYVJTBSXioTHRlUOUKCJQIppG4QWhfKhyK0t+SSuipgrQSlVStVLyko+HKpJV0vghDZCvGqEoCXFBVaWKcCkkARyCQx3Flu17IbYgJAEMqw9n+2ru1t1z5+wze5997vx/0tHZnzPrnH3WmbVmzawxd0cIsf45a9oCCCH6QcouRCFI2YUoBCm7EIUgZReiEKTsQhTCRMpuZjeb2TNmdsjM7swllBAiP9Y2zm5mG4CfAzcBR4BHgY+4+9P5xBNC5OLsCe7dCRxy9+cAzOwe4BagUdk3b97s27dvn6BKIUSMw4cP8/zzz9tq5yZR9iuAXwX7R4B3xm7Yvn07CwsLY1fU5yi/NnWZrfrdrnquTfkTWF+trutTxqEQyj/O80z9jlPrnvSenTt3Nt7TeQedme0xswUzW1haWuq6OiFEA5Mo+1HgymB/W3VsBe6+193n3X1+bm5ugupmE3df8RoisyCjmJxJlP1R4Gozu8rMNgIfBu7PI5YQIjetfXZ3P21mfwV8H9gAfMXdn8ommRAiK5N00OHu3wW+m0kWIUSHTKTs65Gwd3Uo/muO3vIuGIocOcjRq55Kju+tjbwaLitEIUjZhSiEmTDjp2Vax8znPs2+oTALZnvsuXQ9OCnGEL47texCFIKUXYhCkLILUQgz4bOHTDM0luq7rSffvusw0bT6YLqudwg+eh217EIUgpRdiEKYOTM+ZCjmYayu2LmuTfy27kSTzF18llkPq+aQuS+3Ty27EIUgZReiEGbajJ91Us3i3KZizmub7mmSv+tJPTE5YgxlIkyXJr1adiEKQcouRCFI2YUohHXlsw8l3DbE8ocyoqtvOZrq63tk4xC+f7XsQhSClF2IQlhXZrxINxeHMsFlWhOF2obo1ipnyKhlF6IQpOxCFIKUXYhCmGmffShhnL7LyF1vW/81x4q305wVmCrHtMjVr3CGNVt2M/uKmS2a2ZPBsUvN7EEze7Z6v2QiKYQQnZNixn8VuLl27E7ggLtfDRyo9oUQA2ZNM97d/8vMttcO3wJcX23vAx4G7sgp2LQYojk3Dm0ST6Re23X+9D6XuRpSbsDUGY6Tfh9tO+i2uPuxavs4sGUiKYQQnTNxb7yP/m4a/3LMbI+ZLZjZwtLS0qTVCSFa0rY3/oSZbXX3Y2a2FVhsutDd9wJ7Aebn5z2niTjU1U1j5EhK0ecouT7pIirQVEbXUYAcOfnqTMuMvx/YVW3vAvZPJIUQonNSQm9fB/4HeKuZHTGz3cBngZvM7FngT6p9IcSASemN/0jDqRszyyKE6JDBjKDLkWhvmktDdUnXySKHSpcjFsfxjYeStHLS37fGxgtRCFJ2IQphMGZ8blLDckM1e9uOpMr9eWbdNUoNvQ1pRF1XqGUXohCk7EIUgpRdiEIYpM+ew5/q06/NRWq/Qp+fbYiJI3MsqZxryeYuP3fuZ6mWXYhCkLILUQiDNOPbMgum+7RmrOWYYZdj1FnXCTC6qC830/otqmUXohCk7EIUwkyb8dMcZdanOdrF52xzrm3+uGlOJMkxwSq3HOOcy4ladiEKQcouRCFI2YUohJnw2bv2bdsQ8wVz+MpN22uV1+a+cUboNVH/DsL9pu3V9lPLHzpD8NHrqGUXohCk7EIUwkyY8UOnrZkduzbVzI6de+ONNxqvi51rM/klZp6fddZZjdfFznWZvz1X8opZyuGvll2IQpCyC1EIUnYhCkE+e402a20NyWd//fXXl7dDvzzcrt9XP5dKzGcPffGwrvB4rLz6/jj35WaIaxq0kSNl+acrzewhM3vazJ4ys9ur45ea2YNm9mz1fkkLmYUQPZFixp8GPunu1wDXAR83s2uAO4ED7n41cKDaF0IMlJS13o4Bx6rtl8zsIHAFcAtwfXXZPuBh4I5OpGyWLfna3GGcVHM8ZiLHykgNjcVCak0mfX0/JmNqeC02ijBmgjeVV78vdcRiF7MRU5/70EcDjtVBZ2bbgWuBR4At1R8BwHFgS17RhBA5SVZ2M7sI+BbwCXd/MTzno7+7Vf/yzGyPmS2Y2cLS0tJEwgoh2pOk7GZ2DiNF/5q7f7s6fMLMtlbntwKLq93r7nvdfd7d5+fm5nLILIRowZo+u40cjLuBg+7++eDU/cAu4LPV+/5OJOyZ1NBbqt+cI/Q2Ttjs9OnTy9uhzx5u1/fb+uypQ13D6zZs2NBYRlvfPvbMmvztcfz+Nkk3hxKiC0mJs78b+HPgp2b2RHXs7xgp+X1mthv4JXBbVsmEEFlJ6Y3/b6Dpb+rGvOIIIbpipkfQjZM0IrWMWHm5R9ClzliLhc3q5nloxjdt1++rl9H0eepmdmyEW5PpfvbZK39y4bm6iR/KEd6Xau7Xy4iZyG3PtSkjdl/qPW3Q2HghCkHKLkQhzLQZXyfV7EnN05Zaxjjl5x79FjPjX3vttVWP1++rl9HUOx/rBY/1stdN91TC8kOZhrSKaw7aJAtpg1p2IQpByi5EIUjZhSiEdeWz5yZHPvVYmW1Db6GPXffFU0NvTSPtVttvIjb6LfTh235vTbPe6t9HLBTXJvTWBTlmy01ahlp2IQpByi5EIRRjxrfJ7912aaW2MjWZ7qmj5GBluO3VV19Nui7crl8bmyQTM+PPOeec5e2NGzcub4/zvTWVXzdZQxnrcjQ9sy4mwrQlNTzYpowQtexCFIKUXYhCkLILUQjF+OxNdOF7x86l9gmkhtdCvxzg97///fL2K6+8sup2/b7YubCuuryhfxz66LDSTz///POXt2NhxFg4LAzlxUJvbZdKnmZYrq+61LILUQhSdiEKYV2Z8UNZPjfHcsuxEWMxEz80yUOTPtyu7//ud79rPBeG5WJmfGi2A5x33nmryhszU2Oj8MIyYkk0Yt9pjvxxqYktxjHH+3IT1LILUQhSdiEKYabN+HHM8S5N91wj7XJMhAnN7pip/tvf/nZ5++WXX248F/bMj2PGX3jhhaveF8tBVz8X9vC3XQ6riVxLPKWa7tNa8ilELbsQhSBlF6IQpOxCFMLM+extR0g1XTfU5IKxe0L/te6zhz526LOHfjjASy+9tLz94osr1unkN7/5zfJ26OvX+w5CfzscJQcr+w7C7/jcc89dcV24X59915R0s204cyi0/c1N+lnWbNnN7Dwz+5GZ/djMnjKzz1THrzKzR8zskJnda2Yb1ypLCDE9Usz4V4Ab3P3twA7gZjO7Dvgc8AV3fwtwEtjdmZRCiIlJWevNgTN23TnVy4EbgI9Wx/cBnwa+nF/Ebier9J03vk354+SND0fQhSZ4aLYDnDp1ann7hRdeWHHu17/+9ar31V2GMDT2pje9acW5zZs3r3rdRRddtOK6WG77pjx5OSbC5Fipda1rh0bq+uwbqhVcF4EHgV8Ap9z9zNM4AlzRiYRCiCwkKbu7v+7uO4BtwE7gbakVmNkeM1sws4WlpaV2UgohJmas0Ju7nwIeAt4FbDKzM27ANuBowz173X3e3efn5uYmkVUIMQFr+uxmNge85u6nzOx84CZGnXMPAbcC9wC7gP1dCroafc5ei9XXhRyxMmM+e+gDhz57fUjsyZMnl7cXFxdXnDt27Njydui/15NchDPb6n/koR998cUXL2/X/fLU2X2pobf1RO7PlRJn3wrsM7MNjCyB+9z9ATN7GrjHzP4JeBy4O6tkQoispPTG/wS4dpXjzzHy34UQM8AgR9B1YZalzmpKZSimY12Opvx09VlvoVkfmvQAx48fX94+ceJEYxmx3HKh6V43/0NSw1x95vPvmrYz7iZFY+OFKAQpuxCFMEgzPja6qWtyTLSJkZrgYJxcbSFNvdupvfaw0sQPR9rVrwvLqE+0qU9qOUNd9tiyTiE5EoLESB0Jl2MSS47fd5t71LILUQhSdiEKQcouRCEM0mfvmtRQRxc+ehsfMpYnPeYDx5ZUjp0LEz+GySXqfn+YZLK+/FO4H5YXJryo191FUodZmpU2Dm0+l1p2IQpByi5EIcyEGZ9jiZ2hjKxqE3qr3xMzwUMzOTSz67nfLrjgguXtTZs2rTgXTmoJv7f6SLgwN/zll1++4lyYzCKcMFM342OfMzUUuV5N9dyoZReiEKTsQhSClF2IQpgJnz1knGSATfd17b+39SGbfNRY2Ky+PlroH4fboX8NK33qur8dlh/68/UhsOGst8suu2zFubDMsO66vKmfU/775KhlF6IQpOxCFMLMmfExcpjqbdyEtjnIY+WkhtfqI9eaTPf66LeQehmhiR9bsjkM7dXdhDB5RVhefWnn2Oi68FxspJ1M/DTUsgtRCFJ2IQphXZnxXdNkBsZyio0zEabJjK+btzEzPuwhD033uisQmtPhaDpY2eseJsCof5bQzK6b5+GIvbD8+mqvsck0TSb+OAkwmp7ZNE36HEtIaSKMEKIRKbsQhSBlF6IQivHZc4+a6zpBYWpyibqfG/rKob9dLyO8LwzXwcrc8+H3FgsB1vsVwvJjs+/C6+qfpclPjyXzaBuWSyXV3+5iaedJy0hu2atlmx83sweq/avM7BEzO2Rm95rZxrXKEEJMj3HM+NuBg8H+54AvuPtbgJPA7pyCCSHykmTGm9k24M+Afwb+xkb2xA3AR6tL9gGfBr7cgYzJpJrqOXKJ584DXi8nNkEkFnqrm8ltyghDdrHPkhoejJnx4bn6JJnUEXSpJn7ppLbsXwQ+BZxxAi8DTrn7GefuCHBFXtGEEDlZU9nN7IPAors/1qYCM9tjZgtmtrC0tNSmCCFEBlJa9ncDHzKzw8A9jMz3LwGbzOyMnbUNOLraze6+193n3X0+zG0mhOiXlPXZ7wLuAjCz64G/dfePmdk3gFsZ/QHsAvZ3J2ajbK3OtSXHcNnU8mM+e6zu0CcOy4iFxupJKcLQW30p5iZ5U8ODsVlvdZ+9KbSXI/TWxe8jtR9nWv0IkwyquYNRZ90hRj783XlEEkJ0wViDatz9YeDhavs5YGd+kYQQXVDMCLpUciSvSD0XuzY0W2OhppjZ2hT+gpWmej2xRbgfM+ObZKrvh3Kkmuqxc0Od9ZY7cUZuGTU2XohCkLILUQhFmvG5JyXk6tlN7Y1PrS81j13djA/LTzXjU92JcVaTzTERpg3jmONDTI7RhFp2IQpByi5EIUjZhSiEdeuz55qJlluO3Pe19edTk2I2ba8lY1M4LLZkc6o/n+o318lxXY7w2iyOoBNCzBBSdiEKYabN+LY52XOY9DnKSDWD63XFQmOxSTNNdaea8bEyYudSw2apIbUulnjKbbp37b61QS27EIUgZReiEKTsQhTCTPvss0iO2U+xRAhNPnDdt0/1y3MsP902r3vTZ2kbeku9R6E3IcRMI2UXohBm2ozPkZ+965F1fZtsTSG7tuG1GG3M1rYzynKU0QWa9SaEGBxSdiEKYabN+LbkXiYqF21SVXdZbxdljGNmdz1qblq0yXOYA7XsQhSClF2IQpCyC1EIM+ezTysJxTjkCO31GTLKsYR1m3rXKjO3z971TLTcMuZe3ix1ffbDwEvA68Bpd583s0uBe4HtwGHgNnc/ObYEQoheGMeMf5+773D3+Wr/TuCAu18NHKj2hRADZRIz/hbg+mp7H6M14O6YUJ5eSDWVUiegtE3w0DV9jhRMlaPtdX3mmevivty0kSO1ZXfgB2b2mJntqY5tcfdj1fZxYMvYtQsheiO1ZX+Pux81s8uBB83sZ+FJd3czW7XpqP4c9gC8+c1vnkhYIUR7klp2dz9avS8C32G0VPMJM9sKUL0vNty7193n3X1+bm4uj9RCiLFZs2U3swuBs9z9pWr7/cA/AvcDu4DPVu/7uxQ0kGd5u4ukj22SVrYd/ph6X9ukETlkbEufCSW6vG6ta2dp1luKGb8F+E4l/NnAv7v798zsUeA+M9sN/BK4rTsxhRCTsqayu/tzwNtXOf4CcGMXQgkh8jNzI+hCxjGV2owSy5GHPkeIp+vQ3jiuTO66ui4zh5k9LZM893PR2HghCkHKLkQhSNmFKISZ9tm7JtVn6qLvIEf5uX3NcWTvMvtNFwknhxgqy41adiEKQcouRCHIjB+DVFNvqLPg+qTPpJhDNNW7SBI6aRlq2YUoBCm7EIWwbs34LibJpJY/rbzga9XdRMzkzDEhp0+G6ib1meevCbXsQhSClF2IQpCyC1EI69Znb0uOME6O2XJ90kVizRx9B21I7X+IMU2/v8sRkGrZhSgEKbsQhSAzvgNy5KVvU1fbMtrWleNczGydlpvT9RLZ05JDLbsQhSBlF6IQpOxCFIJ89o5pm5c+V31N9ClHW5ly554vHbXsQhSClF2IQli3ZnwXSyvlYCgj6LpeRiuHCT6tEW9DdQV6yRtvZpvM7Jtm9jMzO2hm7zKzS83sQTN7tnq/ZCJJhBCdkmrGfwn4nru/jdFSUAeBO4ED7n41cKDaF0IMlJRVXC8G3gv8BYC7vwq8ama3ANdXl+0DHgbu6ELI3AzFTJtmkouYHH2azzF3Ygh529YTKS37VcAS8G9m9riZ/Wu1dPMWdz9WXXOc0WqvQoiBkqLsZwPvAL7s7tcCL1Mz2X30l7xqc2Bme8xswcwWlpaWJpVXCNGSFGU/Ahxx90eq/W8yUv4TZrYVoHpfXO1md9/r7vPuPj83N5dDZiFEC9ZUdnc/DvzKzN5aHboReBq4H9hVHdsF7O9EwjEws6RXKu6e9Or7s3RNU119y9GGocqY+7fZhtQ4+18DXzOzjcBzwF8y+qO4z8x2A78EbutGRCFEDpKU3d2fAOZXOXVjVmmEEJ2xbkfQxcg9eqzvZAd9jsLr0xQeygi6HLSVqctnq7HxQhSClF2IQpCyC1EIRfrsIj/T9O1FGmrZhSgEKbsQhWA9z65aYjQAZzPwfG8Vr84QZADJUUdyrGRcOf7Q3Vcdl96rsi9Xarbg7qsN0ilKBskhOfqUQ2a8EIUgZReiEKal7HunVG/IEGQAyVFHcqwkmxxT8dmFEP0jM16IQuhV2c3sZjN7xswOmVlv2WjN7CtmtmhmTwbHek+FbWZXmtlDZva0mT1lZrdPQxYzO8/MfmRmP67k+Ex1/Coze6R6PvdW+Qs6x8w2VPkNH5iWHGZ22Mx+amZPmNlCdWwav5HO0rb3puxmtgH4F+BPgWuAj5jZNT1V/1Xg5tqxaaTCPg180t2vAa4DPl59B33L8gpwg7u/HdgB3Gxm1wGfA77g7m8BTgK7O5bjDLczSk9+hmnJ8T533xGEuqbxG+kubXtq6qVJX8C7gO8H+3cBd/VY/3bgyWD/GWBrtb0VeKYvWQIZ9gM3TVMW4ALgf4F3Mhq8cfZqz6vD+rdVP+AbgAcAm5Ich4HNtWO9PhfgYuD/qPrScsvRpxl/BfCrYP9IdWxaTDUVtpltB64FHpmGLJXp/ASjRKEPAr8ATrn76eqSvp7PF4FPAW9U+5dNSQ4HfmBmj5nZnupY38+l07Tt6qAjngq7C8zsIuBbwCfc/cVpyOLur7v7DkYt607gbV3XWcfMPggsuvtjfde9Cu9x93cwcjM/bmbvDU/29FwmStu+Fn0q+1HgymB/W3VsWiSlws6NmZ3DSNG/5u7fnqYsAO5+CniIkbm8yczOTHvu4/m8G/iQmR0G7mFkyn9pCnLg7ker90XgO4z+APt+LhOlbV+LPpX9UeDqqqd1I/BhRumop0XvqbBtNBH7buCgu39+WrKY2ZyZbaq2z2fUb3CQkdLf2pcc7n6Xu29z9+2Mfg//6e4f61sOM7vQzP7gzDbwfuBJen4u3nXa9q47PmodDR8Afs7IP/z7Huv9OnAMeI3Rv+duRr7hAeBZ4IfApT3I8R5GJthPgCeq1wf6lgX4Y+DxSo4ngX+ojv8R8CPgEPAN4Nwen9H1wAPTkKOq78fV66kzv80p/UZ2AAvVs/kP4JJccmgEnRCFoA46IQpByi5EIUjZhSgEKbsQhSBlF6IQpOxCFIKUXYhCkLILUQj/D9HnH/YQ2a3SAAAAAElFTkSuQmCC;" parent="1" vertex="1">
                    <mxGeometry x="951" y="1240" width="258" height="258" as="geometry"/>
                </mxCell>
                <mxCell id="57" value="" style="shape=image;verticalLabelPosition=bottom;labelBackgroundColor=#ffffff;verticalAlign=top;aspect=fixed;imageAspect=0;image=data:image/png,iVBORw0KGgoAAAANSUhEUgAAAPsAAAD7CAYAAACscuKmAAAAOXRFWHRTb2Z0d2FyZQBNYXRwbG90bGliIHZlcnNpb24zLjMuNCwgaHR0cHM6Ly9tYXRwbG90bGliLm9yZy8QVMy6AAAACXBIWXMAAAsTAAALEwEAmpwYAAAY1klEQVR4nO2dXawd1XXH/39/20Cw4VLLsh2bKigRD40JV8RRoohAiWgahT5EKB+q3MqSX9KKqKkCtFKVVK1EXvLxUEWySho/pAHyVSMUJSEuqKrUEC6FJIBDcFwItmyuL8HhI4k/YPXhzL3aZ3Rn3z377D0zl/3/SVd3Zvac2evMOevMWnutvTbNDEKINz4r+hZACNENUnYhCkHKLkQhSNmFKAQpuxCFIGUXohAmUnaSN5J8iuQRkrelEkoIkR7GxtlJrgTwCwA3ADgG4GEAHzWzJ9OJJ4RIxaoJXnsNgCNmdhQASN4F4CYAjco+NTVlO3bsmKDLcEiO7bs/au7266+/Pnaeu1//IfS1NbFixYrGfV+bK3/9vbj45PC9LpQuk65SyJuDFPcg5r3F9Pvss89ibm5u0c4mUfatAJ5z9o8BeKfvBTt27MCPfvSjCbr041MQ98adPXt2Yft3v/vd2Hnufr3tzJkzC9vnzp1b9NrAuNKuXbt2rG39+vUL2xs2bBhrc/fXrVu36PXq/dV/rEJ/JELxfeFi2uoyufv19xkqf9MPeSpiru97nzH9hva9e/fuxrbsA3Qk95GcITkzNzeXuzshRAOTPNmPA9ju7G+rjo1hZvsB7AeAq6++enCJ+L5fYN+vsfsUqj9dm8zxpa7v7mvOgkjNJE/2hwFcQfJykmsAfATAvWnEEkKkJvrJbmbnSf4VgO8DWAngK2b2RDLJhBBJmcSMh5l9F8B3E8kihMjIRMoew7xf2qdP6vObXX971arx27NmzZqF7fPnzzde373G6tWrx9rca9ZHn5vIHV7LQZNcbUapQ78jMSHR2Pvmi/Lk/iwmvb7SZYUoBCm7EIXQuRk/TwrzLUXfK1euHGtzze66HO7rfOf5XAH3dfW2FGZ9KLnDfKFmfCi+xJYUZrxPrtC21GZ8zPW84eJJhBFCLB+k7EIUgpRdiELozWePJUWow/WN6z573Y92cc91/URf+K5+fXe/3tb0ftr41DG+si+cFCpHqA/c5jNrmvDj89nrqctN+Cbd+MZOQu9jl+MgoejJLkQhSNmFKIRlZ8anyHzyhd5c6uZck4nYZo62r3jFULPhYkhRfCOm4EioGV/H/Sx8Idc6oe5K6Jz40FmRMejJLkQhSNmFKIRBmvGho8M+Qk0l38hraEZbqmysJtqYlaHXSHFuiuyx0BHs2Ay6puhNTMmnSUh9/Zj7rSe7EIUgZReiEKTsQhRC5z57iO+SOuTQpi+fnx6Tvdd1OC21bziUwpcxZaVTXd/3uYeOCTS9JlamGPRkF6IQpOxCFMIgQ28+UphzoWG52JBXDlOy6fopwpShLLflpHykKKIR2xb7/fMR8n70ZBeiEKTsQhSClF2IQhhM6C11imlovz5iZy75zotJMe3TV07xuaToO3Q2mG/F2xRr8IUSm44bW5wl5PpLPtlJfoXkLMnHnWOXkLyf5NPV/03BUgkheiHEjP8qgBtrx24DcMjMrgBwqNoXQgyYJc14M/svkjtrh28CcG21fQDAgwBuDelw3tyIDRn5zK0u683nvkaXs8iGUjQjNrPMV3ii6XW+wiGpzedYUl87doBus5mdqLZPAticSB4hRCYmHo230c9P408QyX0kZ0jOnDp1atLuhBCRxI7GP09yi5mdILkFwGzTiWa2H8B+ALj66qvNOT52Xu6CDKnL/OaIHgx1cs08Xa8mGxq56dKM931vU9yfnMuixT7Z7wWwp9reA+DgRFIIIbITEnr7OoD/AfBWksdI7gVwB4AbSD4N4I+rfSHEgAkZjf9oQ9P1iWURQmRkkEs210k92T914cHcxTa6LOaxHIi9H6kLZAL9hTCb6uP7vr/KjReiEKTsQhRC52b8pKZOTD2weltMX3VCJ07kzvLrMuQVS2xtttDQWwrzPJTQ0Fub0Gzoqrl9hd6EEMsMKbsQhSBlF6IQll3ByVhSpMuG+oahbX3VD19Kjhg/1EeKGuouKQpPpBg7WEqumLYcxSjn0ZNdiEKQsgtRCMsu9DZEGYbwntoSU8e8TVuXpAi9Lfd69iHoyS5EIUjZhSiEIs34UGJN2NSTI2ILJvhM9b4m/PjkiDWlQ+937P1IMRqfegXgpjbfa/RkF6IQpOxCFIKUXYhCeENl0MX4kF3Pkgo9N0UIKdZHjfEHfXKE9usjxVJTqccwYgkttpr6u6knuxCFIGUXohCWnRmf2+zuMjSYeoJIbmJdkj7fS+rCELmLhYROUIpBT3YhCkHKLkQhSNmFKIRl4bMvt1lqKXzx1MUz64SmYsaGvELrmscW7gyVI3UoMtaPTlGUYtLQbMjyT9tJPkDySZJPkLylOn4JyftJPl3939S6dyFEZ4SY8ecBfMrMrgSwG8AnSF4J4DYAh8zsCgCHqn0hxEAJWevtBIAT1fbLJA8D2ArgJgDXVqcdAPAggFsDrrfo8aFkv6WYyRVbKywm66zLZZ7bzFiLCb31acaHXnModfpjviutBuhI7gRwFYCHAGyufggA4CSAzW2uJYTolmBlJ3khgG8B+KSZveS22ejnZNGfFJL7SM6QnJmbm5tIWCFEPEHKTnI1Ror+NTP7dnX4eZJbqvYtAGYXe62Z7TezaTObnpqaSiGzECKCJX12jpyUOwEcNrPPO033AtgD4I7q/8FJBIldJysnsZVHYsJrbdpiiL1vTSG0eluor5xj+encs9mGkkIdc55LSJz93QD+HMDPSD5WHfs7jJT8HpJ7ATwL4ObWvQshOiNkNP6/ATT9tF2fVhwhRC46z6CLCb2lDsGE9htKbEhqqetM8hogPvMrJussZ+bXkIh1Q1IsPzapS6LceCEKQcouRCEMciLMcjP1ctRCb9NfCG3uaWhNtFATv8/lmWJWpO1yhd42qHiFECIIKbsQhSBlF6IQevPZY33IHGt5xZB6xlds36HnrVgR/rueei2y2Ay6mDXcfMSOHaSYkRmacaklm4UQEyNlF6IQBrNk81AmG6RYDtk3eaSprzZ9+/pqet1rr70WdL06ofcqtPBECnO8DSm+b7llTvnd15LNQggpuxClIGUXohAGmS7bJzG+cptZaTH+X5vru7550/ZSbaHvzQ3nrVo1/lVavXr1otv189xr5C6eOZSiKKFoyWYhRBRSdiEKYVmY8blneYX2FVODPPcsr/p558+fX9g+e/bswvaZM2fGznPb3G1g3Ix3t+tZeK5JvmbNmrG2devWNcrYdI36vYox8XPQZa3AnOjJLkQhSNmFKIRlYcZ3SUxdtTakWPXThzuy7pruv/3tb8fOc/d///vfj7W5Zr3PjHdN9w0bNjTK4VK/hns/Vq5cOdbm9p26AEaq8t85XczYFWOb0JNdiEKQsgtRCFJ2IQphWfjsk9aab3PtFIUncoeJfNd3fWXX96777L/5zW8Wtl9++eWxNvfcc+fONfbrhtfe9KY3jbVt2rRpYdv1091sOmDcT/eF3kLpso6+77zcSzvHXH/Ju0lyHckfk/wJySdIfrY6fjnJh0geIXk3yTVLXUsI0R8hP51nAFxnZm8HsAvAjSR3A/gcgC+Y2VsAvAhgbzYphRATE7LWmwF4pdpdXf0ZgOsAfKw6fgDAZwB8eanrpTRvYjPXQs25rrOjYvrzTYTxmfEvvfTSwvapU6fG2l544YWFbdfEr4fT3HDbZZddNta2devWhW03S841/YFxsz6FKR1LX0sy+ehlIgzJldUKrrMA7gfwSwCnzWw+N/MYgK0NLxdCDIAgZTez18xsF4BtAK4B8LbQDkjuIzlDcmZubi5OSiHExLQa7jSz0wAeAPAuABtJzttn2wAcb3jNfjObNrPpqampSWQVQkzAkj47ycsAnDOz0yTXA7gBo8G5BwB8GMBdAPYAODiJICnSSGP87dj63r5rpCC25rubYuqGzeqz3lxffHZ2dqztV7/61cL2yZMnF7ZfffXVsfMuvPDChe0dO3Y0yuSG5dyQXF1eX6HOFL5xjtBY6s8+Z9g2JM6+BcABkisxsgTuMbP7SD4J4C6S/wTgUQB3ZpNSCDExIaPxPwVw1SLHj2LkvwshlgGdZtCRHGStLxff7KqY8E+OwhY+GZvMYreoBTBu1rvZdABw7Nixhe2jR48ubJ8+fXrsvAsuuGBh23UZAGDjxo0L29u3b2+UI/WSXTnut+8aKVy73LX35lFuvBCFIGUXohCWxUSYUGJGW1OYdjlWjE2x4qi77RvRr5vg7qj7r3/964Xteqada8ZfeumlY23uaL/rMoQujQXkzZpLVRgixQqvKeQIQU92IQpByi5EIUjZhSiEwSzZ7BIb1ootThBznk+OWGJk9BV8CK3rXi8W6fri7vYrr7wydt769esXtteuXTvW5vbtGy+IzXRMTersuhyht0nRk12IQpCyC1EIgzHjU9T09tHlJBYfMSG1NqEa13x2Teu6qe5muG3evHmsbefOnQvbbqisXqDCdQXqE2Hcc92+20zqialBl4LU9drr9JVFqie7EIUgZReiEKTsQhTCYNJlY4pA5kh17dKfyhHiaSrueNFFF42d5xaPrM9Ec2u5u9WF6qE3t6+6P+/OdHOLV7ivqcsfumRzm4IjKUgxky62AGqoHCHoyS5EIUjZhSiE3kJvXdf+HkrRjBQznpqWMgbG67C7GW71MFZTiA4YrxPnmu5uHfr6Nd2+gHHT/eKLL15Uvrr8PjPeF4ZLkTkZy1BmWoagJ7sQhSBlF6IQehuNz5El5yP3iG1qOUJHaH2j8W5bfRTcNd3dyS7A+Ai8O1LvKzxRl8Md0XdNd98qrnVTvcl073o0/o2CnuxCFIKUXYhCkLILUQid++xdL4O8nIi5Nz5f2Vdw0lfYIrTQY2jNd58cPp89dIZgimW2Y/3+FMVOBlc3vlq2+VGS91X7l5N8iOQRkneTXLPUNYQQ/dHGjL8FwGFn/3MAvmBmbwHwIoC9KQUTQqQlyIwnuQ3AnwL4ZwB/w5E9cR2Aj1WnHADwGQBfziBjMCnMuZjrx4YRY1ekDTVpmyaSAP4svCa52tzTUDPelyWXuiZ7itqGsX236S+EmMIeoa/4IoBPA5j/hlwK4LSZzQdhjwHY2rp3IURnLKnsJD8IYNbMHonpgOQ+kjMkZ+origghuiPkyf5uAB8i+QyAuzAy378EYCPJeTdgG4Dji73YzPab2bSZTdfnPAshuiNkffbbAdwOACSvBfC3ZvZxkt8A8GGMfgD2ADjYpuNY/y/2vKGkUcb66aGEvk/X5/Olwcak99b3fT57TAHOIRUciZU55Bqp39ckSTW3YjRYdwQjH/7ONCIJIXLQKqnGzB4E8GC1fRTANelFEkLkYJAZdDnrcNVpYyrFhKTaLFEVKldoPTbfcXffzWKLpcslk/oq/pCLJlcptbui3HghCkHKLkQhDHL5p9C2Pkdlu6TNCHAKN6HpvNjstBQrtfZZS67L4hg5l0HTk12IQpCyC1EIUnYhCmEwyz+FEuob5vb/cvioTf5xm/cSGsbJnW2YIrSVWo4Us966zNJMHR7Uk12IQpCyC1EIy8KMDzXFcptRKYo6hBIzQaR+bop6bDlfA/Rn+g4pg64JmfFCiCik7EIUgpRdiELozWfvcmZbDnL76V1e2xdq6jKFNUXBxhSpubHnDn3NOT3ZhSgEKbsQhTCY4hVDMd1jzMAul5uu973UuSGEzqrrc1aaiy8kGhqa7TrDMnUN/Bj0ZBeiEKTsQhTCYMz4N5IMQ1kuKHW2YewyVLE0medtzPiY0tqhMrUh9Uh9zDX0ZBeiEKTsQhSClF2IQhhkBp2PoYR/fP2m8JWHMLbRhtjPJWb8oU0hjiZfObRwSJvrp/DLc36HQ9dnfwbAywBeA3DezKZJXgLgbgA7ATwD4GYzezGPmEKISWljxr/PzHaZ2XS1fxuAQ2Z2BYBD1b4QYqBM4rPfBOBAtX0AwJ8t9QIzW/hrA8mgvxJx72n9LzVt7ndfn0vue7Dc5HAJVXYD8AOSj5DcVx3bbGYnqu2TADYnl04IkYzQAbr3mNlxkn8A4H6SP3cbzcxILvrzVf047AOAN7/5zRMJK4SIJ+jJbmbHq/+zAL6D0VLNz5PcAgDV/9mG1+43s2kzm56amkojtRCiNUs+2UleAGCFmb1cbb8fwD8CuBfAHgB3VP8PhnQ477/0GZoYSrpsLLnTZVOk+6YuWhnaV9cpyKm/SzmKb8wTYsZvBvCd6uKrAPy7mX2P5MMA7iG5F8CzAG5u3bsQojOWVHYzOwrg7YscfwHA9TmEEkKkZzAZdDFmZeolbWPJkUGXmxjTt43sXX4WKWbwpTp3ntiafzllUm68EIUgZReiEKTsQhTCINd6iw0LdVkE0keK8M9Q3meXoc4U4cAUYcnc69alDlmGoie7EIUgZReiEAZpxtcJrfftM4OHMvMoNbmLYYS6FilqubdpiyH2+zGUcKlLzPoLerILUQhSdiEKoXMzvquVSrs0y7p2EbqcaJNi5H8oZnDuKEmKvif9Dvv60ZNdiEKQsgtRCFJ2IQphMKG33H5dky+Uo98UYSffeV2OOaQej8gdagsNqaWYedZGjtC2nOFjPdmFKAQpuxCF0JsZ3+cyTrmXKoolNFOw6TVt6DLbsMsJLqH43vNQQoV1Jv1u6skuRCFI2YUoBCm7EIXQqc+ee+2vFH5dzPK8uWuJ9xl6Cz0vd712H74U09yFPmLGWXLL0YSe7EIUgpRdiEIYTAadSw5TLLWJH5olV8dn9sWYhD5iZWwit6neZQadD9/3L9alSl17PuZeBT3ZSW4k+U2SPyd5mOS7SF5C8n6ST1f/N7XuXQjRGaFm/JcAfM/M3obRUlCHAdwG4JCZXQHgULUvhBgoIau4XgzgvQD+AgDM7CyAsyRvAnBtddoBAA8CuNV3LTObeBXXUGInd8S0xU6qCDUJYzOnUpvxKcjhosWYu20iCymWZxpCTb6QJ/vlAE4B+DeSj5L8V46Wbt5sZieqc05itNqrEGKghCj7KgDvAPBlM7sKwKuomew2+qla9OeK5D6SMyRn5ubmJpVXCBFJiLIfA3DMzB6q9r+JkfI/T3ILAFT/Zxd7sZntN7NpM5uemppKIbMQIoKQ9dlPknyO5FvN7CmM1mR/svrbA+CO6v/BNh238XP7CpuFtrWZQZV7iaAU7y107CBF0Ysuw3IpCP08Y332kGvHnhsaZ/9rAF8juQbAUQB/iZFVcA/JvQCeBXBzsGRCiM4JUnYzewzA9CJN1yeVRgiRjcFk0A2leEDoBJfQyRdtQimpQzwhx5c6N1T+1Ga77/pDMeljib1Xk2ZYKjdeiEKQsgtRCFJ2IQphMD57anLPjlsOPuRQU2RFP+jJLkQhSNmFKAR2aWKRPIVRAs4UgL4T5YcgAyA56kiOcdrKscPMLlusoVNlX+iUnDGzxZJ0ipJBckiOLuWQGS9EIUjZhSiEvpR9f0/9ugxBBkBy1JEc4ySToxefXQjRPTLjhSiETpWd5I0knyJ5hGRn1WhJfoXkLMnHnWOdl8ImuZ3kAySfJPkEyVv6kIXkOpI/JvmTSo7PVscvJ/lQ9fncXdUvyA7JlVV9w/v6koPkMyR/RvIxkjPVsT6+I9nKtnem7CRXAvgXAH8C4EoAHyV5ZUfdfxXAjbVjfZTCPg/gU2Z2JYDdAD5R3YOuZTkD4DozezuAXQBuJLkbwOcAfMHM3gLgRQB7M8sxzy0YlSefpy853mdmu5xQVx/fkXxl2+fLO+f+A/AuAN939m8HcHuH/e8E8Liz/xSALdX2FgBPdSWLI8NBADf0KQuADQD+F8A7MUreWLXY55Wx/23VF/g6APcBYE9yPANgqnas088FwMUA/g/VWFpqObo047cCeM7ZP1Yd64teS2GT3AngKgAP9SFLZTo/hlGh0PsB/BLAaTM7X53S1efzRQCfBvB6tX9pT3IYgB+QfITkvupY159L1rLtGqCDvxR2DkheCOBbAD5pZi/1IYuZvWZmuzB6sl4D4G25+6xD8oMAZs3ska77XoT3mNk7MHIzP0HyvW5jR5/LRGXbl6JLZT8OYLuzv6061hdBpbBTQ3I1Ror+NTP7dp+yAICZnQbwAEbm8kaS89Oeu/h83g3gQySfAXAXRqb8l3qQA2Z2vPo/C+A7GP0Adv25TFS2fSm6VPaHAVxRjbSuAfARAPd22H+dezEqgQ1ElMKOgaOJ73cCOGxmn+9LFpKXkdxYba/HaNzgMEZK/+Gu5DCz281sm5ntxOj78J9m9vGu5SB5AcmL5rcBvB/A4+j4czGzkwCeI/nW6tB82fY0cuQe+KgNNHwAwC8w8g//vsN+vw7gBIBzGP167sXINzwE4GkAPwRwSQdyvAcjE+ynAB6r/j7QtSwA/gjAo5UcjwP4h+r4HwL4MYAjAL4BYG2Hn9G1AO7rQ46qv59Uf0/Mfzd7+o7sAjBTfTb/AWBTKjmUQSdEIWiATohCkLILUQhSdiEKQcouRCFI2YUoBCm7EIUgZReiEKTsQhTC/wPTqAxbnHm88gAAAABJRU5ErkJggg==;" parent="1" vertex="1">
                    <mxGeometry x="700" y="1240" width="258" height="258" as="geometry"/>
                </mxCell>
                <mxCell id="58" value="&lt;span style=&quot;color: rgb(101, 71, 53); font-family: &amp;quot;droid sans mono&amp;quot;, monospace, monospace, &amp;quot;droid sans fallback&amp;quot;; font-size: 14px;&quot;&gt;587727180596969574&lt;/span&gt;" style="text;html=1;strokeColor=none;fillColor=none;align=center;verticalAlign=middle;whiteSpace=wrap;rounded=0;fontStyle=1" parent="1" vertex="1">
                    <mxGeometry x="150" y="1491" width="130" height="20" as="geometry"/>
                </mxCell>
                <mxCell id="59" value="&lt;span style=&quot;color: rgb(101, 71, 53); font-family: &amp;quot;droid sans mono&amp;quot;, monospace, monospace, &amp;quot;droid sans fallback&amp;quot;; font-size: 14px;&quot;&gt;587731187814563977&lt;/span&gt;" style="text;html=1;strokeColor=none;fillColor=none;align=center;verticalAlign=middle;whiteSpace=wrap;rounded=0;fontStyle=1" parent="1" vertex="1">
                    <mxGeometry x="400" y="1491" width="130" height="20" as="geometry"/>
                </mxCell>
                <mxCell id="60" value="&lt;span style=&quot;color: rgb(101, 71, 53); font-family: &amp;quot;droid sans mono&amp;quot;, monospace, monospace, &amp;quot;droid sans fallback&amp;quot;; font-size: 14px;&quot;&gt;587727220876705819&lt;/span&gt;" style="text;html=1;strokeColor=none;fillColor=none;align=center;verticalAlign=middle;whiteSpace=wrap;rounded=0;fontStyle=1" parent="1" vertex="1">
                    <mxGeometry x="770" y="1491" width="130" height="20" as="geometry"/>
                </mxCell>
                <mxCell id="61" value="&lt;span style=&quot;color: rgb(101, 71, 53); font-family: &amp;quot;droid sans mono&amp;quot;, monospace, monospace, &amp;quot;droid sans fallback&amp;quot;; font-size: 14px;&quot;&gt;587731187277758607&lt;/span&gt;" style="text;html=1;strokeColor=none;fillColor=none;align=center;verticalAlign=middle;whiteSpace=wrap;rounded=0;fontStyle=1" parent="1" vertex="1">
                    <mxGeometry x="1027" y="1491" width="130" height="20" as="geometry"/>
                </mxCell>
                <mxCell id="62" value="&lt;font style=&quot;font-size: 40px&quot;&gt;nearest&lt;/font&gt;" style="text;html=1;strokeColor=none;fillColor=none;align=center;verticalAlign=middle;whiteSpace=wrap;rounded=0;" parent="1" vertex="1">
                    <mxGeometry x="-80" y="735.5" width="130" height="20" as="geometry"/>
                </mxCell>
                <mxCell id="63" value="&lt;font style=&quot;font-size: 40px&quot;&gt;linear&lt;/font&gt;" style="text;html=1;strokeColor=none;fillColor=none;align=center;verticalAlign=middle;whiteSpace=wrap;rounded=0;" parent="1" vertex="1">
                    <mxGeometry x="-80" y="1045.5" width="130" height="20" as="geometry"/>
                </mxCell>
                <mxCell id="66" value="&lt;font style=&quot;font-size: 40px&quot;&gt;cubic&lt;/font&gt;" style="text;html=1;strokeColor=none;fillColor=none;align=center;verticalAlign=middle;whiteSpace=wrap;rounded=0;" parent="1" vertex="1">
                    <mxGeometry x="-80" y="1355.5" width="130" height="20" as="geometry"/>
                </mxCell>
            </root>
        </mxGraphModel>
    </diagram>
</mxfile>